<?xml version="1.0" encoding="UTF-8"?>
<!DOCTYPE svg PUBLIC "-//W3C//DTD SVG 1.1//EN" "http://www.w3.org/Graphics/SVG/1.1/DTD/svg11.dtd">
<!-- Creator: CorelDRAW -->
<svg xmlns="http://www.w3.org/2000/svg" xml:space="preserve" width="225.558mm" height="277.545mm" version="1.1" style="shape-rendering:geometricPrecision; text-rendering:geometricPrecision; image-rendering:optimizeQuality; fill-rule:evenodd; clip-rule:evenodd"
viewBox="0 0 19982.34 24587.88"
 xmlns:xlink="http://www.w3.org/1999/xlink"
 xmlns:xodm="http://www.corel.com/coreldraw/odm/2003">
 <defs>
  <style type="text/css">
   <![CDATA[
    .str10 {stroke:#2B2A29;stroke-width:66.44;stroke-miterlimit:22.9256}
    .str12 {stroke:#2B2A29;stroke-width:66.44;stroke-miterlimit:22.9256}
    .str9 {stroke:#2B2A29;stroke-width:132.89;stroke-miterlimit:22.9256}
    .str14 {stroke:#2B2A29;stroke-width:22.15;stroke-miterlimit:22.9256}
    .str13 {stroke:#2B2A29;stroke-width:17.72;stroke-miterlimit:22.9256}
    .str15 {stroke:#B08D45;stroke-width:6.75;stroke-miterlimit:22.9256}
    .str6 {stroke:#B08D45;stroke-width:6.75;stroke-miterlimit:10}
    .str4 {stroke:#B08D45;stroke-width:66.44;stroke-linejoin:bevel;stroke-miterlimit:2.613}
    .str8 {stroke:#414B5A;stroke-width:44.3;stroke-linejoin:bevel;stroke-miterlimit:2.613}
    .str2 {stroke:#B08D45;stroke-width:106.31;stroke-linejoin:bevel;stroke-miterlimit:2.613}
    .str7 {stroke:#231F20;stroke-width:6.75;stroke-linejoin:bevel;stroke-miterlimit:2.613}
    .str3 {stroke:#4F7E07;stroke-width:6.75;stroke-linejoin:bevel;stroke-miterlimit:2.613}
    .str5 {stroke:#B08D45;stroke-width:6.75;stroke-linejoin:bevel;stroke-miterlimit:2.613}
    .str11 {stroke:#2B2A29;stroke-width:44.3;stroke-linecap:square;stroke-miterlimit:22.9256}
    .str0 {stroke:#9D9E9E;stroke-width:6.76;stroke-miterlimit:2.613}
    .str1 {stroke:#2B2A29;stroke-width:6.76;stroke-miterlimit:2.613}
    .fil15 {fill:none}
    .fil2 {fill:none;fill-rule:nonzero}
    .fil16 {fill:#2B2A29}
    .fil12 {fill:#231F20}
    .fil13 {fill:#BDD0DC}
    .fil9 {fill:#EBECEC;fill-rule:nonzero}
    .fil7 {fill:#434242;fill-rule:nonzero}
    .fil14 {fill:#2B2A29;fill-rule:nonzero}
    .fil1 {fill:#2B2A29;fill-rule:nonzero}
    .fil4 {fill:#17BF17;fill-rule:nonzero}
    .fil11 {fill:#231F20;fill-rule:nonzero}
    .fil3 {fill:#4F7E07;fill-rule:nonzero}
    .fil8 {fill:#B08D45;fill-rule:nonzero}
    .fil10 {fill:#BDD0DC;fill-rule:nonzero}
    .fil5 {fill:#BF1717;fill-rule:nonzero}
    .fil6 {fill:#BFBF17;fill-rule:nonzero}
    .fil0 {fill:#ECECE7;fill-rule:nonzero}
   ]]>
  </style>
 </defs>
 <g id="Слой_x0020_1">
  <metadata id="CorelCorpID_0Corel-Layer"/>
  <path class="fil0 str0" d="M19935.67 23928.21c14.94,2.63 -5272.01,1679.6 -10035.45,-337.96 -4763.37,-2017.66 -9840.9,-2279.73 -9847.5,-2258.71l6.53 -13368.92c-0.01,0 5051.4,235.89 9814.77,2253.47 4763.44,2017.66 10050.37,340.67 10050.38,340.68l11.28 13371.44z"/>
  <path class="fil1 str1" d="M19924.39 10556.78c0,0 -5286.94,1676.99 -10050.38,-340.68 -4763.37,-2017.57 -9814.77,-2253.47 -9814.77,-2253.47l-34.14 -7223.49c6601.19,-981.61 13330.67,-981.61 19928.85,3.53l-29.56 9814.1z"/>
  <path class="fil2 str2" d="M10943.87 1541.4l7918.76 5.7c145.62,0 263.73,166.25 263.73,371.28l0 4854.53c0,205.14 -118.12,371.39 -263.73,371.39l-17703.76 0c-145.7,0 -263.73,-166.25 -263.73,-371.39l0 -4854.53c0,-205.03 118.04,-371.28 263.73,-371.28l7224.5 -13.57"/>
  <polygon class="fil3 str3" points="1487.23,2677.73 18487.49,2677.73 18487.49,6527.82 1487.23,6527.82 "/>
  <path class="fil2 str4" d="M14265.95 10266.37l-1585.85 -1944.28c-144.97,-182.5 -295.91,-360.01 -452.63,-532.42 307.19,-30.16 616.41,-35.12 924.44,-14.66l1530.72 1938.69c134.22,177.71 249.59,369.1 344.15,570.84 -253.09,30.8 -509.39,24.66 -760.83,-18.17z"/>
  <path class="fil2 str4" d="M15382.38 10263.98l-1584.37 -1942.47c-144.78,-182.19 -295.63,-359.62 -452.26,-531.85 306.93,-30.16 615.87,-35.12 923.6,-14.66l1529.26 1936.88c134.15,177.61 249.41,368.71 343.87,570.27 -252.92,30.8 -508.93,24.66 -760.1,-18.17z"/>
  <path class="fil2 str4" d="M16472.12 10237.96l-1592.61 -1952.75c-145.62,-183.1 -297.29,-361.47 -454.66,-534.69 308.57,-30.25 619.06,-35.22 928.36,-14.58l1537.43 1947.04c134.8,178.44 250.7,370.56 345.61,573.13 -254.19,30.98 -511.68,24.95 -764.13,-18.14z"/>
  <path class="fil2 str4" d="M17693.01 10243.37l-1596.1 -1956.96c-145.98,-183.57 -297.94,-362.19 -455.67,-535.78 309.22,-30.47 620.44,-35.33 930.49,-14.69l1540.63 1951.27c135.17,178.81 251.25,371.37 346.44,574.4 -254.84,30.98 -512.8,24.93 -765.79,-18.25z"/>
  <path class="fil2 str4" d="M18847.51 10225.92l-1603.82 -1966.3c-146.64,-184.5 -299.31,-364.04 -457.77,-538.35 310.71,-30.54 623.38,-35.59 934.88,-14.87l1548.06 1960.63c135.82,179.82 252.45,373.22 348.11,577.24 -256.04,31.17 -515.19,25.03 -769.45,-18.36z"/>
  <polygon id="work" class="fil4 str5" points="18969,10113.61 18473.74,9525.35 18834.85,9494.45 19350.74,10092.97 "/>
  <polygon class="fil5 str5" points="17781.23,10081.43 17285.95,9493.17 17647.07,9462.26 18162.96,10060.79 "/>
  <polygon id="crack" class="fil6 str5" points="16594.73,10102.04 16099.48,9513.81 16460.58,9482.9 16976.47,10081.43 "/>
  <polygon id="fire" class="fil7 str5" points="15480.39,10134.25 14985.14,9545.99 15346.24,9515.08 15862.16,10113.61 "/>
  <polygon id="aralm" class="fil7 str5" points="14366.08,10102.04 13870.8,9513.81 14231.93,9482.9 14747.82,10081.43 "/>
  <polyline class="fil2 str2" points="8380.71,1228.81 10941.12,1228.81 10941.12,1843.47 8380.71,1843.47 8380.71,1228.81 "/>
  <path class="fil8 str6" d="M8902.56 1359.47l137.01 0c27.14,0 47.4,1.1 60.69,3.41 13.39,2.29 25.21,6.96 35.76,14.19 10.55,7.15 19.26,16.68 26.23,28.61 7.07,11.93 10.55,25.32 10.55,40.16 0,16.07 -4.31,30.8 -12.94,44.22 -8.71,13.47 -20.44,23.48 -35.12,30.26 20.82,6.05 36.96,16.4 48.06,30.98 11.28,14.77 16.87,32 16.87,51.81 0,15.59 -3.59,30.72 -10.91,45.59 -7.26,14.66 -17.05,26.49 -29.61,35.3 -12.58,8.7 -27.97,14.22 -46.4,16.21 -11.56,1.2 -39.35,2.03 -83.54,2.39l-116.66 0 0 -343.14zm69.24 57.13l0 79.31 45.39 0c26.96,0 43.65,-0.43 50.25,-1.2 11.83,-1.35 21.18,-5.4 27.89,-12.26 6.79,-6.79 10.16,-15.71 10.16,-26.78 0,-10.66 -2.83,-19.26 -8.7,-25.97 -5.88,-6.6 -14.59,-10.52 -26.13,-11.91 -6.79,-0.82 -26.52,-1.2 -59.06,-1.2l-39.79 0zm0 136.45l0 91.7 64 0c25.04,0 40.81,-0.65 47.52,-2.11 10.27,-1.84 18.68,-6.41 25.11,-13.67 6.52,-7.26 9.72,-16.97 9.72,-29.16 0,-10.27 -2.57,-18.98 -7.51,-26.13 -4.96,-7.25 -12.19,-12.55 -21.55,-15.78 -9.43,-3.3 -30,-4.85 -61.34,-4.85l-55.95 0z"/>
  <path class="fil8 str6" d="M9234.15 1533.16c0,-35.04 5.23,-64.28 15.6,-88.04 7.88,-17.42 18.43,-33.19 32,-47.05 13.46,-13.85 28.23,-24.11 44.29,-30.79 21.37,-9.18 45.93,-13.68 73.82,-13.68 50.51,0 90.88,15.68 121.21,47.13 30.36,31.26 45.48,74.94 45.48,130.77 0,55.4 -15.04,98.67 -45.12,130.02 -30.08,31.18 -70.31,46.86 -120.58,46.86 -50.98,0 -91.5,-15.6 -121.57,-46.58 -30.1,-31.17 -45.13,-74.08 -45.13,-128.64zm71.25 -2.31c0,38.8 9.07,68.23 26.87,88.32 17.97,20.07 40.71,30.08 68.31,30.08 27.51,0 50.25,-9.9 67.95,-29.9 17.59,-19.91 26.49,-49.7 26.49,-89.49 0,-39.25 -8.6,-68.6 -25.76,-88.03 -17.23,-19.34 -40.16,-28.99 -68.68,-28.99 -28.51,0 -51.54,9.82 -69.07,29.45 -17.31,19.53 -26.12,48.95 -26.12,88.56z"/>
  <polygon class="fil8 str6" points="9622.39,1702.61 9622.39,1362.3 9691.54,1362.3 9691.54,1644.75 9863.58,1644.75 9863.58,1702.61 "/>
  <polygon class="fil8 str6" points="9910.79,1702.61 9979.93,1702.61 9979.93,1359.47 9910.79,1359.47 "/>
  <path class="fil8 str6" d="M10045.77 1359.47l126.45 0c28.52,0 50.25,2.11 65.19,6.5 20.09,5.98 37.32,16.5 51.62,31.66 14.4,15.12 25.32,33.63 32.83,55.55 7.43,21.94 11.2,48.97 11.2,81.15 0,28.15 -3.59,52.56 -10.55,73.02 -8.52,24.93 -20.82,45.1 -36.78,60.51 -11.91,11.84 -28.15,20.91 -48.58,27.43 -15.23,4.86 -35.58,7.33 -61.26,7.33l-130.12 0 0 -343.14zm69.14 58.04l0 227.24 51.73 0c19.26,0 33.19,-1.09 41.82,-3.3 11.18,-2.83 20.54,-7.51 27.94,-14.22 7.43,-6.68 13.41,-17.77 18.06,-33.09 4.69,-15.41 7.07,-36.41 7.07,-62.9 0,-26.52 -2.38,-46.86 -7.07,-61.08 -4.65,-14.22 -11.17,-25.32 -19.6,-33.19 -8.44,-7.98 -19.08,-13.31 -32.03,-16.14 -9.72,-2.21 -28.59,-3.3 -56.85,-3.3l-31.09 0z"/>
  <path class="fil2 str7" d="M6.86 741.97c0,-0.91 -0.75,-1.75 -1.74,-1.75 -0.94,0 -1.75,0.83 -1.75,1.75 0,0.91 0.81,1.74 1.75,1.74 0.98,0 1.74,-0.82 1.74,-1.74z"/>
  <path class="fil2 str7" d="M19978.97 741.97c0,-0.91 -0.83,-1.75 -1.75,-1.75 -0.9,0 -1.74,0.83 -1.74,1.75 0,0.91 0.83,1.74 1.74,1.74 0.91,0 1.75,-0.82 1.75,-1.74z"/>
  <path class="fil9 str0" d="M19925.11 11408.52l10.56 12519.69c14.94,2.63 -5272.01,1679.6 -10035.45,-337.96 -745.25,-315.68 -1498.18,-588.37 -2238.19,-823.73l-17.74 -12527.99c732.67,217.94 1502.88,495.14 2266.1,818.39 4536.17,1921.38 9546.85,492.35 10014.73,351.59z"/>
  <g id="b9">
   <path class="fil10 str8" d="M16535.68 19018.41l1274.25 233.84c129.94,23.84 224.29,137.19 224.29,269.42l0 148.56 -1515.42 181.27c-77.67,9.25 -155.51,-15.13 -214.03,-67.12 -58.51,-51.99 -91.97,-126.53 -91.97,-204.86l0 -291.69c0,-81.26 36.03,-158.37 98.39,-210.44 62.36,-52.02 144.6,-73.65 224.48,-58.98z"/>
   <path class="fil11" d="M16598.21 19560.74l72.99 -8.08c1.84,14.87 6.53,25.86 14.04,33.01 7.5,7.15 17.41,10.74 29.81,10.74 15.49,0 28.69,-7.15 39.61,-21.47 11,-14.3 17.97,-44 20.98,-89.21 -18.98,22.09 -42.73,33.09 -71.07,33.09 -30.98,0 -57.75,-12 -80.13,-35.84 -22.46,-23.94 -33.74,-55.02 -33.74,-93.34 0,-39.98 11.91,-72.18 35.67,-96.67 23.57,-24.38 53.83,-36.68 90.43,-36.68 39.97,0 72.7,15.52 98.27,46.39 25.6,30.91 38.42,81.72 38.42,152.43 0,72.05 -13.39,123.97 -40.06,155.88 -26.59,31.81 -61.34,47.78 -104.08,47.78 -30.82,0 -55.67,-8.17 -74.65,-24.59 -18.9,-16.4 -31.1,-40.88 -36.5,-73.43zm170.75 -164.98c0,-24.38 -5.59,-43.28 -16.79,-56.66 -11.18,-13.49 -24.2,-20.17 -38.79,-20.17 -13.94,0 -25.58,5.48 -34.75,16.5 -9.25,10.99 -13.86,29.07 -13.86,54.2 0,25.4 5.05,44.11 15.05,55.94 9.98,11.91 22.56,17.89 37.51,17.89 14.48,0 26.77,-5.7 36.68,-17.16 9.98,-11.46 14.95,-28.33 14.95,-50.53z"/>
  </g>
  <g id="b8">
   <path class="fil10 str8" d="M13931.97 18918.76l1221.61 0c151.13,0 273.63,122.58 273.63,273.89l0 616.12c0,151.23 -122.5,273.92 -273.63,273.92l-1221.61 0c-151.1,0 -273.6,-122.69 -273.6,-273.92l0 -616.12c0,-151.3 122.5,-273.89 273.6,-273.89z"/>
   <path class="fil11" d="M14473.1 19417.13c-19.54,-8.24 -33.74,-19.62 -42.55,-34.03 -8.81,-14.4 -13.21,-30.25 -13.21,-47.4 0,-29.32 10.19,-53.62 30.63,-72.81 20.54,-19.15 49.7,-28.77 87.39,-28.77 37.43,0 66.5,9.62 87.02,28.77 20.72,19.19 31.1,43.49 31.1,72.81 0,18.24 -4.76,34.49 -14.3,48.79 -9.46,14.22 -22.85,25.13 -39.9,32.65 21.73,8.71 38.34,21.55 49.7,38.42 11.38,16.79 17.05,36.23 17.05,58.22 0,36.42 -11.54,65.95 -34.75,88.69 -23.18,22.75 -53.91,34.11 -92.44,34.11 -35.76,0 -65.56,-9.36 -89.39,-28.15 -28.07,-22.27 -42.11,-52.71 -42.11,-91.42 0,-21.29 5.32,-40.81 15.88,-58.69 10.45,-17.78 27.14,-31.56 49.89,-41.18zm15.59 -76c0,15.02 4.22,26.77 12.74,35.12 8.53,8.42 19.7,12.66 33.92,12.66 14.33,0 25.79,-4.23 34.39,-12.77 8.52,-8.52 12.84,-20.25 12.84,-35.29 0,-14.22 -4.21,-25.51 -12.73,-34.03 -8.53,-8.53 -19.73,-12.74 -33.77,-12.74 -14.37,0 -25.94,4.31 -34.57,12.85 -8.52,8.6 -12.82,19.99 -12.82,34.2zm-6.99 168.61c0,20.83 5.33,37.04 15.96,48.69 10.66,11.64 23.86,17.44 39.79,17.44 15.59,0 28.51,-5.62 38.71,-16.8 10.19,-11.17 15.31,-27.31 15.31,-48.5 0,-18.43 -5.23,-33.29 -15.6,-44.47 -10.34,-11.18 -23.55,-16.79 -39.5,-16.79 -18.36,0 -32.11,6.41 -41.07,19.07 -9.1,12.74 -13.6,26.52 -13.6,41.35z"/>
  </g>
  <g id="b7">
   <path class="fil10 str8" d="M12644.8 19018.41l-1274.25 233.84c-129.94,23.84 -224.3,137.19 -224.3,269.42l0 148.56 1515.42 181.27c77.68,9.25 155.52,-15.13 214.04,-67.12 58.51,-51.99 91.97,-126.53 91.97,-204.86l0 -291.69c0,-81.26 -36.03,-158.37 -98.39,-210.44 -62.36,-52.02 -144.6,-73.65 -224.48,-58.98z"/>
   <path class="fil11" d="M12294.87 19322.4l0 -70.05 257.86 0 0 54.74c-21.26,21 -42.92,51.08 -64.94,90.33 -21.99,39.15 -38.78,80.87 -50.32,124.97 -11.57,44.19 -17.23,83.62 -17.05,118.37l-72.73 0c1.28,-54.46 12.48,-109.92 33.74,-166.52 21.18,-56.66 49.44,-107.19 84.92,-151.85l-171.49 0z"/>
  </g>
  <g id="b6">
   <path class="fil10 str8" d="M16535.68 17385.64l1274.25 233.84c129.94,23.83 224.29,137.17 224.29,269.4l0 148.47 -1515.42 181.38c-77.67,9.26 -155.51,-15.23 -214.03,-67.13 -58.51,-51.99 -91.97,-126.53 -91.97,-204.86l0 -291.69c0,-81.34 36.03,-158.36 98.39,-210.45 62.36,-51.99 144.6,-73.64 224.48,-58.95z"/>
   <path class="fil11" d="M16833.51 17778.84l-72.99 8.05c-1.75,-15.02 -6.42,-26.12 -13.94,-33.37 -7.51,-7.15 -17.34,-10.74 -29.35,-10.74 -15.78,0 -29.23,7.18 -40.34,21.55 -10.99,14.32 -17.89,44.11 -20.83,89.41 18.91,-22.2 42.19,-33.3 70.06,-33.3 31.56,0 58.51,12.04 80.89,36.06 22.46,23.94 33.74,54.93 33.74,92.87 0,40.37 -11.83,72.63 -35.48,97.03 -23.57,24.31 -53.93,36.5 -90.97,36.5 -39.62,0 -72.34,-15.41 -97.84,-46.32 -25.58,-30.87 -38.42,-81.51 -38.42,-151.93 0,-72.16 13.32,-124.17 39.98,-156.06 26.59,-31.92 61.27,-47.87 103.82,-47.87 29.89,0 54.63,8.44 74.19,25.13 19.6,16.76 32.07,41.07 37.48,72.99zm-170.91 164.69c0,24.49 5.59,43.46 16.87,56.74 11.29,13.39 24.12,20.09 38.6,20.09 14.04,0 25.58,-5.51 34.94,-16.4 9.36,-10.91 13.93,-28.91 13.93,-53.76 0,-25.58 -4.93,-44.37 -15.02,-56.3 -10,-11.91 -22.56,-17.89 -37.61,-17.89 -14.4,0 -26.67,5.7 -36.68,17.05 -10.09,11.38 -15.02,28.25 -15.02,50.45z"/>
  </g>
  <g id="b5">
   <path class="fil10 str8" d="M13931.97 17289.36l1221.61 0c151.13,0 273.63,122.58 273.63,273.89l0 616.12c0,151.21 -122.5,273.92 -273.63,273.92l-1221.61 0c-151.1,0 -273.6,-122.72 -273.6,-273.92l0 -616.12c0,-151.3 122.5,-273.89 273.6,-273.89z"/>
   <path class="fil11" d="M14409.54 17953.33l75.1 -7.69c2.13,16.95 8.52,30.44 19.07,40.34 10.56,10 22.67,14.95 36.5,14.95 15.67,0 29.08,-6.42 39.97,-19.16 10.92,-12.84 16.43,-32.18 16.43,-57.96 0,-24.12 -5.41,-42.27 -16.33,-54.38 -10.81,-12.08 -24.96,-18.14 -42.27,-18.14 -21.55,0 -40.99,9.62 -58.25,28.77l-61.16 -8.89 38.63 -204.94 199.43 0 0 70.6 -142.21 0 -11.83 66.94c16.87,-8.42 33.92,-12.63 51.52,-12.63 33.49,0 61.92,12.19 85.03,36.49 23.29,24.38 34.93,56.02 34.93,94.9 0,32.36 -9.36,61.35 -28.15,86.75 -25.68,34.75 -61.08,52.08 -106.57,52.08 -36.31,0 -65.92,-9.72 -88.85,-29.23 -22.82,-19.55 -36.6,-45.77 -40.99,-78.79z"/>
  </g>
  <g id="b4">
   <path class="fil10 str8" d="M12644.8 17385.64l-1274.25 233.84c-129.94,23.83 -224.3,137.17 -224.3,269.4l0 148.47 1515.42 181.38c77.68,9.26 155.52,-15.23 214.04,-67.13 58.51,-51.99 91.97,-126.53 91.97,-204.86l0 -291.69c0,-81.34 -36.03,-158.36 -98.39,-210.45 -62.36,-51.99 -144.6,-73.64 -224.48,-58.95z"/>
   <path class="fil11" d="M12480.03 18057.59l0 -79.23 -161.03 0 0 -66.11 170.75 -250.15 63.27 0 0 249.87 48.87 0 0 66.39 -48.87 0 0 79.23 -72.99 0zm0 -145.62l0 -134.62 -90.43 134.62 90.43 0z"/>
  </g>
  <g id="b3">
   <path class="fil10 str8" d="M16556.13 15770.36l1450.12 383.01 8.09 168.17c3.56,74.84 -23.68,147.93 -75.3,202.13 -51.62,54.2 -123.16,84.9 -197.96,84.9l-1254.73 0c-151.13,0 -273.63,-122.69 -273.63,-273.9l0 -299.5c0,-84.99 39.43,-165.13 106.65,-216.96 67.22,-51.89 154.71,-69.59 236.78,-47.86z"/>
   <path class="fil11" d="M16575.39 16332.56l72.88 -8.81c2.39,18.61 8.63,32.83 18.9,42.63 10.19,9.9 22.56,14.87 36.97,14.87 15.57,0 28.69,-5.95 39.33,-17.78 10.63,-11.85 15.96,-27.71 15.96,-47.78 0,-19 -5.04,-34.02 -15.31,-45.12 -10.19,-11.18 -22.66,-16.69 -37.22,-16.69 -9.65,0 -21.19,1.82 -34.67,5.59l8.34 -61.45c20.46,0.46 35.95,-3.92 46.69,-13.29 10.71,-9.43 16.14,-21.91 16.14,-37.51 0,-13.28 -3.95,-23.83 -11.85,-31.73 -7.88,-7.88 -18.43,-11.83 -31.34,-11.83 -12.93,0 -23.95,4.49 -33.02,13.49 -9.17,8.89 -14.76,22.01 -16.68,39.14l-69.51 -11.72c4.86,-23.84 12.11,-42.91 21.91,-57.13 9.73,-14.22 23.29,-25.4 40.71,-33.56 17.52,-8.16 37.07,-12.3 58.61,-12.3 37.12,0 66.83,11.83 89.21,35.48 18.36,19.37 27.6,41.18 27.6,65.58 0,34.57 -18.79,62.15 -56.58,82.71 22.56,4.86 40.44,15.68 54.01,32.55 13.49,16.79 20.27,37.15 20.27,60.98 0,34.57 -12.65,64 -37.87,88.4 -25.13,24.3 -56.58,36.49 -94.09,36.49 -35.67,0 -65.19,-10.26 -88.56,-30.72 -23.5,-20.54 -37.07,-47.31 -40.81,-80.5z"/>
  </g>
  <g id="b2">
   <path class="fil10 str8" d="M13885.39 15659.86l1221.61 0c151.13,0 273.63,122.61 273.63,273.9l0 616.14c0,151.21 -122.5,273.9 -273.63,273.9l-1221.61 0c-151.1,0 -273.53,-122.69 -273.53,-273.9l0 -616.14c0,-151.29 122.43,-273.9 273.53,-273.9z"/>
   <path class="fil11" d="M14663.08 16409.69l0 70.13 -264.35 0c2.94,-26.49 11.46,-51.62 25.87,-75.38 14.3,-23.73 42.55,-55.18 84.71,-94.43 34.03,-31.64 54.85,-53.18 62.55,-64.47 10.37,-15.59 15.59,-31.01 15.59,-46.22 0,-16.79 -4.5,-29.7 -13.57,-38.78 -9.07,-9.1 -21.55,-13.6 -37.5,-13.6 -15.68,0 -28.15,4.78 -37.51,14.22 -9.26,9.54 -14.66,25.32 -16.14,47.33l-75.1 -7.54c4.5,-41.54 18.53,-71.32 42.19,-89.49 23.55,-18.06 53.07,-27.14 88.48,-27.14 38.88,0 69.43,10.55 91.52,31.45 22.19,21 33.27,47.05 33.27,78.22 0,17.7 -3.2,34.57 -9.51,50.63 -6.34,16.04 -16.42,32.83 -30.17,50.33 -9.07,11.64 -25.58,28.44 -49.34,50.27 -23.84,21.81 -38.88,36.39 -45.2,43.54 -6.34,7.15 -11.57,14.14 -15.49,20.93l149.72 0z"/>
  </g>
  <g id="b1">
   <path class="fil10 str8" d="M12624.34 15770.36l-1450.12 383.01 -8.06 168.17c-3.59,74.84 23.65,147.93 75.28,202.13 51.62,54.2 123.16,84.9 197.96,84.9l1254.73 0c151.13,0 273.63,-122.69 273.63,-273.9l0 -299.5c0,-84.99 -39.43,-165.13 -106.65,-216.96 -67.22,-51.89 -154.69,-69.59 -236.78,-47.86z"/>
   <path class="fil11" d="M12431.89 16474.42l-75.38 0 0 -284.55c-27.6,25.87 -59.97,44.94 -97.4,57.24l0 -68.49c19.62,-6.42 41.1,-18.64 64.1,-36.6 23.1,-18.07 38.96,-39.07 47.51,-63.09l61.16 0 0 395.49z"/>
  </g>
  <g id="b0">
   <path class="fil10 str8" d="M13965.63 20887.81l1156.49 0c77.69,0 151.78,33.09 203.69,90.95 51.89,57.96 76.74,135.27 68.31,212.57l-65.37 600.89c-14.95,136.8 -128.93,241.35 -266.49,244.2l-1018.78 20.72c-140.94,2.94 -260.97,-101.9 -277.3,-242.1l-72.33 -621.71c-9,-77.56 15.59,-155.41 67.48,-213.74 51.91,-58.41 126.27,-91.78 204.31,-91.78z"/>
   <path class="fil11" d="M14594.15 21214.88c38.24,0 67.95,13.68 89.39,40.92 25.59,32.18 38.34,85.62 38.34,160.38 0,74.44 -12.84,128 -38.6,160.64 -21.29,26.88 -50.9,40.26 -89.13,40.26 -38.26,0 -69.07,-14.66 -92.53,-44.19 -23.48,-29.46 -35.22,-81.98 -35.22,-157.55 0,-74.19 12.94,-127.55 38.71,-160.12 21.29,-26.85 50.9,-40.34 89.05,-40.34zm0 62.65c-9.1,0 -17.26,2.93 -24.41,8.7 -7.15,5.88 -12.74,16.33 -16.69,31.35 -5.04,19.54 -7.8,52.37 -7.8,98.59 0,46.22 2.39,77.92 7.07,95.16 4.68,17.34 10.45,28.8 17.52,34.57 7.15,5.7 15.2,8.63 24.3,8.63 9.15,0 17.31,-2.93 24.46,-8.81 7.18,-5.78 12.66,-16.22 16.72,-31.27 5.04,-19.34 7.69,-52.06 7.69,-98.28 0,-46.22 -2.39,-77.95 -6.88,-95.29 -4.69,-17.24 -10.53,-28.77 -17.6,-34.66 -7.15,-5.77 -15.23,-8.7 -24.38,-8.7z"/>
  </g>
  <g id="right">
   <path class="fil10 str8" d="M11523.32 13369.12l1457.73 0c87.96,0 170.56,42.28 221.93,113.79 51.44,71.46 65.45,163.24 37.59,246.79l-137.63 413.08c-24.12,72.37 -77.41,131.42 -146.81,162.87 -69.51,31.46 -148.84,32.47 -219.08,2.83l-1484.61 -626.93c-9.85,-81.21 11.29,-157.94 65.77,-219.8 51.99,-58.88 126.63,-92.64 205.11,-92.64z"/>
   <polygon class="fil12 str7" points="12883.68,14028.72 11833.8,13688.16 12910.35,13636.54 "/>
  </g>
  <g id="left">
   <path class="fil13 str8" d="M17793.52 13369.12l-1457.74 0c-87.96,0 -170.48,42.28 -221.93,113.79 -51.44,71.46 -65.37,163.24 -37.59,246.79l137.74 413.08c24.12,72.37 77.3,131.42 146.71,162.87 69.51,31.46 148.84,32.47 219.08,2.83l1485.23 -631.43c9.73,-77.95 -14.48,-156.35 -66.38,-215.3 -51.89,-58.88 -126.64,-92.64 -205.11,-92.64z"/>
   <polygon class="fil12 str7" points="16385.85,14028.72 17435.7,13688.16 16359.15,13636.54 "/>
  </g>
  <g id="vvod">
   <path class="fil10 str8" d="M17801.76 20834.06l-1605.27 0c-147.65,0 -268.67,117.29 -273.45,265.03l-106.83 1203.81c-3.38,61.45 21.73,121.05 68.13,161.39 46.39,40.34 108.86,56.95 169.19,45.02l1809.4 -495.9c123.7,-28.88 211.38,-139.19 211.55,-266.38l0.83 -638.69c0.08,-72.72 -28.61,-142.49 -79.98,-193.85 -51.34,-51.52 -120.94,-80.42 -193.57,-80.42z"/>
   <g>
    <path class="fil14" d="M17509.74 21564.64l145.57 -333.43 81.18 35.45 -145.57 333.43 -40.8 26.57 -40.38 -62.02zm81.18 35.45l-11.66 26.71 -29.15 -0.14 40.8 -26.57zm-973.15 -66.43l932.77 4.41 -0.43 88.59 -932.77 -4.41 0.43 -88.59zm465.98 -202.7l-2.36 498.39 -928.84 -253.59 931.2 -244.8z"/>
   </g>
  </g>
  <g id="cansel">
   <path class="fil10 str8" d="M11317.65 20834.06l1605.27 0c147.65,0 268.59,117.29 273.45,265.03l106.81 1203.81c3.4,61.45 -21.73,121.05 -68.13,161.39 -46.4,40.34 -108.83,56.95 -169.16,45.02l-1809.43 -495.9c-123.67,-28.88 -211.35,-139.19 -211.54,-266.38l-0.83 -638.69c-0.07,-72.72 28.62,-142.49 79.96,-193.85 51.36,-51.52 120.97,-80.42 193.6,-80.42z"/>
   <path class="fil15 str9" d="M11783.56 21178.66l673.44 724.44m-660.51 -38.43l647.56 -647.59"/>
  </g>
  <g id="home">
   <path class="fil10 str8" d="M8778.86 20116.98l1194.11 318.47c112.78,30.08 194.12,128.57 202.47,245.2l35.22 492.88c6.33,88.69 -30.8,174.97 -99.58,231.37 -68.78,56.38 -160.56,75.82 -246.21,52.16l-1229.3 -340.09c-118.58,-32.83 -200.75,-140.86 -200.75,-264.02l0 -471.34c0,-85.1 39.54,-165.32 106.94,-217.15 67.4,-51.8 154.97,-69.4 237.11,-47.48z"/>
   <path class="fil15 str10" d="M9208.14 20801.37l124.03 34.32 -56.62 204.65 -124.03 -34.31 56.62 -204.66zm-294.35 -214.95l818.58 226.46 -344.1 -348.88 -474.48 122.42zm111.6 30.87l595.36 164.7 -90.93 328.69 -595.36 -164.71 90.93 -328.68z"/>
  </g>
  <g id="stop">
   <path class="fil10 str8" d="M8814.43 18208.44l1194.11 318.47c112.78,30.1 194.12,128.56 202.47,245.12l35.21 492.88c6.32,88.77 -30.8,175.04 -99.58,231.44 -68.78,56.41 -160.56,75.85 -246.21,52.17l-1229.33 -340.1c-118.56,-32.82 -200.72,-140.86 -200.72,-264.01l0 -471.31c0,-85.11 39.5,-165.35 106.91,-217.15 67.4,-51.91 154.97,-69.43 237.13,-47.51z"/>
   <path class="fil14" d="M8977.35 18808.88l54.02 34.47c-18.27,30.74 -40.2,51.22 -65.76,61.56 -25.54,10.26 -54.47,10.96 -86.88,1.99 -40.13,-11.1 -69.3,-33.93 -87.58,-68.5 -18.21,-34.54 -20.78,-75.59 -7.62,-123.17 13.9,-50.26 37.71,-85.73 71.35,-106.39 33.64,-20.66 71.63,-25.13 113.95,-13.42 36.97,10.22 63.94,29.5 80.95,57.73 10.21,16.74 15.34,38.13 15.51,64.28l-64.26 -2.34c0.73,-16.59 -3.3,-31.02 -12.11,-43.22 -8.88,-12.23 -21.41,-20.53 -37.57,-24.99 -22.42,-6.2 -42.84,-3.23 -61.22,9.01 -18.42,12.16 -32.57,36.23 -42.52,72.22 -10.54,38.09 -11.17,67.2 -1.94,87.16 9.28,20.05 24.89,33.07 46.9,39.16 16.23,4.49 31.64,3.23 46.16,-3.87 14.53,-7.11 27.44,-20.94 38.62,-41.68zm138.02 158.04l69.41 -250.91 -89.4 -24.73 14.12 -51.03 239.52 66.27 -14.11 51.03 -88.99 -24.62 -69.41 250.92 -61.15 -16.92zm207.83 -103.06c8.52,-30.79 20.31,-55.37 35.31,-73.76 11.07,-13.51 24.33,-24.74 39.58,-33.69 15.26,-8.95 30.78,-14.41 46.55,-16.48 21.03,-2.73 43.87,-0.74 68.46,6.07 44.56,12.33 76.29,36.02 95.43,71.05 19.05,35.07 21.77,77.22 8.13,126.48 -13.51,48.85 -37.38,83.41 -71.49,103.63 -34.13,20.3 -73.44,24.25 -117.78,11.98 -44.92,-12.42 -76.9,-36.03 -95.79,-70.84 -18.92,-34.75 -21.74,-76.22 -8.4,-124.44zm63.4 15.34c-9.47,34.23 -8.7,62.36 2.21,84.45 10.93,22.01 28.58,36.43 52.9,43.15 24.4,6.75 46.78,3.48 67.29,-9.68 20.46,-13.25 35.54,-37.38 45.24,-72.45 9.59,-34.65 9.15,-62.62 -1.39,-83.84 -10.46,-21.28 -28.29,-35.37 -53.52,-42.35 -25.16,-6.95 -47.86,-3.93 -68.01,9.03 -20.18,13.03 -35.1,36.9 -44.73,71.69zm320.38 -73.67l239.95 66.39 -83.53 301.93 -61.15 -16.91 69.41 -250.91 -117.65 -32.55 -69.41 250.91 -61.15 -16.92 83.53 -301.94z"/>
  </g>
  <g id="start">
   <path class="fil10 str8" d="M8817.92 16342.47l1194.11 318.47c112.78,30.08 194.12,128.56 202.47,245.1l35.21 492.99c6.32,88.66 -30.79,174.96 -99.5,231.34 -68.76,56.41 -160.64,75.85 -246.29,52.2l-1229.33 -340.13c-118.56,-32.83 -200.72,-140.86 -200.72,-263.99l0 -471.34c0,-85.1 39.54,-165.34 106.91,-217.14 67.4,-51.91 154.97,-69.4 237.14,-47.49z"/>
   <path class="fil14" d="M8859.2 16710.84l239.96 66.39 -83.53 301.93 -61.15 -16.91 69.42 -250.91 -117.66 -32.55 -69.41 250.91 -61.15 -16.92 83.53 -301.94zm271.29 75.05l68.67 18.99 27.05 175.76 103.4 -139.67 63.61 17.59 -165.61 201.23c-17.98,21.81 -34.53,37.59 -49.66,47.4 -15.12,9.82 -31.74,12.19 -50.02,7.13 -17.99,-4.98 -31.72,-10.06 -41.19,-15.18l12.56 -45.4c8.49,2.95 16.21,5.4 23.18,7.32 14.05,3.89 24.89,4.09 32.42,0.66 7.48,-3.53 16.48,-13.08 26.75,-28.62l-51.16 -247.19zm433.7 325.18l54.02 34.47c-18.27,30.74 -40.2,51.22 -65.76,61.55 -25.54,10.27 -54.47,10.96 -86.88,2 -40.13,-11.11 -69.3,-33.93 -87.58,-68.5 -18.21,-34.55 -20.78,-75.59 -7.62,-123.17 13.9,-50.26 37.71,-85.73 71.35,-106.39 33.64,-20.66 71.63,-25.13 113.95,-13.42 36.97,10.22 63.94,29.5 80.95,57.73 10.21,16.73 15.34,38.13 15.51,64.28l-64.26 -2.34c0.73,-16.59 -3.3,-31.03 -12.11,-43.22 -8.89,-12.23 -21.41,-20.53 -37.57,-24.99 -22.42,-6.21 -42.84,-3.23 -61.22,9.01 -18.42,12.15 -32.57,36.23 -42.52,72.22 -10.54,38.09 -11.17,67.2 -1.94,87.16 9.28,20.05 24.89,33.07 46.9,39.16 16.23,4.48 31.64,3.23 46.16,-3.87 14.52,-7.11 27.43,-20.94 38.62,-41.68zm164.97 -159.56l61.15 16.92 -35.58 128.62c13.94,2.34 24.11,1.44 30.46,-2.93 6.34,-4.29 18.13,-17.9 35.21,-40.87 21.63,-29.2 39.99,-46.06 54.91,-50.48 14.85,-4.46 36.27,-2.84 64.38,4.93 1.42,0.39 4.38,1.14 8.91,2.25l-12.48 45.12 -8.58 -2.6c-12.52,-3.46 -22.09,-4.44 -28.7,-2.94 -6.62,1.5 -12.55,4.92 -17.9,10.25 -5.33,5.33 -14.2,16.89 -26.6,34.64 -6.62,9.43 -13.03,17.04 -19.34,22.87 -6.24,5.85 -15.72,10.33 -28.39,13.48 12.52,7.55 21.53,18.44 27.16,32.56 5.63,14.11 10.77,33.26 15.42,57.46l18.25 94.03 -71.69 -19.84 -14.7 -87.75c-0.24,-1.28 -0.85,-3.72 -1.74,-7.36 -0.41,-1.25 -1.62,-6.72 -3.67,-16.3 -3.61,-17.04 -7.36,-28.07 -11.26,-33.15 -3.95,-5.1 -10.95,-9.08 -21.1,-12.05l-36.51 132 -61.15 -16.92 83.53 -301.94z"/>
  </g>
  <g id="reset">
   <path class="fil10 str8" d="M8817.92 14405.13l1194.11 318.47c112.78,30.07 194.12,128.56 202.47,245.11l35.21 492.89c6.32,88.77 -30.79,175.04 -99.5,231.44 -68.76,56.41 -160.64,75.82 -246.29,52.17l-1229.33 -340.1c-118.56,-32.83 -200.72,-140.86 -200.72,-264.02l0 -471.31c0,-85.1 39.54,-165.35 106.91,-217.14 67.4,-51.91 154.97,-69.43 237.14,-47.52z"/>
   <path class="fil14" d="M8815.96 14967.02l54.02 34.47c-18.27,30.73 -40.2,51.22 -65.76,61.55 -25.54,10.26 -54.47,10.96 -86.88,1.99 -40.13,-11.1 -69.3,-33.92 -87.58,-68.49 -18.21,-34.55 -20.78,-75.59 -7.62,-123.17 13.9,-50.26 37.71,-85.73 71.35,-106.39 33.63,-20.67 71.63,-25.13 113.95,-13.43 36.97,10.23 63.94,29.5 80.95,57.73 10.21,16.74 15.34,38.14 15.51,64.29l-64.26 -2.35c0.73,-16.59 -3.3,-31.02 -12.11,-43.22 -8.89,-12.22 -21.41,-20.52 -37.57,-24.99 -22.42,-6.2 -42.84,-3.22 -61.22,9.02 -18.42,12.15 -32.57,36.23 -42.52,72.22 -10.54,38.09 -11.17,67.2 -1.94,87.16 9.28,20.05 24.89,33.06 46.9,39.15 16.23,4.49 31.64,3.24 46.16,-3.86 14.53,-7.11 27.43,-20.94 38.62,-41.68zm165.4 -159.45l225.61 62.41 -14.11 51.04 -164.47 -45.5 -19.37 70 81.46 22.54c22.42,6.2 40.36,14.11 53.6,23.68 13.32,9.59 23.17,23.21 29.54,40.93 6.4,17.66 6.86,36.48 1.36,56.37 -5.63,20.38 -15.75,36.43 -30.39,48.03 -14.55,11.56 -29.32,18.22 -44.37,19.82 -14.98,1.59 -34.98,-1.05 -59.92,-7.96l-142.46 -39.41 83.53 -301.94zm-8.27 267.84l59.25 16.39c18.91,5.23 32.51,8.01 40.68,8.3 8.17,0.29 16.06,-1.99 23.57,-6.95 7.49,-4.9 12.51,-12.13 15.13,-21.62 3.84,-13.85 1.62,-25.28 -6.54,-34.35 -8.25,-9.01 -24.32,-16.87 -48.35,-23.51l-61.92 -17.13 -21.82 78.86zm226.6 117.61l83.53 -301.94 97.77 27.05c37.04,10.25 60.74,18.39 71.15,24.53 16.03,9.35 27.77,23.19 35.25,41.61 7.46,18.4 7.88,39.63 1.23,63.67 -5.14,18.55 -12.81,33.15 -22.99,43.95 -10.25,10.78 -21.49,18.35 -33.82,22.72 -12.31,4.31 -24.19,6.17 -35.51,5.54 -15.34,-1.14 -36.77,-5.48 -64.32,-13.1l-39.64 -10.97 -31.5 113.87 -61.15 -16.92zm130.57 -233.99l-23.8 86.03 33.24 9.2c23.96,6.63 40.37,9.43 49.33,8.5 8.96,-0.92 16.65,-4.09 23.1,-9.65 6.43,-5.48 10.91,-12.64 13.39,-21.63 3.06,-11.04 2.33,-21 -2.08,-29.93 -4.48,-8.97 -11.32,-15.7 -20.73,-20.27 -6.87,-3.33 -21.22,-8.06 -43.15,-14.13l-29.31 -8.11zm173.77 157.63c8.52,-30.79 20.31,-55.37 35.31,-73.76 11.07,-13.51 24.33,-24.74 39.58,-33.69 15.26,-8.95 30.78,-14.41 46.55,-16.48 21.03,-2.73 43.87,-0.74 68.46,6.07 44.56,12.33 76.29,36.01 95.43,71.05 19.05,35.07 21.77,77.22 8.14,126.48 -13.52,48.85 -37.38,83.41 -71.49,103.63 -34.14,20.3 -73.44,24.25 -117.79,11.98 -44.92,-12.42 -76.9,-36.03 -95.79,-70.84 -18.91,-34.75 -21.73,-76.22 -8.4,-124.44zm63.4 15.34c-9.47,34.23 -8.71,62.36 2.21,84.45 10.93,22.01 28.58,36.43 52.9,43.15 24.4,6.75 46.78,3.48 67.3,-9.68 20.46,-13.25 35.53,-37.38 45.23,-72.46 9.59,-34.65 9.15,-62.61 -1.39,-83.83 -10.46,-21.28 -28.29,-35.37 -53.52,-42.35 -25.16,-6.95 -47.86,-3.93 -68.01,9.03 -20.18,13.03 -35.1,36.9 -44.72,71.69zm459.94 170.14l54.02 34.46c-18.27,30.74 -40.2,51.23 -65.75,61.56 -25.55,10.26 -54.48,10.96 -86.89,1.99 -40.12,-11.1 -69.3,-33.92 -87.58,-68.49 -18.21,-34.55 -20.78,-75.59 -7.62,-123.17 13.9,-50.26 37.71,-85.73 71.35,-106.39 33.63,-20.67 71.63,-25.13 113.95,-13.43 36.97,10.23 63.94,29.5 80.95,57.73 10.21,16.74 15.34,38.14 15.51,64.29l-64.26 -2.35c0.73,-16.59 -3.3,-31.02 -12.11,-43.22 -8.89,-12.22 -21.41,-20.52 -37.57,-24.99 -22.42,-6.2 -42.84,-3.22 -61.22,9.02 -18.42,12.15 -32.57,36.23 -42.52,72.22 -10.54,38.09 -11.17,67.2 -1.94,87.16 9.28,20.05 24.89,33.06 46.9,39.15 16.23,4.49 31.64,3.24 46.16,-3.86 14.53,-7.11 27.44,-20.94 38.62,-41.68z"/>
  </g>
  <g id="mute">
   <path class="fil13 str8" d="M8817.92 12140.17l1194.11 318.47c112.78,30.08 194.12,128.56 202.47,245.19l35.21 492.89c6.32,88.77 -30.79,175.06 -99.5,231.36 -68.76,56.38 -160.64,75.82 -246.29,52.17l-1229.33 -340.1c-118.56,-32.83 -200.72,-140.86 -200.72,-264.01l0 -471.34c0,-85 39.54,-165.32 106.91,-217.13 67.4,-51.83 154.97,-69.43 237.14,-47.52z"/>
   <path class="fil15 str11" d="M9521.67 12577.84c10.75,33.7 102.33,24.05 106.89,199.3 -14.37,69.34 -32.5,122.54 -52.81,191.21 -37.27,183.14 104.58,213.3 -112.4,184.77l-84.78 -15.75c-41.17,128.84 -196.17,87.38 -167.41,-51.37 -14.47,-18.47 -142.91,-53.87 -172.88,-103.15 -3.42,-22.59 13.39,-34.85 30.93,-46.9 55.44,-61.69 86,-186.63 115.14,-269.66 75.38,-158.36 176.93,-104.12 205.38,-127.46 53.54,-156.73 173.68,-102.15 131.94,39.01z"/>
   <line class="fil15 str12" x1="9769.27" y1="12578.52" x2="8955" y2= "13027.98" />
  </g>
  <g id="menu">
   <path class="fil10 str8" d="M14117.22 13361.16l977.69 -23.57c127.55,-3.12 240.34,82.52 271.79,206.41l148.09 583.76c20.74,81.88 2.57,168.91 -49.23,235.58 -51.81,66.75 -131.5,105.72 -215.96,105.72l-1255.09 0c-83.33,0 -162.19,-38.05 -214.11,-103.35 -51.91,-65.37 -71.24,-150.84 -52.45,-232.17l129.29 -560.19c28.07,-121.88 135.09,-209.17 259.99,-212.18z"/>
   <rect class="fil16 str13" x="14073.9" y="13871.16" width="691.69" height="163.12"/>
   <rect class="fil15 str14" x="14073.9" y="13577.56" width="691.69" height="163.12"/>
   <path class="fil2 str14" d="M15170.19 13739.67l-175.1 0 0 77.46 -175.08 -154.95 175.08 -154.95 0 77.47 175.1 0 0 154.97zm-87.55 0m-87.55 38.73m-87.55 -38.75m0 -154.95m87.55 -38.74m87.55 38.74m87.55 77.48"/>
   <rect class="fil16 str13" x="14073.9" y="14136.21" width="691.69" height="163.12"/>
  </g>
  <path class="fil2 str4" d="M11903.24 10306.56l-1592.61 -1952.75c-145.62,-183.1 -297.29,-361.47 -454.66,-534.69 308.57,-30.25 619.06,-35.22 928.36,-14.58l1537.43 1947.04c134.8,178.44 250.7,370.56 345.61,573.13 -254.19,30.98 -511.68,24.95 -764.13,-18.14z"/>
  <path class="fil2 str4" d="M13124.13 10311.96l-1596.1 -1956.96c-145.98,-183.57 -297.94,-362.19 -455.67,-535.78 309.22,-30.47 620.44,-35.33 930.49,-14.69l1540.63 1951.27c135.17,178.81 251.25,371.37 346.44,574.4 -254.84,30.98 -512.8,24.93 -765.79,-18.25z"/>
  <polygon class="fil7 str5" points="13212.34,10150.03 12717.07,9561.77 13078.19,9530.86 13594.08,10129.39 "/>
  <polygon id="crack_0" class="fil7 str5" points="12025.85,10170.63 11530.6,9582.41 11891.7,9551.5 12407.59,10150.03 "/>
  <polygon class="fil8" points="10542.27,7890.56 10665.13,8040.13 10475,8196.36 10454.16,8171.06 10621.91,8033.29 10540.47,7934.17 10372.8,8071.99 10352.08,8046.8 "/>
  <path id="_1" class="fil8" d="M10594.44 8154.34c31.54,-25.96 63.24,-37.82 94.99,-35.52 31.8,2.29 58.67,16.81 80.72,43.66 14.45,17.54 23.23,36.82 26.45,57.78 3.16,21.01 0.31,41.36 -8.61,61.05 -8.99,19.75 -22.96,37.45 -41.98,53.04 -19.26,15.88 -39.73,26.16 -61.31,30.87 -21.64,4.71 -42.22,3.13 -61.73,-4.7 -19.57,-7.84 -36.11,-19.99 -49.69,-36.51 -14.73,-17.93 -23.51,-37.44 -26.44,-58.69 -2.95,-21.18 0.08,-41.54 9.06,-61.11 8.98,-19.57 21.82,-36.17 38.55,-49.87zm20.89 26.22c-22.91,18.83 -35.89,39.84 -38.97,63 -3.07,23.16 3.02,44.05 18.33,62.62 15.54,18.97 35,29.04 58.39,30.33 23.38,1.29 47.29,-8.07 71.74,-28.22 15.49,-12.72 26.84,-26.39 34.13,-41.14 7.22,-14.7 9.92,-29.71 7.97,-45.01 -1.94,-15.29 -8.01,-29.19 -18.31,-41.76 -14.67,-17.82 -33.39,-28.13 -56.15,-30.91 -22.81,-2.78 -48.5,7.56 -77.13,31.1z"/>
  <path id="_2" class="fil8" d="M10957.04 8398.25l-83.3 68.42c10.18,12.34 19.43,18.96 27.75,19.9 8.36,0.89 23.88,-1.98 46.55,-8.58 16.77,-4.93 29.14,-7.84 37.1,-8.66 7.96,-0.78 16.27,0.51 24.94,3.97 8.72,3.41 16.13,8.89 22.29,16.42 6.79,8.23 10.87,13.37 12.31,15.55l-21.77 17.9c-0.63,-0.81 -1.96,-2.45 -3.92,-5.03 -2.19,-2.86 -3.51,-4.57 -4.03,-5.2 -6.62,-8.05 -13.45,-12.38 -20.55,-13.1 -7.16,-0.78 -19.2,1.51 -36.07,6.83 -18.31,5.79 -31.6,8.66 -39.91,8.68 -8.31,0.03 -17.31,-2.46 -26.9,-7.47 6.75,15.33 5.34,36.64 -4.24,64.12l-31.13 91.16 -25.55 -31.13 25.51 -74.19c6.7,-19.67 10.48,-34.75 11.3,-45.18 0.89,-10.38 -2.99,-20.85 -11.57,-31.31l-89.02 73.14 -21.17 -25.82 88.96 -73.14c-6.79,-8.29 -15.01,-13.82 -24.58,-16.59 -9.59,-2.77 -25.12,-2.43 -46.54,0.91l-3.83 0.58 -77.77 10.65 -25.67 -31.25 95.47 -12.82c29.09,-3.94 50.36,-1.11 63.87,8.36 -2.84,-9.11 -3.74,-17.69 -2.67,-25.83 1.05,-8.09 6.62,-21.29 16.7,-39.54 9.11,-16.65 13.77,-28.3 14.03,-34.99 0.27,-6.77 -2.75,-13.98 -9.07,-21.69l-8.58 -9.89 21.77 -17.9c0.97,0.8 5.01,5.54 12.2,14.28 6.85,8.34 11.06,16.92 12.64,25.8 1.58,8.93 1.2,17.24 -1.06,24.93 -2.32,7.69 -7.55,19.39 -15.69,35.24 -11.1,21.24 -16.89,35.91 -17.5,44 -0.6,8.13 4.15,18.44 14.21,31.06l83.24 -68.42 21.24 25.82z"/>
  <path id="_3" class="fil8" d="M10855.78 8664.49l250.22 -83.16 22.26 27.07 -126.26 234.06 -23.53 -28.63 39.34 -69.52 -65.32 -79.54 -74.73 26.45 -21.99 -26.74zm123.21 -9.27l52.95 64.45 36.38 -63.09c10.99,-19.18 20.45,-34.51 28.31,-45.88 -14.18,7.61 -29.12,14.14 -44.73,19.58l-72.92 24.95z"/>
  <path id="_4" class="fil8" d="M11017.92 8863.1l190.14 -156.24 58.93 71.7c10.41,12.63 17.73,22.8 21.99,30.47 6.11,10.58 9.53,20.88 10.37,30.73 0.83,9.91 -1.13,20.07 -5.86,30.33 -4.65,10.32 -11.73,19.35 -21.16,27.12 -16.17,13.29 -34.08,19.37 -53.74,18.29 -19.65,-1.13 -40.56,-15.1 -62.66,-42.01l-40.05 -48.78 -77.3 63.53 -20.67 -25.14zm120.42 -56.8l40.4 49.19c13.35,16.23 25.87,25.29 37.51,27.14 11.69,1.86 23.02,-1.67 33.99,-10.71 7.95,-6.56 13.14,-14.15 15.45,-22.8 2.37,-8.72 1.77,-17.08 -1.82,-25.15 -2.36,-5.15 -8.23,-13.43 -17.61,-24.86l-39.95 -48.62 -67.98 55.82z"/>
  <polygon id="_5" class="fil2 str15" points="10542.27,7890.56 10665.13,8040.13 10475,8196.36 10454.16,8171.06 10621.91,8033.29 10540.47,7934.17 10372.8,8071.99 10352.08,8046.8 "/>
  <path id="_6" class="fil2 str15" d="M10594.44 8154.34c31.54,-25.96 63.24,-37.82 94.99,-35.52 31.8,2.29 58.67,16.81 80.72,43.66 14.45,17.54 23.23,36.82 26.45,57.78 3.16,21.01 0.31,41.36 -8.61,61.05 -8.99,19.75 -22.96,37.45 -41.98,53.04 -19.26,15.88 -39.73,26.16 -61.31,30.87 -21.64,4.71 -42.22,3.13 -61.73,-4.7 -19.57,-7.84 -36.11,-19.99 -49.69,-36.51 -14.73,-17.93 -23.51,-37.44 -26.44,-58.69 -2.95,-21.18 0.08,-41.54 9.06,-61.11 8.98,-19.57 21.82,-36.17 38.55,-49.87zm20.89 26.22c-22.91,18.83 -35.89,39.84 -38.97,63 -3.07,23.16 3.02,44.05 18.33,62.62 15.54,18.97 35,29.04 58.39,30.33 23.38,1.29 47.29,-8.07 71.74,-28.22 15.49,-12.72 26.84,-26.39 34.13,-41.14 7.22,-14.7 9.92,-29.71 7.97,-45.01 -1.94,-15.29 -8.01,-29.19 -18.31,-41.76 -14.67,-17.82 -33.39,-28.13 -56.15,-30.91 -22.81,-2.78 -48.5,7.56 -77.13,31.1z"/>
  <path id="_7" class="fil2 str15" d="M10957.04 8398.25l-83.3 68.42c10.18,12.34 19.43,18.96 27.75,19.9 8.36,0.89 23.88,-1.98 46.55,-8.58 16.77,-4.93 29.14,-7.84 37.1,-8.66 7.96,-0.78 16.27,0.51 24.94,3.97 8.72,3.41 16.13,8.89 22.29,16.42 6.79,8.23 10.87,13.37 12.31,15.55l-21.77 17.9c-0.63,-0.81 -1.96,-2.45 -3.92,-5.03 -2.19,-2.86 -3.51,-4.57 -4.03,-5.2 -6.62,-8.05 -13.45,-12.38 -20.55,-13.1 -7.16,-0.78 -19.2,1.51 -36.07,6.83 -18.31,5.79 -31.6,8.66 -39.91,8.68 -8.31,0.03 -17.31,-2.46 -26.9,-7.47 6.75,15.33 5.34,36.64 -4.24,64.12l-31.13 91.16 -25.55 -31.13 25.51 -74.19c6.7,-19.67 10.48,-34.75 11.3,-45.18 0.89,-10.38 -2.99,-20.85 -11.57,-31.31l-89.02 73.14 -21.17 -25.82 88.96 -73.14c-6.79,-8.29 -15.01,-13.82 -24.58,-16.59 -9.59,-2.77 -25.12,-2.43 -46.54,0.91l-3.83 0.58 -77.77 10.65 -25.67 -31.25 95.47 -12.82c29.09,-3.94 50.36,-1.11 63.87,8.36 -2.84,-9.11 -3.74,-17.69 -2.67,-25.83 1.05,-8.09 6.62,-21.29 16.7,-39.54 9.11,-16.65 13.77,-28.3 14.03,-34.99 0.27,-6.77 -2.75,-13.98 -9.07,-21.69l-8.58 -9.89 21.77 -17.9c0.97,0.8 5.01,5.54 12.2,14.28 6.85,8.34 11.06,16.92 12.64,25.8 1.58,8.93 1.2,17.24 -1.06,24.93 -2.32,7.69 -7.55,19.39 -15.69,35.24 -11.1,21.24 -16.89,35.91 -17.5,44 -0.6,8.13 4.15,18.44 14.21,31.06l83.24 -68.42 21.24 25.82z"/>
  <path id="_8" class="fil2 str15" d="M10855.78 8664.49l250.22 -83.16 22.26 27.07 -126.26 234.06 -23.53 -28.63 39.34 -69.52 -65.32 -79.54 -74.73 26.45 -21.99 -26.74zm123.21 -9.27l52.95 64.45 36.38 -63.09c10.99,-19.18 20.45,-34.51 28.31,-45.88 -14.18,7.61 -29.12,14.14 -44.73,19.58l-72.92 24.95z"/>
  <path id="_9" class="fil2 str15" d="M11017.92 8863.1l190.14 -156.24 58.93 71.7c10.41,12.63 17.73,22.8 21.99,30.47 6.11,10.58 9.53,20.88 10.37,30.73 0.83,9.91 -1.13,20.07 -5.86,30.33 -4.65,10.32 -11.73,19.35 -21.16,27.12 -16.17,13.29 -34.08,19.37 -53.74,18.29 -19.65,-1.13 -40.56,-15.1 -62.66,-42.01l-40.05 -48.78 -77.3 63.53 -20.67 -25.14zm120.42 -56.8l40.4 49.19c13.35,16.23 25.87,25.29 37.51,27.14 11.69,1.86 23.02,-1.67 33.99,-10.71 7.95,-6.56 13.14,-14.15 15.45,-22.8 2.37,-8.72 1.77,-17.08 -1.82,-25.15 -2.36,-5.15 -8.23,-13.43 -17.61,-24.86l-39.95 -48.62 -67.98 55.82z"/>
  <polygon class="fil8" points="11756.98,7890.56 11879.83,8040.13 11689.7,8196.36 11668.86,8171.06 11836.6,8033.29 11755.17,7934.17 11587.49,8071.99 11566.77,8046.8 "/>
  <path id="_1_1" class="fil8" d="M11897.17 8062.64l20.88 25.43 -65.55 157.69 161.02 -41.49 20.61 25.02 -206.5 50.19c-25.82,6.28 -43.91,8.92 -54.35,7.92 -10.37,-1.05 -19.96,-6.86 -28.71,-17.48 -5.29,-6.52 -10.31,-15.72 -15.05,-27.62l21.55 -17.66c1.63,9.9 5.56,18.66 11.72,26.2 5.07,6.11 11.38,9.82 19,11.05 7.57,1.18 20.57,-1.28 39,-7.42l76.38 -191.82z"/>
  <path id="_2_2" class="fil8" d="M12039 8488.23l14.33 30.38c-24.99,11.72 -48.59,15.18 -70.67,10.39 -22.14,-4.78 -41.32,-17.11 -57.6,-36.92 -16.81,-20.51 -26.32,-40.58 -28.57,-60.29 -2.2,-19.7 1.86,-39.37 12.16,-59.12 10.36,-19.68 24.56,-36.98 42.74,-51.89 19.82,-16.28 40.18,-26.67 61.14,-31.21 20.95,-4.54 41.01,-3.01 60.12,4.65 19.17,7.73 35.6,19.93 49.41,36.73 15.6,19.02 23.92,38.99 24.91,59.91 0.93,20.9 -5.24,41.15 -18.64,60.68l-26.13 -19.96c10.2,-15.79 15.02,-30.48 14.45,-44.05 -0.62,-13.58 -6.11,-26.75 -16.58,-39.42 -11.97,-14.64 -25.52,-23.98 -40.61,-27.99 -15.02,-4.07 -30.09,-3.27 -45.2,2.46 -15.05,5.72 -28.89,13.74 -41.4,24.03 -16.17,13.3 -28.38,27.25 -36.58,41.84 -8.14,14.64 -11.18,29.38 -8.95,44.21 2.17,14.9 8.06,28.11 17.56,39.71 11.61,14.05 25.46,22.65 41.63,25.75 16.17,3.09 33.64,-0.18 52.5,-9.88z"/>
  <path id="_3_3" class="fil8" d="M12208.26 8443.88l20.67 25.13 -83.3 68.43c9.49,11.48 18.35,17.74 26.66,18.75 8.25,0.99 23.88,-1.81 46.78,-8.48 16.78,-4.93 29.15,-7.83 37.1,-8.61 7.96,-0.83 16.27,0.46 24.99,3.92 8.67,3.42 16.13,8.95 22.41,16.55 7.95,9.71 12.02,14.85 12.31,15.54l-21.83 17.9c-0.69,-0.85 -2.01,-2.58 -4.02,-5.14 -2.2,-2.86 -3.52,-4.58 -4.04,-5.2 -6.56,-8 -13.45,-12.39 -20.5,-13.11 -7.16,-0.78 -19.19,1.5 -36.13,6.84 -21.35,6.83 -35.9,9.74 -43.75,8.8 -7.8,-0.94 -15.48,-3.49 -23.05,-7.59 6.75,15.1 5.33,36.48 -4.13,64.25l-31.14 91.21 -25.66 -31.25 25.52 -74.23c7.09,-20.42 10.87,-35.79 11.36,-46.05 0.48,-10.26 -3.11,-20.04 -10.76,-29.36l-89.02 73.08 -20.66 -25.12 190.19 -156.24z"/>
  <polygon id="_4_4" class="fil2 str15" points="11756.98,7890.56 11879.83,8040.13 11689.7,8196.36 11668.86,8171.06 11836.6,8033.29 11755.17,7934.17 11587.49,8071.99 11566.77,8046.8 "/>
  <path id="_5_5" class="fil2 str15" d="M11897.17 8062.64l20.88 25.43 -65.55 157.69 161.02 -41.49 20.61 25.02 -206.5 50.19c-25.82,6.28 -43.91,8.92 -54.35,7.92 -10.37,-1.05 -19.96,-6.86 -28.71,-17.48 -5.29,-6.52 -10.31,-15.72 -15.05,-27.62l21.55 -17.66c1.63,9.9 5.56,18.66 11.72,26.2 5.07,6.11 11.38,9.82 19,11.05 7.57,1.18 20.57,-1.28 39,-7.42l76.38 -191.82z"/>
  <path id="_6_6" class="fil2 str15" d="M12039 8488.23l14.33 30.38c-24.99,11.72 -48.59,15.18 -70.67,10.39 -22.14,-4.78 -41.32,-17.11 -57.6,-36.92 -16.81,-20.51 -26.32,-40.58 -28.57,-60.29 -2.2,-19.7 1.86,-39.37 12.16,-59.12 10.36,-19.68 24.56,-36.98 42.74,-51.89 19.82,-16.28 40.18,-26.67 61.14,-31.21 20.95,-4.54 41.01,-3.01 60.12,4.65 19.17,7.73 35.6,19.93 49.41,36.73 15.6,19.02 23.92,38.99 24.91,59.91 0.93,20.9 -5.24,41.15 -18.64,60.68l-26.13 -19.96c10.2,-15.79 15.02,-30.48 14.45,-44.05 -0.62,-13.58 -6.11,-26.75 -16.58,-39.42 -11.97,-14.64 -25.52,-23.98 -40.61,-27.99 -15.02,-4.07 -30.09,-3.27 -45.2,2.46 -15.05,5.72 -28.89,13.74 -41.4,24.03 -16.17,13.3 -28.38,27.25 -36.58,41.84 -8.14,14.64 -11.18,29.38 -8.95,44.21 2.17,14.9 8.06,28.11 17.56,39.71 11.61,14.05 25.46,22.65 41.63,25.75 16.17,3.09 33.64,-0.18 52.5,-9.88z"/>
  <path id="_7_7" class="fil2 str15" d="M12208.26 8443.88l20.67 25.13 -83.3 68.43c9.49,11.48 18.35,17.74 26.66,18.75 8.25,0.99 23.88,-1.81 46.78,-8.48 16.78,-4.93 29.15,-7.83 37.1,-8.61 7.96,-0.83 16.27,0.46 24.99,3.92 8.67,3.42 16.13,8.95 22.41,16.55 7.95,9.71 12.02,14.85 12.31,15.54l-21.83 17.9c-0.69,-0.85 -2.01,-2.58 -4.02,-5.14 -2.2,-2.86 -3.52,-4.58 -4.04,-5.2 -6.56,-8 -13.45,-12.39 -20.5,-13.11 -7.16,-0.78 -19.19,1.5 -36.13,6.84 -21.35,6.83 -35.9,9.74 -43.75,8.8 -7.8,-0.94 -15.48,-3.49 -23.05,-7.59 6.75,15.1 5.33,36.48 -4.13,64.25l-31.14 91.21 -25.66 -31.25 25.52 -74.23c7.09,-20.42 10.87,-35.79 11.36,-46.05 0.48,-10.26 -3.11,-20.04 -10.76,-29.36l-89.02 73.08 -20.66 -25.12 190.19 -156.24z"/>
  <path class="fil8" d="M12904.93 8093.78l14.32 30.38c-24.99,11.72 -48.59,15.18 -70.66,10.38 -22.14,-4.78 -41.32,-17.1 -57.61,-36.92 -16.81,-20.51 -26.32,-40.58 -28.57,-60.29 -2.19,-19.7 1.86,-39.37 12.16,-59.12 10.37,-19.69 24.57,-36.99 42.74,-51.89 19.83,-16.29 40.18,-26.67 61.15,-31.22 20.94,-4.54 41.01,-3 60.12,4.65 19.16,7.73 35.59,19.93 49.41,36.73 15.59,19.03 23.91,39 24.91,59.91 0.93,20.91 -5.24,41.16 -18.65,60.68l-26.13 -19.96c10.21,-15.8 15.02,-30.48 14.45,-44.06 -0.61,-13.58 -6.11,-26.74 -16.58,-39.41 -11.97,-14.64 -25.53,-23.98 -40.61,-27.99 -15.02,-4.07 -30.09,-3.27 -45.2,2.45 -15.05,5.73 -28.89,13.74 -41.4,24.03 -16.18,13.3 -28.38,27.26 -36.58,41.85 -8.15,14.64 -11.19,29.38 -8.96,44.2 2.17,14.9 8.06,28.11 17.56,39.71 11.62,14.05 25.46,22.65 41.63,25.76 16.18,3.08 33.64,-0.19 52.51,-9.88z"/>
  <polygon id="_1_8" class="fil8" points="12916.21,8244.81 13083.95,8106.98 13032.5,8044.37 13054.95,8025.9 13178.73,8176.62 13156.34,8195.09 13104.61,8132.19 12936.93,8269.95 "/>
  <path id="_2_9" class="fil8" d="M13085.8 8263.43c31.54,-25.95 63.24,-37.81 94.98,-35.52 31.81,2.29 58.67,16.81 80.72,43.66 14.44,17.54 23.22,36.83 26.44,57.78 3.16,21.02 0.32,41.37 -8.61,61.06 -8.98,19.75 -22.95,37.44 -41.97,53.03 -19.26,15.88 -39.74,26.16 -61.31,30.87 -21.65,4.72 -42.22,3.13 -61.73,-4.7 -19.57,-7.84 -36.11,-19.99 -49.69,-36.5 -14.73,-17.94 -23.51,-37.45 -26.45,-58.69 -2.94,-21.18 0.08,-41.54 9.06,-61.11 8.98,-19.58 21.82,-36.17 38.56,-49.88zm20.88 26.22c-22.91,18.83 -35.89,39.84 -38.96,63 -3.07,23.17 3.02,44.06 18.32,62.62 15.55,18.97 35,29.03 58.39,30.33 23.38,1.28 47.3,-8.08 71.75,-28.22 15.49,-12.72 26.84,-26.4 34.12,-41.15 7.22,-14.69 9.92,-29.71 7.97,-45.01 -1.94,-15.28 -8.01,-29.19 -18.3,-41.75 -14.68,-17.82 -33.4,-28.14 -56.15,-30.92 -22.82,-2.78 -48.5,7.57 -77.14,31.1z"/>
  <polygon id="_3_10" class="fil8" points="13358.85,8398.38 13481.71,8547.94 13291.57,8704.17 13270.74,8678.87 13438.48,8541.11 13357.05,8441.98 13189.37,8579.8 13168.65,8554.61 "/>
  <path id="_4_11" class="fil2 str15" d="M12904.93 8093.78l14.32 30.38c-24.99,11.72 -48.59,15.18 -70.66,10.38 -22.14,-4.78 -41.32,-17.1 -57.61,-36.92 -16.81,-20.51 -26.32,-40.58 -28.57,-60.29 -2.19,-19.7 1.86,-39.37 12.16,-59.12 10.37,-19.69 24.57,-36.99 42.74,-51.89 19.83,-16.29 40.18,-26.67 61.15,-31.22 20.94,-4.54 41.01,-3 60.12,4.65 19.16,7.73 35.59,19.93 49.41,36.73 15.59,19.03 23.91,39 24.91,59.91 0.93,20.91 -5.24,41.16 -18.65,60.68l-26.13 -19.96c10.21,-15.8 15.02,-30.48 14.45,-44.06 -0.61,-13.58 -6.11,-26.74 -16.58,-39.41 -11.97,-14.64 -25.53,-23.98 -40.61,-27.99 -15.02,-4.07 -30.09,-3.27 -45.2,2.45 -15.05,5.73 -28.89,13.74 -41.4,24.03 -16.18,13.3 -28.38,27.26 -36.58,41.85 -8.15,14.64 -11.19,29.38 -8.96,44.2 2.17,14.9 8.06,28.11 17.56,39.71 11.62,14.05 25.46,22.65 41.63,25.76 16.18,3.08 33.64,-0.19 52.51,-9.88z"/>
  <polygon id="_5_12" class="fil2 str15" points="12916.21,8244.81 13083.95,8106.98 13032.5,8044.37 13054.95,8025.9 13178.73,8176.62 13156.34,8195.09 13104.61,8132.19 12936.93,8269.95 "/>
  <path id="_6_13" class="fil2 str15" d="M13085.8 8263.43c31.54,-25.95 63.24,-37.81 94.98,-35.52 31.81,2.29 58.67,16.81 80.72,43.66 14.44,17.54 23.22,36.83 26.44,57.78 3.16,21.02 0.32,41.37 -8.61,61.06 -8.98,19.75 -22.95,37.44 -41.97,53.03 -19.26,15.88 -39.74,26.16 -61.31,30.87 -21.65,4.72 -42.22,3.13 -61.73,-4.7 -19.57,-7.84 -36.11,-19.99 -49.69,-36.5 -14.73,-17.94 -23.51,-37.45 -26.45,-58.69 -2.94,-21.18 0.08,-41.54 9.06,-61.11 8.98,-19.58 21.82,-36.17 38.56,-49.88zm20.88 26.22c-22.91,18.83 -35.89,39.84 -38.96,63 -3.07,23.17 3.02,44.06 18.32,62.62 15.55,18.97 35,29.03 58.39,30.33 23.38,1.28 47.3,-8.08 71.75,-28.22 15.49,-12.72 26.84,-26.4 34.12,-41.15 7.22,-14.69 9.92,-29.71 7.97,-45.01 -1.94,-15.28 -8.01,-29.19 -18.3,-41.75 -14.68,-17.82 -33.4,-28.14 -56.15,-30.92 -22.82,-2.78 -48.5,7.57 -77.14,31.1z"/>
  <polygon id="_7_14" class="fil2 str15" points="13358.85,8398.38 13481.71,8547.94 13291.57,8704.17 13270.74,8678.87 13438.48,8541.11 13357.05,8441.98 13189.37,8579.8 13168.65,8554.61 "/>
  <polygon class="fil8" points="13823.95,8028.79 14014.08,7872.56 14034.8,7897.75 13956.7,7961.93 14037.9,8060.76 14116,7996.59 14136.67,8021.79 13946.47,8177.96 13925.81,8152.83 14015.45,8079.17 13934.25,7980.33 13844.61,8053.99 "/>
  <polygon id="_1_15" class="fil8" points="13980.65,8220.96 14170.83,8064.72 14283.8,8202.23 14261.35,8220.65 14169.05,8108.33 14110.82,8156.14 14197.2,8261.38 14174.92,8279.68 14088.49,8174.51 14023.76,8227.68 14119.69,8344.4 14097.23,8362.86 "/>
  <polygon id="_2_16" class="fil8" points="14315.65,8242.3 14334.42,8265.08 14183.82,8388.81 14417.52,8366.26 14438.29,8391.57 14248.16,8547.81 14229.39,8524.96 14379.6,8401.58 14146.13,8423.67 14125.47,8398.54 "/>
  <path id="_3_17" class="fil8" d="M14459.52 8670.54l14.32 30.38c-24.99,11.72 -48.58,15.18 -70.66,10.38 -22.14,-4.78 -41.32,-17.1 -57.6,-36.92 -16.81,-20.51 -26.33,-40.58 -28.58,-60.29 -2.19,-19.7 1.87,-39.37 12.17,-59.12 10.36,-19.69 24.56,-36.99 42.73,-51.89 19.83,-16.29 40.18,-26.67 61.15,-31.22 20.94,-4.54 41.01,-3 60.12,4.65 19.17,7.73 35.59,19.93 49.41,36.73 15.59,19.03 23.91,39 24.91,59.91 0.93,20.91 -5.24,41.16 -18.65,60.68l-26.13 -19.97c10.21,-15.79 15.02,-30.48 14.45,-44.05 -0.61,-13.58 -6.11,-26.74 -16.58,-39.41 -11.97,-14.64 -25.53,-23.98 -40.61,-27.99 -15.02,-4.08 -30.09,-3.27 -45.2,2.45 -15.05,5.72 -28.89,13.74 -41.4,24.03 -16.18,13.3 -28.38,27.26 -36.58,41.84 -8.14,14.64 -11.18,29.38 -8.96,44.21 2.17,14.9 8.06,28.11 17.56,39.71 11.62,14.05 25.46,22.65 41.63,25.75 16.18,3.09 33.64,-0.18 52.51,-9.87z"/>
  <polygon id="_4_18" class="fil8" points="14628.67,8626.01 14751.53,8775.58 14561.4,8931.81 14540.56,8906.51 14708.3,8768.74 14626.86,8669.61 14459.19,8807.44 14438.47,8782.24 "/>
  <path id="_5_19" class="fil8" d="M14594.49 8973.52l190.14 -156.24 58.93 71.7c10.42,12.63 17.73,22.79 21.99,30.47 6.11,10.58 9.53,20.87 10.37,30.73 0.83,9.9 -1.13,20.06 -5.86,30.32 -4.65,10.33 -11.73,19.36 -21.16,27.13 -16.17,13.29 -34.08,19.37 -53.74,18.29 -19.65,-1.13 -40.56,-15.1 -62.65,-42.01l-40.06 -48.79 -77.3 63.53 -20.67 -25.13zm120.42 -56.81l40.4 49.19c13.35,16.23 25.87,25.28 37.51,27.14 11.7,1.86 23.02,-1.67 33.99,-10.71 7.95,-6.56 13.14,-14.15 15.45,-22.8 2.37,-8.72 1.77,-17.09 -1.81,-25.15 -2.37,-5.15 -8.24,-13.43 -17.62,-24.87l-39.94 -48.61 -67.98 55.81z"/>
  <polygon id="_6_20" class="fil8" points="14701.31,9104.46 14727.93,9082.65 14749.8,9109.21 14723.18,9131.08 "/>
  <polygon id="_7_21" class="fil2 str15" points="13823.95,8028.79 14014.08,7872.56 14034.8,7897.75 13956.7,7961.93 14037.9,8060.76 14116,7996.59 14136.67,8021.79 13946.47,8177.96 13925.81,8152.83 14015.45,8079.17 13934.25,7980.33 13844.61,8053.99 "/>
  <polygon id="_8_22" class="fil2 str15" points="13980.65,8220.96 14170.83,8064.72 14283.8,8202.23 14261.35,8220.65 14169.05,8108.33 14110.82,8156.14 14197.2,8261.38 14174.92,8279.68 14088.49,8174.51 14023.76,8227.68 14119.69,8344.4 14097.23,8362.86 "/>
  <polygon id="_9_23" class="fil2 str15" points="14315.65,8242.3 14334.42,8265.08 14183.82,8388.81 14417.52,8366.26 14438.29,8391.57 14248.16,8547.81 14229.39,8524.96 14379.6,8401.58 14146.13,8423.67 14125.47,8398.54 "/>
  <path id="_10" class="fil2 str15" d="M14459.52 8670.54l14.32 30.38c-24.99,11.72 -48.58,15.18 -70.66,10.38 -22.14,-4.78 -41.32,-17.1 -57.6,-36.92 -16.81,-20.51 -26.33,-40.58 -28.58,-60.29 -2.19,-19.7 1.87,-39.37 12.17,-59.12 10.36,-19.69 24.56,-36.99 42.73,-51.89 19.83,-16.29 40.18,-26.67 61.15,-31.22 20.94,-4.54 41.01,-3 60.12,4.65 19.17,7.73 35.59,19.93 49.41,36.73 15.59,19.03 23.91,39 24.91,59.91 0.93,20.91 -5.24,41.16 -18.65,60.68l-26.13 -19.97c10.21,-15.79 15.02,-30.48 14.45,-44.05 -0.61,-13.58 -6.11,-26.74 -16.58,-39.41 -11.97,-14.64 -25.53,-23.98 -40.61,-27.99 -15.02,-4.08 -30.09,-3.27 -45.2,2.45 -15.05,5.72 -28.89,13.74 -41.4,24.03 -16.18,13.3 -28.38,27.26 -36.58,41.84 -8.14,14.64 -11.18,29.38 -8.96,44.21 2.17,14.9 8.06,28.11 17.56,39.71 11.62,14.05 25.46,22.65 41.63,25.75 16.18,3.09 33.64,-0.18 52.51,-9.87z"/>
  <polygon id="_11" class="fil2 str15" points="14628.67,8626.01 14751.53,8775.58 14561.4,8931.81 14540.56,8906.51 14708.3,8768.74 14626.86,8669.61 14459.19,8807.44 14438.47,8782.24 "/>
  <path id="_12" class="fil2 str15" d="M14594.49 8973.52l190.14 -156.24 58.93 71.7c10.42,12.63 17.73,22.79 21.99,30.47 6.11,10.58 9.53,20.87 10.37,30.73 0.83,9.9 -1.13,20.06 -5.86,30.32 -4.65,10.33 -11.73,19.36 -21.16,27.13 -16.17,13.29 -34.08,19.37 -53.74,18.29 -19.65,-1.13 -40.56,-15.1 -62.65,-42.01l-40.06 -48.79 -77.3 63.53 -20.67 -25.13zm120.42 -56.81l40.4 49.19c13.35,16.23 25.87,25.28 37.51,27.14 11.7,1.86 23.02,-1.67 33.99,-10.71 7.95,-6.56 13.14,-14.15 15.45,-22.8 2.37,-8.72 1.77,-17.09 -1.81,-25.15 -2.37,-5.15 -8.24,-13.43 -17.62,-24.87l-39.94 -48.61 -67.98 55.81z"/>
  <polygon id="_13" class="fil2 str15" points="14701.31,9104.46 14727.93,9082.65 14749.8,9109.21 14723.18,9131.08 "/>
  <path class="fil8" d="M15007.59 7884.15c31.53,-25.95 63.23,-37.81 94.98,-35.52 31.81,2.29 58.67,16.81 80.72,43.66 14.44,17.54 23.22,36.83 26.44,57.78 3.16,21.02 0.32,41.37 -8.61,61.06 -8.98,19.75 -22.96,37.44 -41.97,53.03 -19.27,15.88 -39.74,26.16 -61.32,30.87 -21.64,4.72 -42.21,3.13 -61.73,-4.7 -19.56,-7.84 -36.11,-19.99 -49.69,-36.5 -14.73,-17.94 -23.51,-37.45 -26.44,-58.69 -2.94,-21.19 0.08,-41.55 9.06,-61.12 8.98,-19.57 21.82,-36.16 38.56,-49.87zm20.88 26.22c-22.91,18.83 -35.89,39.84 -38.96,63 -3.07,23.16 3.02,44.06 18.32,62.62 15.54,18.97 35,29.03 58.39,30.32 23.38,1.29 47.29,-8.07 71.75,-28.21 15.48,-12.72 26.83,-26.4 34.12,-41.15 7.22,-14.7 9.92,-29.71 7.97,-45.01 -1.94,-15.29 -8.01,-29.19 -18.31,-41.76 -14.67,-17.82 -33.39,-28.13 -56.15,-30.91 -22.81,-2.78 -48.49,7.57 -77.13,31.1z"/>
  <polygon id="_1_24" class="fil8" points="15129.98,8223.5 15297.72,8085.67 15246.26,8023.05 15268.72,8004.58 15392.5,8155.3 15370.11,8173.77 15318.38,8110.87 15150.69,8248.63 "/>
  <path id="_2_25" class="fil8" d="M15413.48 8182l20.66 25.13 -83.29 68.43c9.49,11.47 18.34,17.74 26.65,18.75 8.26,0.99 23.88,-1.81 46.78,-8.49 16.77,-4.93 29.14,-7.83 37.09,-8.6 7.96,-0.83 16.27,0.45 25,3.92 8.66,3.41 16.12,8.94 22.4,16.54 7.95,9.71 12.03,14.86 12.31,15.55l-21.83 17.9c-0.68,-0.86 -2.01,-2.58 -4.02,-5.15 -2.19,-2.85 -3.52,-4.57 -4.04,-5.2 -6.56,-7.99 -13.44,-12.38 -20.5,-13.1 -7.16,-0.78 -19.18,1.5 -36.13,6.83 -21.34,6.84 -35.89,9.75 -43.74,8.81 -7.8,-0.95 -15.49,-3.5 -23.06,-7.59 6.75,15.1 5.34,36.48 -4.13,64.25l-31.13 91.2 -25.67 -31.25 25.52 -74.23c7.09,-20.43 10.88,-35.79 11.36,-46.05 0.48,-10.26 -3.11,-20.05 -10.76,-29.36l-89.01 73.08 -20.66 -25.12 190.19 -156.24z"/>
  <path id="_3_26" class="fil8" d="M15551.11 8350.66l97.82 119.06 -190.12 156.24 -20.67 -25.13 167.68 -137.83 -56.45 -68.74 -97.93 80.46c-19.94,16.34 -35.25,27.39 -46.01,33.11 -10.81,5.77 -21.23,7.75 -31.26,6.02 -10.03,-1.74 -18.83,-7.21 -26.36,-16.35 -4.54,-5.54 -8.99,-13.03 -13.32,-22.53l25.85 -14.07c1.67,5.55 3.69,9.84 6.11,12.76 4.71,5.71 10.35,8.27 16.98,7.56 6.64,-0.66 17.91,-7.51 33.79,-20.58l133.87 -109.96z"/>
  <path id="_4_27" class="fil8" d="M15682.95 8512.37l20.72 25.2 -85.36 70.08 30.05 36.62c28.46,-20.38 57.24,-29.19 86.36,-26.43 29.12,2.7 53.35,15.86 72.68,39.39 20.38,24.8 28.54,52.56 24.48,83.17 -4.08,30.67 -21.1,58.29 -51.05,82.86 -31.08,25.61 -62.15,37.47 -93.04,35.63 -30.89,-1.84 -56.79,-15.44 -77.61,-40.75 -18.88,-23.02 -27.05,-48.43 -24.51,-76.24 2.6,-27.79 16.2,-54.08 40.8,-78.8l-30.49 -37.08 -82.5 67.79 -20.65 -25.2 190.12 -156.24zm-24.45 165.91c-24.05,19.79 -38.18,40.65 -42.35,62.6 -4.16,21.96 1.13,41.94 15.91,59.93 15.13,18.45 33.84,27.68 56.2,27.71 22.34,0.03 46.02,-10.19 71,-30.74 23.7,-19.45 37.9,-40.18 42.63,-62.2 4.74,-22.01 -0.43,-42.23 -15.57,-60.63 -15.42,-18.74 -34.48,-27.89 -57.17,-27.4 -22.75,0.48 -46.26,10.7 -70.66,30.73z"/>
  <path id="_5_28" class="fil8" d="M15816 9063.87l-20.72 -25.2 76.67 -62.95c-26.92,-15.72 -47.33,-32.04 -61.24,-48.95 -10.88,-13.26 -17.41,-27.44 -19.53,-42.68 -2.11,-15.17 0.19,-28.41 6.86,-39.61 6.72,-11.26 17.79,-23.16 33.16,-35.82l55.94 -45.93 20.65 25.14 -53.59 44.02c-20.74,17.04 -31.28,32.03 -31.58,44.99 -0.3,12.94 3.93,24.67 12.62,35.36 14.56,17.71 33.81,33.12 57.75,46.21l92.49 -76.02 20.67 25.2 -190.13 156.24z"/>
  <polygon id="_6_29" class="fil8" points="15852.29,9109.34 15878.91,9087.53 15900.78,9114.09 15874.16,9135.96 "/>
  <path id="_7_30" class="fil2 str15" d="M15007.59 7884.15c31.53,-25.95 63.23,-37.81 94.98,-35.52 31.81,2.29 58.67,16.81 80.72,43.66 14.44,17.54 23.22,36.83 26.44,57.78 3.16,21.02 0.32,41.37 -8.61,61.06 -8.98,19.75 -22.96,37.44 -41.97,53.03 -19.27,15.88 -39.74,26.16 -61.32,30.87 -21.64,4.72 -42.21,3.13 -61.73,-4.7 -19.56,-7.84 -36.11,-19.99 -49.69,-36.5 -14.73,-17.94 -23.51,-37.45 -26.44,-58.69 -2.94,-21.19 0.08,-41.55 9.06,-61.12 8.98,-19.57 21.82,-36.16 38.56,-49.87zm20.88 26.22c-22.91,18.83 -35.89,39.84 -38.96,63 -3.07,23.16 3.02,44.06 18.32,62.62 15.54,18.97 35,29.03 58.39,30.32 23.38,1.29 47.29,-8.07 71.75,-28.21 15.48,-12.72 26.83,-26.4 34.12,-41.15 7.22,-14.7 9.92,-29.71 7.97,-45.01 -1.94,-15.29 -8.01,-29.19 -18.31,-41.76 -14.67,-17.82 -33.39,-28.13 -56.15,-30.91 -22.81,-2.78 -48.49,7.57 -77.13,31.1z"/>
  <polygon id="_8_31" class="fil2 str15" points="15129.98,8223.5 15297.72,8085.67 15246.26,8023.05 15268.72,8004.58 15392.5,8155.3 15370.11,8173.77 15318.38,8110.87 15150.69,8248.63 "/>
  <path id="_9_32" class="fil2 str15" d="M15413.48 8182l20.66 25.13 -83.29 68.43c9.49,11.47 18.34,17.74 26.65,18.75 8.26,0.99 23.88,-1.81 46.78,-8.49 16.77,-4.93 29.14,-7.83 37.09,-8.6 7.96,-0.83 16.27,0.45 25,3.92 8.66,3.41 16.12,8.94 22.4,16.54 7.95,9.71 12.03,14.86 12.31,15.55l-21.83 17.9c-0.68,-0.86 -2.01,-2.58 -4.02,-5.15 -2.19,-2.85 -3.52,-4.57 -4.04,-5.2 -6.56,-7.99 -13.44,-12.38 -20.5,-13.1 -7.16,-0.78 -19.18,1.5 -36.13,6.83 -21.34,6.84 -35.89,9.75 -43.74,8.81 -7.8,-0.95 -15.49,-3.5 -23.06,-7.59 6.75,15.1 5.34,36.48 -4.13,64.25l-31.13 91.2 -25.67 -31.25 25.52 -74.23c7.09,-20.43 10.88,-35.79 11.36,-46.05 0.48,-10.26 -3.11,-20.05 -10.76,-29.36l-89.01 73.08 -20.66 -25.12 190.19 -156.24z"/>
  <path id="_10_33" class="fil2 str15" d="M15551.11 8350.66l97.82 119.06 -190.12 156.24 -20.67 -25.13 167.68 -137.83 -56.45 -68.74 -97.93 80.46c-19.94,16.34 -35.25,27.39 -46.01,33.11 -10.81,5.77 -21.23,7.75 -31.26,6.02 -10.03,-1.74 -18.83,-7.21 -26.36,-16.35 -4.54,-5.54 -8.99,-13.03 -13.32,-22.53l25.85 -14.07c1.67,5.55 3.69,9.84 6.11,12.76 4.71,5.71 10.35,8.27 16.98,7.56 6.64,-0.66 17.91,-7.51 33.79,-20.58l133.87 -109.96z"/>
  <path id="_11_34" class="fil2 str15" d="M15682.95 8512.37l20.72 25.2 -85.36 70.08 30.05 36.62c28.46,-20.38 57.24,-29.19 86.36,-26.43 29.12,2.7 53.35,15.86 72.68,39.39 20.38,24.8 28.54,52.56 24.48,83.17 -4.08,30.67 -21.1,58.29 -51.05,82.86 -31.08,25.61 -62.15,37.47 -93.04,35.63 -30.89,-1.84 -56.79,-15.44 -77.61,-40.75 -18.88,-23.02 -27.05,-48.43 -24.51,-76.24 2.6,-27.79 16.2,-54.08 40.8,-78.8l-30.49 -37.08 -82.5 67.79 -20.65 -25.2 190.12 -156.24zm-24.45 165.91c-24.05,19.79 -38.18,40.65 -42.35,62.6 -4.16,21.96 1.13,41.94 15.91,59.93 15.13,18.45 33.84,27.68 56.2,27.71 22.34,0.03 46.02,-10.19 71,-30.74 23.7,-19.45 37.9,-40.18 42.63,-62.2 4.74,-22.01 -0.43,-42.23 -15.57,-60.63 -15.42,-18.74 -34.48,-27.89 -57.17,-27.4 -22.75,0.48 -46.26,10.7 -70.66,30.73z"/>
  <path id="_12_35" class="fil2 str15" d="M15816 9063.87l-20.72 -25.2 76.67 -62.95c-26.92,-15.72 -47.33,-32.04 -61.24,-48.95 -10.88,-13.26 -17.41,-27.44 -19.53,-42.68 -2.11,-15.17 0.19,-28.41 6.86,-39.61 6.72,-11.26 17.79,-23.16 33.16,-35.82l55.94 -45.93 20.65 25.14 -53.59 44.02c-20.74,17.04 -31.28,32.03 -31.58,44.99 -0.3,12.94 3.93,24.67 12.62,35.36 14.56,17.71 33.81,33.12 57.75,46.21l92.49 -76.02 20.67 25.2 -190.13 156.24z"/>
  <polygon id="_13_36" class="fil2 str15" points="15852.29,9109.34 15878.91,9087.53 15900.78,9114.09 15874.16,9135.96 "/>
  <path class="fil8" d="M16208.73 7935.08l25.9 18.92c-7.75,9.37 -12.99,21.88 -15.73,37.36 -2.76,15.54 1.2,29.79 11.95,42.88 10.93,13.31 23,21 36.12,23.14 13.13,2.06 24.58,-0.89 34.29,-8.83 10.45,-8.63 15.41,-19.54 14.89,-32.72 -0.44,-13.24 -6.45,-26.85 -17.96,-40.85l-9.9 -12.05 21.88 -18.01c9.56,11.6 17.5,19.92 23.87,24.95 6.38,5.02 14.24,7.63 23.64,7.88 9.34,0.19 17.52,-2.59 24.56,-8.35 8.27,-6.85 12.89,-15.96 13.71,-27.49 0.87,-11.46 -3.24,-22.68 -12.27,-33.71 -7.88,-9.59 -17.02,-15.8 -27.4,-18.63 -10.38,-2.89 -20.58,-2.33 -30.65,1.59 -10,3.87 -16.98,7.45 -20.87,10.61l-14.37 -28.59c45.29,-27.21 83.82,-21.5 115.58,17.17 15.26,18.58 22.19,37.57 20.83,57 -1.36,19.37 -8.99,34.76 -22.81,46.09 -17.77,14.56 -38.39,17.5 -61.97,8.76 5.32,11.84 6.5,24.44 3.57,37.8 -2.87,13.3 -10.05,24.66 -21.59,34.11 -16.34,13.47 -35.23,18.35 -56.67,14.76 -21.39,-3.65 -40.74,-15.91 -57.89,-36.81 -29.59,-35.99 -29.84,-74.96 -0.7,-117z"/>
  <path id="_1_37" class="fil8" d="M16293.93 8149.5l190.13 -156.24 58.64 71.3c11.91,14.57 19.58,27.77 22.94,39.74 3.37,11.91 3.07,23.65 -0.84,35.24 -3.92,11.53 -10.24,20.89 -18.98,28.03 -8.11,6.67 -17.56,10.77 -28.38,12.25 -10.77,1.52 -22.07,-0.39 -33.78,-5.67 6.08,14.25 7.56,27.82 4.51,40.72 -3.06,12.85 -10.06,23.81 -21.14,32.91 -8.92,7.31 -18.76,12.21 -29.53,14.77 -10.7,2.51 -20.45,2.71 -29.16,0.62 -8.66,-2.14 -17.51,-6.53 -26.46,-13.14 -9.02,-6.56 -18.45,-15.93 -28.4,-28.03l-59.56 -72.5zm130.91 -65.44l33.79 41.14c9.15,11.14 16.45,18.5 21.91,22.15 7.18,4.85 14.29,7.05 21.33,6.69 7.1,-0.37 13.97,-3.32 20.66,-8.79 6.29,-5.17 10.61,-11.27 12.94,-18.21 2.26,-7 2.01,-13.99 -0.82,-21.08 -2.83,-7.1 -9.86,-17.44 -21.14,-31.1l-31.19 -38 -57.48 47.19zm-87.8 72.16l38.9 47.32c6.67,8.17 11.68,13.59 14.95,16.39 5.81,4.96 11.49,8.37 17.11,10.25 5.63,1.93 11.82,2.25 18.46,0.9 6.7,-1.28 13.1,-4.4 19.16,-9.35 7.08,-5.86 11.76,-12.7 13.95,-20.68 2.27,-7.92 1.78,-15.99 -1.33,-24.18 -3.19,-8.18 -9.75,-18.3 -19.71,-30.4l-36.15 -43.99 -65.35 53.74z"/>
  <path id="_2_38" class="fil8" d="M16606.89 8143.95l20.89 25.42 -65.56 157.69 161.02 -41.49 20.61 25.03 -206.5 50.19c-25.82,6.27 -43.91,8.92 -54.35,7.92 -10.37,-1.05 -19.96,-6.86 -28.71,-17.49 -5.29,-6.51 -10.31,-15.72 -15.05,-27.62l21.55 -17.66c1.63,9.9 5.56,18.67 11.72,26.21 5.07,6.11 11.38,9.81 19,11.05 7.57,1.18 20.57,-1.28 39,-7.42l76.38 -191.82z"/>
  <path id="_3_39" class="fil8" d="M16761.05 8332.8l20.67 25.14 -83.3 68.42c9.49,11.48 18.35,17.75 26.66,18.75 8.25,1 23.88,-1.8 46.78,-8.48 16.78,-4.93 29.15,-7.83 37.1,-8.6 7.96,-0.83 16.27,0.45 24.99,3.92 8.67,3.41 16.13,8.94 22.41,16.54 7.94,9.71 12.02,14.86 12.31,15.55l-21.83 17.9c-0.69,-0.86 -2.01,-2.58 -4.02,-5.15 -2.2,-2.85 -3.52,-4.57 -4.04,-5.2 -6.56,-7.99 -13.45,-12.39 -20.5,-13.1 -7.16,-0.78 -19.19,1.49 -36.13,6.83 -21.35,6.84 -35.9,9.74 -43.75,8.8 -7.8,-0.94 -15.48,-3.49 -23.05,-7.59 6.75,15.1 5.33,36.49 -4.13,64.25l-31.14 91.21 -25.67 -31.25 25.53 -74.23c7.09,-20.43 10.87,-35.8 11.36,-46.06 0.48,-10.26 -3.11,-20.04 -10.77,-29.35l-89.01 73.08 -20.66 -25.13 190.19 -156.24z"/>
  <path id="_4_40" class="fil8" d="M16843.87 8634.1c31.54,-25.95 63.24,-37.81 94.98,-35.52 31.81,2.29 58.68,16.81 80.72,43.66 14.45,17.54 23.22,36.83 26.44,57.78 3.16,21.02 0.32,41.37 -8.6,61.06 -8.99,19.75 -22.96,37.44 -41.98,53.03 -19.26,15.88 -39.73,26.16 -61.31,30.87 -21.65,4.72 -42.22,3.13 -61.73,-4.7 -19.57,-7.84 -36.11,-19.99 -49.69,-36.5 -14.73,-17.94 -23.51,-37.45 -26.45,-58.69 -2.94,-21.18 0.09,-41.54 9.06,-61.12 8.98,-19.57 21.82,-36.16 38.56,-49.87zm20.89 26.22c-22.91,18.83 -35.9,39.84 -38.97,63 -3.07,23.17 3.02,44.06 18.33,62.62 15.54,18.97 35,29.03 58.38,30.33 23.38,1.28 47.3,-8.08 71.75,-28.22 15.49,-12.72 26.84,-26.4 34.12,-41.15 7.22,-14.69 9.92,-29.71 7.98,-45.01 -1.95,-15.28 -8.02,-29.19 -18.31,-41.75 -14.68,-17.82 -33.39,-28.14 -56.15,-30.92 -22.81,-2.78 -48.5,7.57 -77.13,31.1z"/>
  <polygon id="_5_41" class="fil8" points="16966.25,8973.45 17133.99,8835.62 17082.55,8773 17105,8754.53 17228.77,8905.25 17206.38,8923.72 17154.65,8860.82 16986.98,8998.59 "/>
  <path id="_6_42" class="fil8" d="M17249.75 8931.95l20.67 25.13 -83.3 68.43c9.49,11.47 18.34,17.74 26.65,18.75 8.26,0.99 23.88,-1.81 46.78,-8.48 16.78,-4.93 29.15,-7.84 37.1,-8.61 7.96,-0.83 16.27,0.46 24.99,3.92 8.67,3.41 16.13,8.95 22.41,16.55 7.94,9.71 12.02,14.85 12.31,15.54l-21.83 17.9c-0.69,-0.86 -2.01,-2.58 -4.02,-5.14 -2.2,-2.86 -3.52,-4.58 -4.04,-5.21 -6.56,-7.99 -13.45,-12.38 -20.5,-13.1 -7.16,-0.78 -19.19,1.5 -36.13,6.83 -21.35,6.84 -35.9,9.75 -43.75,8.81 -7.8,-0.95 -15.48,-3.49 -23.05,-7.59 6.75,15.1 5.33,36.48 -4.13,64.25l-31.14 91.21 -25.67 -31.25 25.53 -74.23c7.08,-20.42 10.87,-35.79 11.35,-46.05 0.49,-10.26 -3.11,-20.05 -10.76,-29.36l-89.01 73.08 -20.66 -25.12 190.19 -156.24z"/>
  <path id="_7_43" class="fil8" d="M17387.38 9100.61l97.83 119.06 -190.13 156.24 -20.66 -25.13 167.68 -137.83 -56.46 -68.73 -97.92 80.46c-19.94,16.34 -35.26,27.39 -46.01,33.1 -10.8,5.78 -21.23,7.75 -31.26,6.02 -10.03,-1.74 -18.82,-7.21 -26.36,-16.34 -4.54,-5.55 -8.98,-13.04 -13.32,-22.54l25.85 -14.07c1.68,5.55 3.7,9.85 6.12,12.76 4.71,5.71 10.34,8.27 16.98,7.56 6.64,-0.65 17.91,-7.51 33.79,-20.57l133.86 -109.97z"/>
  <polygon id="_8_44" class="fil8" points="17331.41,9421.41 17358.03,9399.6 17379.9,9426.16 17353.27,9448.03 "/>
  <path id="_9_45" class="fil2 str15" d="M16208.73 7935.08l25.9 18.92c-7.75,9.37 -12.99,21.88 -15.73,37.36 -2.76,15.54 1.2,29.79 11.95,42.88 10.93,13.31 23,21 36.12,23.14 13.13,2.06 24.58,-0.89 34.29,-8.83 10.45,-8.63 15.41,-19.54 14.89,-32.72 -0.44,-13.24 -6.45,-26.85 -17.96,-40.85l-9.9 -12.05 21.88 -18.01c9.56,11.6 17.5,19.92 23.87,24.95 6.38,5.02 14.24,7.63 23.64,7.88 9.34,0.19 17.52,-2.59 24.56,-8.35 8.27,-6.85 12.89,-15.96 13.71,-27.49 0.87,-11.46 -3.24,-22.68 -12.27,-33.71 -7.88,-9.59 -17.02,-15.8 -27.4,-18.63 -10.38,-2.89 -20.58,-2.33 -30.65,1.59 -10,3.87 -16.98,7.45 -20.87,10.61l-14.37 -28.59c45.29,-27.21 83.82,-21.5 115.58,17.17 15.26,18.58 22.19,37.57 20.83,57 -1.36,19.37 -8.99,34.76 -22.81,46.09 -17.77,14.56 -38.39,17.5 -61.97,8.76 5.32,11.84 6.5,24.44 3.57,37.8 -2.87,13.3 -10.05,24.66 -21.59,34.11 -16.34,13.47 -35.23,18.35 -56.67,14.76 -21.39,-3.65 -40.74,-15.91 -57.89,-36.81 -29.59,-35.99 -29.84,-74.96 -0.7,-117z"/>
  <path id="_10_46" class="fil2 str15" d="M16293.93 8149.5l190.13 -156.24 58.64 71.3c11.91,14.57 19.58,27.77 22.94,39.74 3.37,11.91 3.07,23.65 -0.84,35.24 -3.92,11.53 -10.24,20.89 -18.98,28.03 -8.11,6.67 -17.56,10.77 -28.38,12.25 -10.77,1.52 -22.07,-0.39 -33.78,-5.67 6.08,14.25 7.56,27.82 4.51,40.72 -3.06,12.85 -10.06,23.81 -21.14,32.91 -8.92,7.31 -18.76,12.21 -29.53,14.77 -10.7,2.51 -20.45,2.71 -29.16,0.62 -8.66,-2.14 -17.51,-6.53 -26.46,-13.14 -9.02,-6.56 -18.45,-15.93 -28.4,-28.03l-59.56 -72.5zm130.91 -65.44l33.79 41.14c9.15,11.14 16.45,18.5 21.91,22.15 7.18,4.85 14.29,7.05 21.33,6.69 7.1,-0.37 13.97,-3.32 20.66,-8.79 6.29,-5.17 10.61,-11.27 12.94,-18.21 2.26,-7 2.01,-13.99 -0.82,-21.08 -2.83,-7.1 -9.86,-17.44 -21.14,-31.1l-31.19 -38 -57.48 47.19zm-87.8 72.16l38.9 47.32c6.67,8.17 11.68,13.59 14.95,16.39 5.81,4.96 11.49,8.37 17.11,10.25 5.63,1.93 11.82,2.25 18.46,0.9 6.7,-1.28 13.1,-4.4 19.16,-9.35 7.08,-5.86 11.76,-12.7 13.95,-20.68 2.27,-7.92 1.78,-15.99 -1.33,-24.18 -3.19,-8.18 -9.75,-18.3 -19.71,-30.4l-36.15 -43.99 -65.35 53.74z"/>
  <path id="_11_47" class="fil2 str15" d="M16606.89 8143.95l20.89 25.42 -65.56 157.69 161.02 -41.49 20.61 25.03 -206.5 50.19c-25.82,6.27 -43.91,8.92 -54.35,7.92 -10.37,-1.05 -19.96,-6.86 -28.71,-17.49 -5.29,-6.51 -10.31,-15.72 -15.05,-27.62l21.55 -17.66c1.63,9.9 5.56,18.67 11.72,26.21 5.07,6.11 11.38,9.81 19,11.05 7.57,1.18 20.57,-1.28 39,-7.42l76.38 -191.82z"/>
  <path id="_12_48" class="fil2 str15" d="M16761.05 8332.8l20.67 25.14 -83.3 68.42c9.49,11.48 18.35,17.75 26.66,18.75 8.25,1 23.88,-1.8 46.78,-8.48 16.78,-4.93 29.15,-7.83 37.1,-8.6 7.96,-0.83 16.27,0.45 24.99,3.92 8.67,3.41 16.13,8.94 22.41,16.54 7.94,9.71 12.02,14.86 12.31,15.55l-21.83 17.9c-0.69,-0.86 -2.01,-2.58 -4.02,-5.15 -2.2,-2.85 -3.52,-4.57 -4.04,-5.2 -6.56,-7.99 -13.45,-12.39 -20.5,-13.1 -7.16,-0.78 -19.19,1.49 -36.13,6.83 -21.35,6.84 -35.9,9.74 -43.75,8.8 -7.8,-0.94 -15.48,-3.49 -23.05,-7.59 6.75,15.1 5.33,36.49 -4.13,64.25l-31.14 91.21 -25.67 -31.25 25.53 -74.23c7.09,-20.43 10.87,-35.8 11.36,-46.06 0.48,-10.26 -3.11,-20.04 -10.77,-29.35l-89.01 73.08 -20.66 -25.13 190.19 -156.24z"/>
  <path id="_13_49" class="fil2 str15" d="M16843.87 8634.1c31.54,-25.95 63.24,-37.81 94.98,-35.52 31.81,2.29 58.68,16.81 80.72,43.66 14.45,17.54 23.22,36.83 26.44,57.78 3.16,21.02 0.32,41.37 -8.6,61.06 -8.99,19.75 -22.96,37.44 -41.98,53.03 -19.26,15.88 -39.73,26.16 -61.31,30.87 -21.65,4.72 -42.22,3.13 -61.73,-4.7 -19.57,-7.84 -36.11,-19.99 -49.69,-36.5 -14.73,-17.94 -23.51,-37.45 -26.45,-58.69 -2.94,-21.18 0.09,-41.54 9.06,-61.12 8.98,-19.57 21.82,-36.16 38.56,-49.87zm20.89 26.22c-22.91,18.83 -35.9,39.84 -38.97,63 -3.07,23.17 3.02,44.06 18.33,62.62 15.54,18.97 35,29.03 58.38,30.33 23.38,1.28 47.3,-8.08 71.75,-28.22 15.49,-12.72 26.84,-26.4 34.12,-41.15 7.22,-14.69 9.92,-29.71 7.98,-45.01 -1.95,-15.28 -8.02,-29.19 -18.31,-41.75 -14.68,-17.82 -33.39,-28.14 -56.15,-30.92 -22.81,-2.78 -48.5,7.57 -77.13,31.1z"/>
  <polygon id="_14" class="fil2 str15" points="16966.25,8973.45 17133.99,8835.62 17082.55,8773 17105,8754.53 17228.77,8905.25 17206.38,8923.72 17154.65,8860.82 16986.98,8998.59 "/>
  <path id="_15" class="fil2 str15" d="M17249.75 8931.95l20.67 25.13 -83.3 68.43c9.49,11.47 18.34,17.74 26.65,18.75 8.26,0.99 23.88,-1.81 46.78,-8.48 16.78,-4.93 29.15,-7.84 37.1,-8.61 7.96,-0.83 16.27,0.46 24.99,3.92 8.67,3.41 16.13,8.95 22.41,16.55 7.94,9.71 12.02,14.85 12.31,15.54l-21.83 17.9c-0.69,-0.86 -2.01,-2.58 -4.02,-5.14 -2.2,-2.86 -3.52,-4.58 -4.04,-5.21 -6.56,-7.99 -13.45,-12.38 -20.5,-13.1 -7.16,-0.78 -19.19,1.5 -36.13,6.83 -21.35,6.84 -35.9,9.75 -43.75,8.81 -7.8,-0.95 -15.48,-3.49 -23.05,-7.59 6.75,15.1 5.33,36.48 -4.13,64.25l-31.14 91.21 -25.67 -31.25 25.53 -74.23c7.08,-20.42 10.87,-35.79 11.35,-46.05 0.49,-10.26 -3.11,-20.05 -10.76,-29.36l-89.01 73.08 -20.66 -25.12 190.19 -156.24z"/>
  <path id="_16" class="fil2 str15" d="M17387.38 9100.61l97.83 119.06 -190.13 156.24 -20.66 -25.13 167.68 -137.83 -56.46 -68.73 -97.92 80.46c-19.94,16.34 -35.26,27.39 -46.01,33.1 -10.8,5.78 -21.23,7.75 -31.26,6.02 -10.03,-1.74 -18.82,-7.21 -26.36,-16.34 -4.54,-5.55 -8.98,-13.04 -13.32,-22.54l25.85 -14.07c1.68,5.55 3.7,9.85 6.12,12.76 4.71,5.71 10.34,8.27 16.98,7.56 6.64,-0.65 17.91,-7.51 33.79,-20.57l133.86 -109.97z"/>
  <polygon id="_17" class="fil2 str15" points="17331.41,9421.41 17358.03,9399.6 17379.9,9426.16 17353.27,9448.03 "/>
  <polygon class="fil8" points="17520.99,7846.27 17643.85,7995.84 17453.72,8152.07 17432.88,8126.77 17600.62,7989 17519.18,7889.87 17351.51,8027.7 17330.79,8002.5 "/>
  <polygon id="_1_50" class="fil8" points="17677.29,8037.95 17696.06,8060.73 17545.46,8184.46 17779.15,8161.91 17799.93,8187.22 17609.79,8343.46 17591.03,8320.61 17741.24,8197.23 17507.76,8219.31 17487.11,8194.18 "/>
  <polygon id="_2_51" class="fil8" points="17682.72,8433.67 17850.47,8295.84 17799.02,8233.23 17821.46,8214.75 17945.25,8365.47 17922.86,8383.95 17871.12,8321.04 17703.44,8458.8 "/>
  <path id="_3_52" class="fil8" d="M17751.34 8518.26l250.22 -83.16 22.26 27.07 -126.25 234.06 -23.54 -28.63 39.35 -69.52 -65.32 -79.54 -74.74 26.45 -21.99 -26.74zm123.21 -9.27l52.95 64.45 36.39 -63.09c10.98,-19.18 20.44,-34.51 28.31,-45.88 -14.18,7.61 -29.13,14.14 -44.74,19.58l-72.92 24.95z"/>
  <polygon id="_4_53" class="fil8" points="17914.11,8717.6 18104.25,8561.37 18124.97,8586.56 18046.87,8650.73 18128.06,8749.56 18206.16,8685.4 18226.83,8710.6 18036.63,8866.76 18015.97,8841.64 18105.61,8767.98 18024.42,8669.14 17934.77,8742.8 "/>
  <polygon id="_5_54" class="fil8" points="18260.88,8753.41 18279.64,8776.2 18129.05,8899.92 18362.75,8877.38 18383.51,8902.69 18193.39,9058.93 18174.62,9036.08 18324.82,8912.7 18091.36,8934.78 18070.7,8909.65 "/>
  <polygon id="_6_55" class="fil8" points="18227.01,9101.26 18417.19,8945.03 18530.16,9082.54 18507.71,9100.95 18415.4,8988.63 18357.19,9036.45 18443.57,9141.69 18421.28,9159.99 18334.85,9054.81 18270.11,9107.99 18366.05,9224.71 18343.59,9243.17 "/>
  <polygon id="_7_56" class="fil2 str15" points="17520.99,7846.27 17643.85,7995.84 17453.72,8152.07 17432.88,8126.77 17600.62,7989 17519.18,7889.87 17351.51,8027.7 17330.79,8002.5 "/>
  <polygon id="_8_57" class="fil2 str15" points="17677.29,8037.95 17696.06,8060.73 17545.46,8184.46 17779.15,8161.91 17799.93,8187.22 17609.79,8343.46 17591.03,8320.61 17741.24,8197.23 17507.76,8219.31 17487.11,8194.18 "/>
  <polygon id="_9_58" class="fil2 str15" points="17682.72,8433.67 17850.47,8295.84 17799.02,8233.23 17821.46,8214.75 17945.25,8365.47 17922.86,8383.95 17871.12,8321.04 17703.44,8458.8 "/>
  <path id="_10_59" class="fil2 str15" d="M17751.34 8518.26l250.22 -83.16 22.26 27.07 -126.25 234.06 -23.54 -28.63 39.35 -69.52 -65.32 -79.54 -74.74 26.45 -21.99 -26.74zm123.21 -9.27l52.95 64.45 36.39 -63.09c10.98,-19.18 20.44,-34.51 28.31,-45.88 -14.18,7.61 -29.13,14.14 -44.74,19.58l-72.92 24.95z"/>
  <polygon id="_11_60" class="fil2 str15" points="17914.11,8717.6 18104.25,8561.37 18124.97,8586.56 18046.87,8650.73 18128.06,8749.56 18206.16,8685.4 18226.83,8710.6 18036.63,8866.76 18015.97,8841.64 18105.61,8767.98 18024.42,8669.14 17934.77,8742.8 "/>
  <polygon id="_12_61" class="fil2 str15" points="18260.88,8753.41 18279.64,8776.2 18129.05,8899.92 18362.75,8877.38 18383.51,8902.69 18193.39,9058.93 18174.62,9036.08 18324.82,8912.7 18091.36,8934.78 18070.7,8909.65 "/>
  <polygon id="_13_62" class="fil2 str15" points="18227.01,9101.26 18417.19,8945.03 18530.16,9082.54 18507.71,9100.95 18415.4,8988.63 18357.19,9036.45 18443.57,9141.69 18421.28,9159.99 18334.85,9054.81 18270.11,9107.99 18366.05,9224.71 18343.59,9243.17 "/>
 </g>
</svg>
