<?xml version="1.0" encoding="UTF-8"?>
<!DOCTYPE svg PUBLIC "-//W3C//DTD SVG 1.1//EN" "http://www.w3.org/Graphics/SVG/1.1/DTD/svg11.dtd">
<!-- Creator: CorelDRAW -->
<svg xmlns="http://www.w3.org/2000/svg" xml:space="preserve" width="159.349mm" height="195.801mm" version="1.1" style="shape-rendering:geometricPrecision; text-rendering:geometricPrecision; image-rendering:optimizeQuality; fill-rule:evenodd; clip-rule:evenodd"
viewBox="0 0 15321.87 18826.8"
 xmlns:xlink="http://www.w3.org/1999/xlink"
 xmlns:xodm="http://www.corel.com/coreldraw/odm/2003">
 <defs>
  <style type="text/css">
   <![CDATA[
    .str10 {stroke:#2B2A29;stroke-width:72.11;stroke-miterlimit:22.9256}
    .str1 {stroke:#B08D45;stroke-width:72.11;stroke-miterlimit:22.9256}
    .str4 {stroke:#2B2A29;stroke-width:48.08;stroke-miterlimit:22.9256}
    .str3 {stroke:#B08D45;stroke-width:48.08;stroke-miterlimit:22.9256}
    .str5 {stroke:#2B2A29;stroke-width:24.04;stroke-miterlimit:22.9256}
    .str7 {stroke:#2B2A29;stroke-width:19.23;stroke-miterlimit:22.9256}
    .str6 {stroke:#2B2A29;stroke-width:19.23;stroke-miterlimit:22.9256}
    .str0 {stroke:#E31E24;stroke-width:19.23;stroke-miterlimit:22.9256}
    .str2 {stroke:#2B2A29;stroke-width:7.33;stroke-miterlimit:22.9256}
    .str8 {stroke:#B08D45;stroke-width:7.33;stroke-miterlimit:22.9256}
    .str9 {stroke:#2B2A29;stroke-width:48.08;stroke-linecap:square;stroke-miterlimit:22.9256}
    .fil1 {fill:none}
    .fil7 {fill:none;fill-rule:nonzero}
    .fil0 {fill:#2B2A29}
    .fil6 {fill:#2B2A29}
    .fil4 {fill:#E31E24}
    .fil2 {fill:#4F7E07}
    .fil3 {fill:#ECECE7}
    .fil5 {fill:#2B2A29;fill-rule:nonzero}
    .fil8 {fill:#B08D45;fill-rule:nonzero}
   ]]>
  </style>
 </defs>
 <g id="Слой_x0020_1">
  <metadata id="CorelCorpID_0Corel-Layer"/>
  <path class="fil0 str0" d="M15312.25 8092.16c-6919.58,1594.6 -8731.47,-1932.37 -15302.64,-2142.41 0,-1658.87 0,-3416.75 0,-5479.57 2606.46,-377.57 5096.26,-460.56 7651.32,-460.56 2555.06,0 5044.86,181.01 7651.32,460.56 0,2541.25 0,5080.73 0,7621.98z"/>
  <rect class="fil1 str1" x="670.18" y="1365.16" width="13952.84" height="4216.66" rx="252.02" ry="259.61"/>
  <rect class="fil2" x="1125.78" y="2229.94" width="13010.71" height="2938.27" rx="150.93" ry="153.84"/>
  <path class="fil3 str2" d="M9.62 5949.75c6571.17,210.04 8383.06,3737.01 15302.64,2142.41 0,3558.99 0,6529.01 0,10088 -5821.14,2010.86 -7458.39,-1254.67 -15302.64,-2078.08 0,-4037.42 0,-6905.55 0,-10152.33z"/>
  <path class="fil4" d="M8786.45 7261.42l125.59 0c36.57,0 68.04,13.94 92.6,41.03l325.17 358.53c5.25,5.79 6.53,13.67 3.36,20.82 -3.17,7.14 -9.86,11.49 -17.67,11.49l-146.22 0c-37.99,0 -70.69,-15.12 -95.28,-44.09l-302.28 -355.95c-4.99,-5.87 -6.05,-13.63 -2.81,-20.62 3.24,-7 9.83,-11.21 17.54,-11.21z"/>
  <path class="fil1 str3" d="M7377.58 5794.95l378.18 0c77.07,0 143.4,29.89 194.46,87.62l1649.38 1864.87c15.37,17.38 18.91,40.76 9.38,61.92 -9.54,21.16 -29.39,33.99 -52.61,33.99l-395.09 0c-78.7,0 -146.44,-31.26 -197.52,-91.13l-1615.44 -1893.85c-9.96,-11.68 -12.1,-27.12 -5.66,-41.07 6.43,-13.94 19.57,-22.36 34.92,-22.36z"/>
  <path class="fil4" d="M9737.06 7261.42l125.59 0c36.57,0 68.04,13.94 92.6,41.03l325.17 358.53c5.25,5.79 6.53,13.67 3.36,20.82 -3.17,7.14 -9.86,11.49 -17.67,11.49l-146.22 0c-37.99,0 -70.69,-15.12 -95.28,-44.09l-302.28 -355.95c-4.99,-5.87 -6.05,-13.63 -2.81,-20.62 3.24,-7 9.83,-11.21 17.54,-11.21z"/>
  <path class="fil1 str3" d="M8328.19 5794.95l378.18 0c77.07,0 143.4,29.89 194.46,87.62l1649.38 1864.87c15.37,17.38 18.91,40.76 9.38,61.92 -9.54,21.16 -29.39,33.99 -52.61,33.99l-395.09 0c-78.7,0 -146.44,-31.26 -197.52,-91.13l-1615.44 -1893.85c-9.96,-11.68 -12.1,-27.12 -5.66,-41.07 6.43,-13.94 19.57,-22.36 34.92,-22.36z"/>
  <path class="fil4" d="M10636.26 7261.42l125.59 0c36.57,0 68.04,13.94 92.6,41.03l325.17 358.53c5.25,5.79 6.53,13.67 3.36,20.82 -3.17,7.14 -9.86,11.49 -17.67,11.49l-146.22 0c-37.99,0 -70.69,-15.12 -95.28,-44.09l-302.28 -355.95c-4.99,-5.87 -6.05,-13.63 -2.81,-20.62 3.24,-7 9.83,-11.21 17.54,-11.21z"/>
  <path class="fil1 str3" d="M9227.39 5794.95l378.18 0c77.07,0 143.4,29.89 194.46,87.62l1649.38 1864.87c15.37,17.38 18.91,40.76 9.38,61.92 -9.54,21.16 -29.39,33.99 -52.61,33.99l-395.09 0c-78.7,0 -146.44,-31.26 -197.52,-91.13l-1615.44 -1893.85c-9.96,-11.68 -12.1,-27.12 -5.66,-41.07 6.43,-13.94 19.57,-22.36 34.92,-22.36z"/>
  <path class="fil4" d="M11573.17 7261.42l125.59 0c36.57,0 68.04,13.94 92.6,41.03l325.17 358.53c5.25,5.79 6.53,13.67 3.36,20.82 -3.17,7.14 -9.86,11.49 -17.67,11.49l-146.22 0c-37.99,0 -70.69,-15.12 -95.28,-44.09l-302.28 -355.95c-4.99,-5.87 -6.05,-13.63 -2.81,-20.62 3.24,-7 9.83,-11.21 17.54,-11.21z"/>
  <path class="fil1 str3" d="M10164.3 5794.95l378.18 0c77.07,0 143.4,29.89 194.46,87.62l1649.38 1864.87c15.37,17.38 18.91,40.76 9.38,61.92 -9.54,21.16 -29.39,33.99 -52.61,33.99l-395.09 0c-78.7,0 -146.44,-31.26 -197.52,-91.13l-1615.44 -1893.85c-9.96,-11.68 -12.1,-27.12 -5.66,-41.07 6.43,-13.94 19.57,-22.36 34.92,-22.36z"/>
  <path class="fil4" d="M12494.02 7261.42l125.59 0c36.57,0 68.04,13.94 92.6,41.03l325.17 358.53c5.25,5.79 6.53,13.67 3.36,20.82 -3.17,7.14 -9.86,11.49 -17.67,11.49l-146.22 0c-37.99,0 -70.69,-15.12 -95.28,-44.09l-302.28 -355.95c-4.99,-5.87 -6.05,-13.63 -2.81,-20.62 3.24,-7 9.83,-11.21 17.54,-11.21z"/>
  <path class="fil1 str3" d="M11085.15 5794.95l378.18 0c77.07,0 143.4,29.89 194.46,87.62l1649.38 1864.87c15.37,17.38 18.91,40.76 9.38,61.92 -9.54,21.16 -29.39,33.99 -52.61,33.99l-395.09 0c-78.7,0 -146.44,-31.26 -197.52,-91.13l-1615.44 -1893.85c-9.96,-11.68 -12.1,-27.12 -5.66,-41.07 6.43,-13.94 19.57,-22.36 34.92,-22.36z"/>
  <path class="fil4" d="M13388.1 7261.42l125.59 0c36.57,0 68.04,13.94 92.6,41.03l325.17 358.53c5.25,5.79 6.53,13.67 3.36,20.82 -3.17,7.14 -9.86,11.49 -17.67,11.49l-146.22 0c-37.99,0 -70.69,-15.12 -95.28,-44.09l-302.28 -355.95c-4.99,-5.87 -6.05,-13.63 -2.81,-20.62 3.24,-7 9.83,-11.21 17.54,-11.21z"/>
  <path class="fil1 str3" d="M11979.23 5794.95l378.18 0c77.07,0 143.4,29.89 194.46,87.62l1649.38 1864.87c15.37,17.38 18.91,40.76 9.38,61.92 -9.54,21.16 -29.39,33.99 -52.61,33.99l-395.09 0c-78.7,0 -146.44,-31.26 -197.52,-91.13l-1615.44 -1893.85c-9.96,-11.68 -12.1,-27.12 -5.66,-41.07 6.43,-13.94 19.57,-22.36 34.92,-22.36z"/>
  <path class="fil4" d="M14298.25 7261.42l125.59 0c36.57,0 68.04,13.94 92.6,41.03l325.17 358.53c5.25,5.79 6.53,13.67 3.36,20.82 -3.17,7.14 -9.86,11.49 -17.67,11.49l-146.22 0c-37.99,0 -70.69,-15.12 -95.28,-44.09l-302.28 -355.95c-4.99,-5.87 -6.05,-13.63 -2.81,-20.62 3.24,-7 9.83,-11.21 17.54,-11.21z"/>
  <path class="fil1 str3" d="M12889.38 5794.95l378.18 0c77.07,0 143.4,29.89 194.46,87.62l1649.38 1864.87c15.37,17.38 18.91,40.76 9.38,61.92 -9.54,21.16 -29.39,33.99 -52.61,33.99l-395.09 0c-78.7,0 -146.44,-31.26 -197.52,-91.13l-1615.44 -1893.85c-9.96,-11.68 -12.1,-27.12 -5.66,-41.07 6.43,-13.94 19.57,-22.36 34.92,-22.36z"/>
  <path class="fil1 str2" d="M5889.96 17362.84c0,-3206.02 0,-6412.04 0,-9618.07 3207.39,1564.9 6346.55,1884.86 9422.29,1046.93"/>
  <path class="fil1 str4" d="M8698.46 10238.56l1364.79 -67.98c33.75,-1.68 63.54,12.74 83.15,40.26 19.62,27.51 23.55,60.37 10.96,91.73l-202.12 503.58c-46.11,114.88 -170.4,175.69 -289.41,141.59l-1013.53 -290.41c-88,-25.21 -144.96,-106.14 -139,-197.49l2.72 -41.65c6.39,-98.01 84.34,-174.75 182.43,-179.63z"/>
  <path class="fil1 str4" d="M11423.84 17033.73l-569.95 0c-75.94,0 -140.48,-46.61 -164.37,-118.69l-189.36 -571.31c-17.06,-51.47 -9.1,-103.25 22.64,-147.2 31.74,-43.96 78.38,-67.82 132.6,-67.82l1007.4 0c56.01,0 104.17,25.59 135.53,71.99 31.35,46.41 37.11,100.64 16.21,152.6l-230.05 571.88c-26.93,66.94 -88.51,108.55 -160.66,108.55z"/>
  <path class="fil1 str4" d="M9025.21 16404.55l384.03 413.12m-373.44 -0.78l369.28 -369.29"/>
  <path class="fil1 str4" d="M8663.62 16067.7l989.94 0c105,0 193.41,71.02 216.05,173.56l188.78 855.16c13.37,60.57 -4.3,119.04 -48.97,162.06 -44.67,43.03 -103.77,58.48 -163.79,42.85l-1214.1 -316.33c-124.46,-32.43 -208.38,-141.24 -208.38,-269.86l0 -406.95c0,-132.45 108.03,-240.48 240.48,-240.48z"/>
  <path class="fil1 str4" d="M13555.26 16067.7l-989.94 0c-105,0 -193.41,71.02 -216.05,173.56l-188.78 855.16c-13.37,60.57 4.3,119.04 48.97,162.06 44.67,43.03 103.77,58.48 163.79,42.85l1214.1 -316.33c124.46,-32.43 208.38,-141.24 208.38,-269.86l0 -406.95c0,-132.45 -108.03,-240.48 -240.48,-240.48z"/>
  <path class="fil1 str4" d="M6913.43 10581.5l892.37 283.42c85.29,27.09 140.86,103.06 140.86,192.54l0 754.9c0,41.99 -20.57,78.05 -56.71,99.41 -36.14,21.37 -77.65,22 -114.44,1.76l-863.09 -474.96c-94.64,-52.09 -149.43,-144.78 -149.43,-252.8l0 -494.2c0,-38.03 16.6,-70.75 47.29,-93.2 30.69,-22.45 66.9,-28.37 103.14,-16.87z"/>
  <path class="fil1 str4" d="M6913.43 9028.22l892.37 283.42c85.29,27.09 140.86,103.06 140.86,192.54l0 754.9c0,41.99 -20.57,78.05 -56.71,99.41 -36.14,21.37 -77.65,22 -114.44,1.76l-863.09 -474.96c-94.64,-52.09 -149.43,-144.78 -149.43,-252.8l0 -494.2c0,-38.03 16.6,-70.75 47.29,-93.2 30.69,-22.45 66.9,-28.37 103.14,-16.87z"/>
  <path class="fil1 str4" d="M6913.43 12134.55l892.37 283.42c85.29,27.09 140.86,103.06 140.86,192.54l0 754.9c0,41.99 -20.57,78.05 -56.71,99.41 -36.14,21.37 -77.65,22 -114.44,1.76l-863.09 -474.96c-94.64,-52.09 -149.43,-144.78 -149.43,-252.8l0 -494.2c0,-38.03 16.6,-70.75 47.29,-93.2 30.69,-22.45 66.9,-28.37 103.14,-16.87z"/>
  <path class="fil1 str4" d="M6913.43 13692.28l892.37 283.42c85.29,27.09 140.86,103.06 140.86,192.54l0 754.9c0,41.99 -20.57,78.05 -56.71,99.41 -36.14,21.37 -77.65,22 -114.44,1.76l-863.09 -474.96c-94.64,-52.09 -149.43,-144.78 -149.43,-252.8l0 -494.2c0,-38.03 16.6,-70.75 47.29,-93.2 30.69,-22.45 66.9,-28.37 103.14,-16.87z"/>
  <path class="fil1 str4" d="M6913.43 15271.12l892.37 283.42c85.29,27.09 140.86,103.06 140.86,192.54l0 754.9c0,41.99 -20.57,78.05 -56.71,99.41 -36.14,21.37 -77.65,22 -114.44,1.76l-863.09 -474.96c-94.64,-52.09 -149.43,-144.78 -149.43,-252.8l0 -494.2c0,-38.03 16.6,-70.75 47.29,-93.2 30.69,-22.45 66.9,-28.37 103.14,-16.87z"/>
  <path class="fil1 str5" d="M7243.44 15903.75l86.12 28 -46.19 142.1 -86.12 -28 46.19 -142.1zm-200.21 -160.32l568.39 184.79 -231 -256.03 -337.39 71.24zm77.49 25.19l413.4 134.39 -74.2 228.23 -413.39 -134.38 74.19 -228.24z"/>
  <polygon class="fil5" points="7017.12,12442.57 7190.58,12518.06 7095.69,12736.17 7051.66,12717 7130.62,12535.52 7045.28,12498.35 6966.32,12679.83 6922.23,12660.66 "/>
  <path id="_1" class="fil5" d="M7214 12526.86l49.23 21.46 1.64 135.3 92.65 -94.27 45.97 20.01 -145.72 133.69c-15.84,14.39 -29.95,24.53 -42.37,30.25 -12.43,5.77 -25.24,5.78 -38.39,0.02 -13.01,-5.63 -22.79,-10.88 -29.42,-15.79l14.26 -32.74c6.08,3.12 11.66,5.81 16.69,7.99 10.24,4.46 18.32,5.77 24.37,3.96 6.04,-1.81 13.77,-7.98 23.17,-18.47l-12.08 -191.41z"/>
  <path id="_2" class="fil5" d="M7505.72 12816.62l36.77 32.15c-16.86,20.95 -35.47,33.89 -55.7,38.8 -20.25,4.92 -42.07,2.29 -65.52,-7.88 -28.93,-12.58 -48.41,-32.82 -58.44,-60.72 -10.04,-27.91 -7.59,-59.03 7.33,-93.33 15.76,-36.28 37.4,-60.41 64.93,-72.34 27.46,-11.91 56.5,-11.26 87.03,2.05 26.65,11.62 44.87,28.93 54.7,51.95 5.87,13.6 7.48,30.22 4.86,49.87l-48.16 -8.6c2.37,-12.4 0.87,-23.65 -4.48,-33.75 -5.33,-10.11 -13.84,-17.73 -25.56,-22.82 -16.15,-7.05 -31.78,-6.94 -46.93,0.27 -15.09,7.25 -28.29,23.83 -39.58,49.82 -12.01,27.55 -15.58,49.36 -10.77,65.39 4.82,16.04 15.18,27.48 31.01,34.35 11.73,5.1 23.41,5.8 35.06,2.03 11.71,-3.78 22.82,-12.88 33.46,-27.25z"/>
  <path id="_3" class="fil5" d="M7647.53 12713l44.02 19.12 -40.39 92.86c10.29,3.25 18.04,3.62 23.26,1.08 5.22,-2.58 15.5,-11.58 30.8,-26.91 19.4,-19.65 34.95,-30.34 46.71,-32.07 11.63,-1.79 27.58,1.7 47.94,10.6 0.99,0.39 3.14,1.29 6.46,2.62l-14.19 32.58 -6.19 -2.86c-9.02,-3.96 -16.1,-5.71 -21.25,-5.28 -5.11,0.42 -9.99,2.35 -14.54,5.76 -4.56,3.48 -12.45,11.2 -23.69,23.18 -5.95,6.36 -11.57,11.37 -16.9,15.06 -5.33,3.75 -12.92,6.1 -22.79,7.12 8.62,7.01 14.29,16.17 17.02,27.37 2.72,11.2 4.55,26.16 5.48,44.84l3.71 72.76 -51.71 -22.52 -1.52 -67.71c-0.06,-1 -0.21,-2.88 -0.54,-5.71 -0.15,-0.99 -0.48,-5.26 -1.06,-12.68 -0.95,-13.14 -2.69,-21.84 -5.16,-26.12 -2.42,-4.28 -7.35,-8.07 -14.75,-11.36l-41.58 95.46 -44.03 -19.16 94.89 -218.04z"/>
  <path class="fil5" d="M6994.69 11005.56l33.79 29.54c-15.5,19.22 -32.59,31.12 -51.17,35.62 -18.59,4.51 -38.63,2.1 -60.16,-7.25 -26.58,-11.55 -44.46,-30.13 -53.67,-55.77 -9.22,-25.62 -6.97,-54.21 6.72,-85.71 14.48,-33.32 34.36,-55.48 59.63,-66.43 25.23,-10.93 51.88,-10.33 79.93,1.88 24.48,10.68 41.21,26.56 50.24,47.72 5.39,12.48 6.87,27.75 4.46,45.8l-44.24 -7.89c2.18,-11.38 0.79,-21.73 -4.11,-31 -4.9,-9.28 -12.71,-16.29 -23.48,-20.95 -14.83,-6.47 -29.18,-6.37 -43.11,0.24 -13.87,6.66 -25.98,21.88 -36.35,45.76 -11.03,25.3 -14.32,45.34 -9.88,60.06 4.42,14.72 13.94,25.23 28.47,31.55 10.77,4.67 21.5,5.33 32.2,1.86 10.76,-3.47 20.96,-11.83 30.72,-25.02z"/>
  <path id="_1_0" class="fil5" d="M7125.08 10910.45l149.7 65.12 -14.57 33.63 -109.32 -47.58 -20.23 46.48 54.1 23.51c14.94,6.52 26.57,13.73 34.78,21.64 8.27,7.92 13.72,18.32 16.42,31.21 2.69,12.83 1.17,25.9 -4.58,39.11 -5.9,13.57 -14.49,23.65 -25.66,30.23 -11.21,6.62 -22.12,9.73 -32.6,9.39 -10.54,-0.35 -24.1,-4.16 -40.66,-11.36l-94.54 -41.11 87.15 -200.3zm-32.09 184.28l39.32 17.09c12.6,5.49 21.69,8.73 27.34,9.72 5.64,0.99 11.3,0.09 16.96,-2.63 5.71,-2.73 9.94,-7.3 12.72,-13.63 4,-9.31 3.67,-17.5 -1.09,-24.59 -4.8,-7.14 -15.11,-14.14 -31.06,-21.08l-41.14 -17.91 -23.05 53.04z"/>
  <path id="_2_1" class="fil5" d="M7238.8 11196.9l87.14 -200.32 64.87 28.24c24.58,10.67 40.17,18.67 46.78,23.94 10.19,7.97 16.97,18.68 20.33,32.12 3.37,13.45 1.57,28.14 -5.36,44.04 -5.38,12.35 -12.09,21.68 -20.21,28.12 -8.11,6.43 -16.62,10.58 -25.58,12.37 -8.96,1.74 -17.37,1.87 -25.14,0.36 -10.47,-2.27 -24.86,-7.41 -43.18,-15.37l-26.37 -11.5 -32.85 75.55 -40.43 -17.55zm112.8 -148.82l-24.68 56.85 22.1 9.59c15.95,6.93 27.08,10.54 33.35,10.77 6.3,0.27 11.96,-1.18 16.95,-4.32 4.94,-3.13 8.73,-7.64 11.35,-13.6 3.13,-7.26 3.62,-14.23 1.4,-20.86 -2.21,-6.57 -6.37,-11.87 -12.4,-15.92 -4.42,-3.01 -13.91,-7.68 -28.49,-14.05l-19.57 -8.46z"/>
  <path id="_3_2" class="fil5" d="M7457.07 11173.07c8.88,-20.42 19.37,-36.21 31.53,-47.4 8.98,-8.2 19.18,-14.62 30.6,-19.32 11.37,-4.7 22.62,-6.94 33.71,-6.8 14.76,0.15 30.32,3.78 46.62,10.87 29.51,12.84 49.13,32.29 58.9,58.27 9.72,26.04 7.52,55.35 -6.69,87.95 -14.07,32.31 -33.84,53.81 -59.36,64.4 -25.53,10.63 -53.01,9.51 -82.42,-3.26 -29.77,-12.94 -49.48,-32.35 -59.15,-58.19 -9.73,-25.77 -7.59,-54.67 6.27,-86.52zm42.28 16.75c-9.86,22.7 -12.12,42.18 -6.74,58.43 5.38,16.26 16.13,27.89 32.23,34.93 16.16,6.98 31.88,6.93 47.27,-0.18 15.4,-7.12 28.17,-22.29 38.24,-45.5 10,-22.96 12.42,-42.29 7.29,-57.92 -5.18,-15.69 -16.09,-27.12 -32.74,-34.42 -16.66,-7.23 -32.59,-7.35 -47.78,-0.37 -15.14,7.01 -27.77,22.03 -37.77,45.04z"/>
  <path id="_4" class="fil5" d="M7800.66 11351.25l33.79 29.54c-15.5,19.23 -32.59,31.12 -51.17,35.63 -18.59,4.5 -38.63,2.09 -60.16,-7.25 -26.58,-11.56 -44.46,-30.14 -53.67,-55.77 -9.22,-25.62 -6.97,-54.21 6.72,-85.71 14.48,-33.32 34.36,-55.48 59.63,-66.43 25.23,-10.94 51.88,-10.34 79.93,1.88 24.48,10.67 41.21,26.56 50.24,47.71 5.39,12.49 6.87,27.75 4.46,45.81l-44.24 -7.89c2.18,-11.39 0.79,-21.73 -4.11,-31.01 -4.9,-9.28 -12.71,-16.28 -23.48,-20.95 -14.84,-6.46 -29.18,-6.37 -43.11,0.24 -13.87,6.67 -25.98,21.89 -36.35,45.77 -11.03,25.3 -14.32,45.33 -9.88,60.06 4.42,14.71 13.94,25.23 28.47,31.55 10.77,4.67 21.5,5.32 32.2,1.86 10.75,-3.48 20.96,-11.84 30.72,-25.03z"/>
  <path class="fil5" d="M7054.74 14212.09l36.78 32.15c-16.87,20.94 -35.47,33.88 -55.71,38.8 -20.25,4.91 -42.07,2.29 -65.51,-7.88 -28.93,-12.58 -48.42,-32.82 -58.45,-60.72 -10.04,-27.91 -7.59,-59.04 7.33,-93.33 15.76,-36.28 37.4,-60.41 64.94,-72.34 27.46,-11.91 56.49,-11.26 87.03,2.05 26.65,11.62 44.87,28.92 54.69,51.95 5.88,13.6 7.48,30.22 4.87,49.87l-48.17 -8.6c2.37,-12.4 0.87,-23.65 -4.47,-33.76 -5.34,-10.1 -13.84,-17.72 -25.56,-22.81 -16.16,-7.05 -31.79,-6.94 -46.94,0.27 -15.09,7.25 -28.29,23.83 -39.57,49.82 -12.02,27.55 -15.59,49.36 -10.78,65.39 4.82,16.03 15.18,27.48 31.01,34.35 11.73,5.1 23.42,5.8 35.06,2.03 11.71,-3.78 22.83,-12.88 33.46,-27.25z"/>
  <polygon id="_1_3" class="fil5" points="7142.4,14344.32 7221.26,14163.12 7156.55,14134.96 7172.58,14098.07 7345.87,14173.46 7329.83,14210.4 7265.29,14182.29 7186.43,14363.5 "/>
  <path id="_2_4" class="fil5" d="M7310.28 14288.16c9.67,-22.24 21.1,-39.43 34.32,-51.62 9.79,-8.93 20.89,-15.93 33.33,-21.04 12.37,-5.11 24.62,-7.55 36.7,-7.39 16.07,0.16 33.01,4.12 50.76,11.83 32.13,13.97 53.5,35.16 64.14,63.46 10.59,28.34 8.18,60.25 -7.29,95.75 -15.31,35.18 -36.85,58.6 -64.63,70.12 -27.81,11.59 -57.72,10.37 -89.75,-3.55 -32.41,-14.1 -53.88,-35.22 -64.41,-63.35 -10.59,-28.08 -8.25,-59.54 6.84,-94.21zm46.03 18.23c-10.73,24.72 -13.19,45.93 -7.33,63.63 5.86,17.69 17.55,30.37 35.09,38.02 17.6,7.61 34.71,7.56 51.47,-0.19 16.76,-7.74 30.67,-24.26 41.62,-49.54 10.9,-25 13.52,-46.04 7.94,-63.08 -5.64,-17.09 -17.51,-29.54 -35.65,-37.47 -18.14,-7.88 -35.48,-8.01 -52.02,-0.42 -16.48,7.64 -30.23,23.99 -41.12,49.05z"/>
  <polygon id="_3_5" class="fil5" points="7605.42,14283.8 7778.88,14359.3 7683.99,14577.41 7639.96,14558.23 7718.92,14376.75 7633.58,14339.59 7554.62,14521.07 7510.53,14501.9 "/>
  <path class="fil1 str4" d="M10894.44 10166.17l569.95 0c75.94,0 140.48,46.61 164.37,118.69l189.36 571.31c17.06,51.47 9.1,103.25 -22.64,147.2 -31.74,43.96 -78.38,67.82 -132.6,67.82l-1007.4 0c-56.01,0 -104.17,-25.59 -135.53,-71.99 -31.35,-46.41 -37.11,-100.64 -16.21,-152.6l230.05 -571.88c26.93,-66.94 88.51,-108.55 160.66,-108.55z"/>
  <rect class="fil6 str6" x="10890.08" y="10594.12" width="413.64" height="103.41"/>
  <rect class="fil1 str5" x="10890.08" y="10407.98" width="413.64" height="103.41"/>
  <path class="fil7 str5" d="M11545.67 10510.76l-104.71 0 0 49.11 -104.7 -98.24 104.7 -98.24 0 49.11 104.71 0 0 98.25zm-52.36 0m-52.36 24.56m-52.36 -24.57m0 -98.24m52.36 -24.56m52.36 24.56m52.36 49.12"/>
  <polygon class="fil0 str7" points="9703.49,10352.07 9703.49,10622.83 9220.35,10487.45 "/>
  <path class="fil1 str4" d="M13634.94 10238.56l-1364.79 -67.98c-33.75,-1.68 -63.54,12.74 -83.15,40.26 -19.62,27.51 -23.55,60.37 -10.96,91.73l202.12 503.58c46.11,114.88 170.4,175.69 289.41,141.59l1013.53 -290.41c88,-25.21 144.96,-106.14 139,-197.49l-2.72 -41.65c-6.39,-98.01 -84.34,-174.75 -182.43,-179.63z"/>
  <polygon class="fil0 str7" points="12629.91,10352.07 12629.91,10622.83 13113.05,10487.45 "/>
  <polygon class="fil8" points="7768.37,5895.71 7879.49,6026.85 7712.73,6168.15 7693.92,6145.97 7841.01,6021.32 7767.37,5934.44 7620.3,6059.04 7601.6,6037.01 "/>
  <path id="_1_6" class="fil8" d="M7818.51 6128.9c27.65,-23.44 55.65,-34.37 83.89,-32.78 28.25,1.6 52.36,14.14 72.28,37.69 13.01,15.37 21.11,32.35 24.22,50.95 3.11,18.57 0.83,36.69 -6.82,54.32 -7.67,17.62 -19.84,33.54 -36.53,47.68 -16.89,14.31 -34.93,23.72 -54.05,28.2 -19.12,4.48 -37.44,3.37 -54.91,-3.34 -17.43,-6.66 -32.32,-17.25 -44.58,-31.77 -13.33,-15.68 -21.42,-32.9 -24.27,-51.73 -2.91,-18.76 -0.47,-36.87 7.21,-54.41 7.72,-17.47 18.92,-32.41 33.55,-44.82zm18.94 23.04c-20.1,17.06 -31.34,35.86 -33.76,56.48 -2.43,20.57 3.27,39.02 17.12,55.36 14.04,16.6 31.46,25.3 52.22,26.14 20.82,0.86 41.9,-7.86 63.37,-26.04 13.56,-11.49 23.48,-23.84 29.7,-36.98 6.22,-13.15 8.42,-26.54 6.49,-40.06 -1.91,-13.59 -7.5,-25.88 -16.85,-36.85 -13.23,-15.62 -30,-24.53 -50.25,-26.71 -20.26,-2.12 -42.98,7.41 -68.05,28.65z"/>
  <path id="_2_7" class="fil8" d="M8144.08 6340.32l-73.04 61.89c9.2,10.86 17.5,16.58 24.88,17.27 7.43,0.7 21.16,-2.05 41.24,-8.22 14.79,-4.62 25.77,-7.35 32.8,-8.18 7.07,-0.84 14.45,0.26 22.25,3.19 7.74,2.92 14.41,7.68 19.98,14.28 6.12,7.21 9.86,11.73 11.18,13.61l-19.13 16.19c-0.56,-0.66 -1.73,-2.13 -3.52,-4.42 -2,-2.48 -3.22,-4.01 -3.68,-4.51 -5.97,-7.06 -12.09,-10.86 -18.4,-11.39 -6.37,-0.59 -17.04,1.62 -31.98,6.56 -16.16,5.39 -27.9,8.12 -35.29,8.25 -7.37,0.12 -15.37,-1.94 -23.98,-6.23 6.19,13.45 5.24,32.44 -2.93,56.94l-26.36 81.38 -23.14 -27.3 21.63 -66.21c5.7,-17.58 8.87,-31.01 9.49,-40.28 0.63,-9.21 -2.95,-18.46 -10.72,-27.64l-78.05 66.12 -19.14 -22.63 78 -66.12c-6.18,-7.26 -13.53,-12.07 -22.08,-14.38 -8.56,-2.32 -22.3,-1.87 -41.26,1.45l-3.46 0.57 -68.86 10.49 -23.24 -27.4 84.62 -12.67c25.79,-3.9 44.72,-1.67 56.81,6.59 -2.67,-8.08 -3.56,-15.7 -2.72,-22.93 0.85,-7.23 5.6,-19 14.29,-35.36 7.86,-14.87 11.84,-25.27 11.97,-31.27 0.18,-5.95 -2.63,-12.36 -8.36,-19.11l-7.76 -8.68 19.13 -16.18c0.87,0.71 4.54,4.92 11.03,12.59 6.17,7.25 10.02,14.82 11.57,22.71 1.5,7.87 1.32,15.25 -0.63,22.13 -1.92,6.82 -6.41,17.37 -13.45,31.48 -9.56,19.06 -14.49,32.15 -14.93,39.32 -0.43,7.24 3.91,16.33 13,27.39l73.04 -61.89 19.2 22.63z"/>
  <path id="_3_8" class="fil8" d="M8058.15 6577.79l221.06 -77.26 20.12 23.81 -108.91 209.51 -21.35 -25.12 34.06 -62.24 -59.09 -69.73 -66.02 24.47 -19.87 -23.44zm109.27 -9.9l47.9 56.54 31.42 -56.53c9.51,-17.17 17.71,-30.88 24.55,-41.13 -12.5,6.96 -25.65,12.95 -39.47,18.03l-64.4 23.1z"/>
  <path id="_4_9" class="fil8" d="M8205.05 6751.69l166.76 -141.31 53.26 62.93c9.39,11.07 16.04,19.95 19.92,26.7 5.58,9.35 8.82,18.39 9.64,27.19 0.85,8.8 -0.7,17.77 -4.74,26.99 -4.05,9.22 -10.23,17.33 -18.5,24.37 -14.16,11.99 -29.97,17.64 -47.47,16.94 -17.45,-0.72 -36.16,-12.87 -56.13,-36.42l-36.26 -42.78 -67.8 57.45 -18.68 -22.08zm106.17 -52.02l36.51 43.09c12.11,14.26 23.33,22.11 33.71,23.61 10.38,1.49 20.39,-1.85 29.98,-9.96 7.01,-5.92 11.47,-12.76 13.48,-20.49 1.96,-7.75 1.33,-15.17 -2,-22.29 -2.15,-4.52 -7.47,-11.83 -15.94,-21.83l-36.15 -42.63 -59.59 50.51z"/>
  <polygon id="_5" class="fil7 str8" points="7768.37,5895.71 7879.49,6026.85 7712.73,6168.15 7693.92,6145.97 7841.01,6021.32 7767.37,5934.44 7620.3,6059.04 7601.6,6037.01 "/>
  <path id="_6" class="fil7 str8" d="M7818.51 6128.9c27.65,-23.44 55.65,-34.37 83.89,-32.78 28.25,1.6 52.36,14.14 72.28,37.69 13.01,15.37 21.11,32.35 24.22,50.95 3.11,18.57 0.83,36.69 -6.82,54.32 -7.67,17.62 -19.84,33.54 -36.53,47.68 -16.89,14.31 -34.93,23.72 -54.05,28.2 -19.12,4.48 -37.44,3.37 -54.91,-3.34 -17.43,-6.66 -32.32,-17.25 -44.58,-31.77 -13.33,-15.68 -21.42,-32.9 -24.27,-51.73 -2.91,-18.76 -0.47,-36.87 7.21,-54.41 7.72,-17.47 18.92,-32.41 33.55,-44.82zm18.94 23.04c-20.1,17.06 -31.34,35.86 -33.76,56.48 -2.43,20.57 3.27,39.02 17.12,55.36 14.04,16.6 31.46,25.3 52.22,26.14 20.82,0.86 41.9,-7.86 63.37,-26.04 13.56,-11.49 23.48,-23.84 29.7,-36.98 6.22,-13.15 8.42,-26.54 6.49,-40.06 -1.91,-13.59 -7.5,-25.88 -16.85,-36.85 -13.23,-15.62 -30,-24.53 -50.25,-26.71 -20.26,-2.12 -42.98,7.41 -68.05,28.65z"/>
  <path id="_7" class="fil7 str8" d="M8144.08 6340.32l-73.04 61.89c9.2,10.86 17.5,16.58 24.88,17.27 7.43,0.7 21.16,-2.05 41.24,-8.22 14.79,-4.62 25.77,-7.35 32.8,-8.18 7.07,-0.84 14.45,0.26 22.25,3.19 7.74,2.92 14.41,7.68 19.98,14.28 6.12,7.21 9.86,11.73 11.18,13.61l-19.13 16.19c-0.56,-0.66 -1.73,-2.13 -3.52,-4.42 -2,-2.48 -3.22,-4.01 -3.68,-4.51 -5.97,-7.06 -12.09,-10.86 -18.4,-11.39 -6.37,-0.59 -17.04,1.62 -31.98,6.56 -16.16,5.39 -27.9,8.12 -35.29,8.25 -7.37,0.12 -15.37,-1.94 -23.98,-6.23 6.19,13.45 5.24,32.44 -2.93,56.94l-26.36 81.38 -23.14 -27.3 21.63 -66.21c5.7,-17.58 8.87,-31.01 9.49,-40.28 0.63,-9.21 -2.95,-18.46 -10.72,-27.64l-78.05 66.12 -19.14 -22.63 78 -66.12c-6.18,-7.26 -13.53,-12.07 -22.08,-14.38 -8.56,-2.32 -22.3,-1.87 -41.26,1.45l-3.46 0.57 -68.86 10.49 -23.24 -27.4 84.62 -12.67c25.79,-3.9 44.72,-1.67 56.81,6.59 -2.67,-8.08 -3.56,-15.7 -2.72,-22.93 0.85,-7.23 5.6,-19 14.29,-35.36 7.86,-14.87 11.84,-25.27 11.97,-31.27 0.18,-5.95 -2.63,-12.36 -8.36,-19.11l-7.76 -8.68 19.13 -16.18c0.87,0.71 4.54,4.92 11.03,12.59 6.17,7.25 10.02,14.82 11.57,22.71 1.5,7.87 1.32,15.25 -0.63,22.13 -1.92,6.82 -6.41,17.37 -13.45,31.48 -9.56,19.06 -14.49,32.15 -14.93,39.32 -0.43,7.24 3.91,16.33 13,27.39l73.04 -61.89 19.2 22.63z"/>
  <path id="_8" class="fil7 str8" d="M8058.15 6577.79l221.06 -77.26 20.12 23.81 -108.91 209.51 -21.35 -25.12 34.06 -62.24 -59.09 -69.73 -66.02 24.47 -19.87 -23.44zm109.27 -9.9l47.9 56.54 31.42 -56.53c9.51,-17.17 17.71,-30.88 24.55,-41.13 -12.5,6.96 -25.65,12.95 -39.47,18.03l-64.4 23.1z"/>
  <path id="_9" class="fil7 str8" d="M8205.05 6751.69l166.76 -141.31 53.26 62.93c9.39,11.07 16.04,19.95 19.92,26.7 5.58,9.35 8.82,18.39 9.64,27.19 0.85,8.8 -0.7,17.77 -4.74,26.99 -4.05,9.22 -10.23,17.33 -18.5,24.37 -14.16,11.99 -29.97,17.64 -47.47,16.94 -17.45,-0.72 -36.16,-12.87 -56.13,-36.42l-36.26 -42.78 -67.8 57.45 -18.68 -22.08zm106.17 -52.02l36.51 43.09c12.11,14.26 23.33,22.11 33.71,23.61 10.38,1.49 20.39,-1.85 29.98,-9.96 7.01,-5.92 11.47,-12.76 13.48,-20.49 1.96,-7.75 1.33,-15.17 -2,-22.29 -2.15,-4.52 -7.47,-11.83 -15.94,-21.83l-36.15 -42.63 -59.59 50.51z"/>
  <polygon class="fil8" points="8695.07,5895.71 8806.19,6026.85 8639.43,6168.15 8620.63,6145.97 8767.71,6021.32 8694.07,5934.44 8547,6059.04 8528.3,6037.01 "/>
  <path id="_1_10" class="fil8" d="M8822.19 6046.34l18.84 22.28 -56.04 140.91 142.4 -39 18.63 21.96 -182.67 47.33c-22.87,5.92 -38.9,8.51 -48.16,7.72 -9.26,-0.73 -17.82,-5.79 -25.68,-15.12 -4.86,-5.68 -9.41,-13.76 -13.77,-24.28l18.88 -16.04c1.61,8.86 5.18,16.52 10.75,23.12 4.6,5.38 10.26,8.57 16.97,9.57 6.78,0.95 18.31,-1.37 34.58,-7.08l65.27 -171.36z"/>
  <path id="_2_11" class="fil8" d="M8954.07 6422.05l13.11 26.83c-21.99,10.7 -42.9,14.12 -62.61,10.17 -19.7,-3.97 -36.88,-14.65 -51.59,-32.01 -15.21,-17.96 -23.97,-35.69 -26.16,-53.14 -2.24,-17.43 1.11,-35 9.97,-52.63 8.89,-17.63 21.32,-33.19 37.25,-46.72 17.36,-14.71 35.33,-24.23 53.84,-28.51 18.57,-4.34 36.37,-3.21 53.49,3.35 17.07,6.56 31.86,17.2 44.32,31.91 14.14,16.65 21.79,34.29 22.9,52.86 1.18,18.57 -4.06,36.64 -15.65,54.13l-23.56 -17.38c8.86,-14.12 12.93,-27.26 12.24,-39.26 -0.7,-12.07 -5.77,-23.64 -15.17,-34.81 -10.87,-12.85 -23.01,-20.95 -36.45,-24.32 -13.44,-3.42 -26.83,-2.45 -40.13,2.83 -13.26,5.28 -25.45,12.54 -36.41,21.88 -14.22,12 -24.81,24.56 -31.89,37.64 -7.08,13.11 -9.53,26.24 -7.4,39.36 2.17,13.17 7.55,24.86 16.18,35.01 10.46,12.33 22.9,19.78 37.26,22.33 14.4,2.55 29.87,-0.65 46.48,-9.51z"/>
  <path id="_3_12" class="fil8" d="M9104.1 6380.15l18.69 22.07 -73.02 61.89c8.52,10.05 16.47,15.52 23.86,16.26 7.37,0.8 21.21,-1.9 41.44,-8.12 14.85,-4.62 25.77,-7.35 32.85,-8.18 7.07,-0.84 14.45,0.22 22.19,3.14 7.79,2.92 14.47,7.74 20.13,14.43 7.21,8.47 10.94,12.99 11.13,13.61l-19.08 16.18c-0.66,-0.76 -1.88,-2.28 -3.67,-4.52 -1.94,-2.48 -3.16,-4 -3.63,-4.57 -5.97,-7.05 -12.13,-10.8 -18.39,-11.34 -6.36,-0.6 -17.04,1.58 -31.98,6.56 -18.86,6.32 -31.78,9.16 -38.7,8.37 -6.97,-0.75 -13.85,-2.86 -20.58,-6.4 6.15,13.31 5.24,32.36 -2.82,57.11l-26.42 81.38 -23.24 -27.4 21.68 -66.21c6.05,-18.29 9.16,-31.93 9.49,-41.04 0.28,-9.11 -3.06,-17.8 -9.94,-25.97l-78.06 66.13 -18.7 -22.09 166.77 -141.29z"/>
  <polygon id="_4_13" class="fil7 str8" points="8695.07,5895.71 8806.19,6026.85 8639.43,6168.15 8620.63,6145.97 8767.71,6021.32 8694.07,5934.44 8547,6059.04 8528.3,6037.01 "/>
  <path id="_5_14" class="fil7 str8" d="M8822.19 6046.34l18.84 22.28 -56.04 140.91 142.4 -39 18.63 21.96 -182.67 47.33c-22.87,5.92 -38.9,8.51 -48.16,7.72 -9.26,-0.73 -17.82,-5.79 -25.68,-15.12 -4.86,-5.68 -9.41,-13.76 -13.77,-24.28l18.88 -16.04c1.61,8.86 5.18,16.52 10.75,23.12 4.6,5.38 10.26,8.57 16.97,9.57 6.78,0.95 18.31,-1.37 34.58,-7.08l65.27 -171.36z"/>
  <path id="_6_15" class="fil7 str8" d="M8954.07 6422.05l13.11 26.83c-21.99,10.7 -42.9,14.12 -62.61,10.17 -19.7,-3.97 -36.88,-14.65 -51.59,-32.01 -15.21,-17.96 -23.97,-35.69 -26.16,-53.14 -2.24,-17.43 1.11,-35 9.97,-52.63 8.89,-17.63 21.32,-33.19 37.25,-46.72 17.36,-14.71 35.33,-24.23 53.84,-28.51 18.57,-4.34 36.37,-3.21 53.49,3.35 17.07,6.56 31.86,17.2 44.32,31.91 14.14,16.65 21.79,34.29 22.9,52.86 1.18,18.57 -4.06,36.64 -15.65,54.13l-23.56 -17.38c8.86,-14.12 12.93,-27.26 12.24,-39.26 -0.7,-12.07 -5.77,-23.64 -15.17,-34.81 -10.87,-12.85 -23.01,-20.95 -36.45,-24.32 -13.44,-3.42 -26.83,-2.45 -40.13,2.83 -13.26,5.28 -25.45,12.54 -36.41,21.88 -14.22,12 -24.81,24.56 -31.89,37.64 -7.08,13.11 -9.53,26.24 -7.4,39.36 2.17,13.17 7.55,24.86 16.18,35.01 10.46,12.33 22.9,19.78 37.26,22.33 14.4,2.55 29.87,-0.65 46.48,-9.51z"/>
  <path id="_7_16" class="fil7 str8" d="M9104.1 6380.15l18.69 22.07 -73.02 61.89c8.52,10.05 16.47,15.52 23.86,16.26 7.37,0.8 21.21,-1.9 41.44,-8.12 14.85,-4.62 25.77,-7.35 32.85,-8.18 7.07,-0.84 14.45,0.22 22.19,3.14 7.79,2.92 14.47,7.74 20.13,14.43 7.21,8.47 10.94,12.99 11.13,13.61l-19.08 16.18c-0.66,-0.76 -1.88,-2.28 -3.67,-4.52 -1.94,-2.48 -3.16,-4 -3.63,-4.57 -5.97,-7.05 -12.13,-10.8 -18.39,-11.34 -6.36,-0.6 -17.04,1.58 -31.98,6.56 -18.86,6.32 -31.78,9.16 -38.7,8.37 -6.97,-0.75 -13.85,-2.86 -20.58,-6.4 6.15,13.31 5.24,32.36 -2.82,57.11l-26.42 81.38 -23.24 -27.4 21.68 -66.21c6.05,-18.29 9.16,-31.93 9.49,-41.04 0.28,-9.11 -3.06,-17.8 -9.94,-25.97l-78.06 66.13 -18.7 -22.09 166.77 -141.29z"/>
  <path class="fil8" d="M9607.49 6106.18l13.12 26.83c-22,10.7 -42.9,14.12 -62.61,10.16 -19.7,-3.96 -36.88,-14.64 -51.6,-32.01 -15.21,-17.95 -23.96,-35.68 -26.16,-53.13 -2.24,-17.43 1.12,-35 9.97,-52.63 8.89,-17.63 21.32,-33.19 37.26,-46.72 17.35,-14.71 35.33,-24.23 53.84,-28.51 18.56,-4.34 36.37,-3.21 53.49,3.35 17.07,6.56 31.86,17.2 44.31,31.91 14.15,16.65 21.79,34.29 22.91,52.86 1.17,18.57 -4.07,36.64 -15.65,54.13l-23.57 -17.38c8.86,-14.12 12.94,-27.26 12.24,-39.27 -0.69,-12.06 -5.77,-23.64 -15.16,-34.8 -10.87,-12.86 -23.02,-20.95 -36.45,-24.32 -13.44,-3.42 -26.83,-2.45 -40.14,2.82 -13.26,5.29 -25.45,12.55 -36.41,21.89 -14.21,12 -24.81,24.56 -31.88,37.64 -7.09,13.11 -9.54,26.23 -7.41,39.36 2.18,13.17 7.55,24.86 16.18,35.01 10.47,12.33 22.9,19.77 37.27,22.33 14.4,2.54 29.87,-0.65 46.47,-9.51z"/>
  <polygon id="_1_17" class="fil8" points="9619.87,6239.9 9766.94,6115.3 9720.43,6060.35 9740.07,6043.7 9852.05,6175.85 9832.36,6192.54 9785.64,6137.38 9638.57,6261.98 "/>
  <path id="_2_18" class="fil8" d="M9770.9 6253.93c27.65,-23.44 55.65,-34.37 83.89,-32.78 28.25,1.6 52.36,14.14 72.27,37.69 13.02,15.37 21.12,32.35 24.22,50.95 3.12,18.57 0.83,36.69 -6.81,54.32 -7.67,17.62 -19.84,33.54 -36.54,47.68 -16.89,14.31 -34.92,23.72 -54.04,28.2 -19.12,4.48 -37.44,3.37 -54.91,-3.34 -17.43,-6.67 -32.32,-17.25 -44.58,-31.77 -13.33,-15.68 -21.42,-32.91 -24.27,-51.73 -2.91,-18.76 -0.47,-36.87 7.21,-54.41 7.72,-17.47 18.92,-32.41 33.55,-44.82zm18.94 23.03c-20.1,17.07 -31.34,35.87 -33.77,56.49 -2.42,20.57 3.28,39.02 17.12,55.36 14.05,16.6 31.47,25.3 52.23,26.14 20.82,0.86 41.9,-7.86 63.37,-26.04 13.56,-11.49 23.48,-23.84 29.7,-36.98 6.22,-13.15 8.42,-26.54 6.49,-40.06 -1.91,-13.59 -7.5,-25.88 -16.85,-36.85 -13.24,-15.62 -30,-24.53 -50.25,-26.71 -20.26,-2.12 -42.98,7.4 -68.05,28.64z"/>
  <polygon id="_3_19" class="fil8" points="10015.52,6369.85 10126.65,6500.99 9959.89,6642.29 9941.08,6620.11 10088.17,6495.46 10014.52,6408.57 9867.46,6533.18 9848.76,6511.15 "/>
  <path id="_4_20" class="fil7 str8" d="M9607.49 6106.18l13.12 26.83c-22,10.7 -42.9,14.12 -62.61,10.16 -19.7,-3.96 -36.88,-14.64 -51.6,-32.01 -15.21,-17.95 -23.96,-35.68 -26.16,-53.13 -2.24,-17.43 1.12,-35 9.97,-52.63 8.89,-17.63 21.32,-33.19 37.26,-46.72 17.35,-14.71 35.33,-24.23 53.84,-28.51 18.56,-4.34 36.37,-3.21 53.49,3.35 17.07,6.56 31.86,17.2 44.31,31.91 14.15,16.65 21.79,34.29 22.91,52.86 1.17,18.57 -4.07,36.64 -15.65,54.13l-23.57 -17.38c8.86,-14.12 12.94,-27.26 12.24,-39.27 -0.69,-12.06 -5.77,-23.64 -15.16,-34.8 -10.87,-12.86 -23.02,-20.95 -36.45,-24.32 -13.44,-3.42 -26.83,-2.45 -40.14,2.82 -13.26,5.29 -25.45,12.55 -36.41,21.89 -14.21,12 -24.81,24.56 -31.88,37.64 -7.09,13.11 -9.54,26.23 -7.41,39.36 2.18,13.17 7.55,24.86 16.18,35.01 10.47,12.33 22.9,19.77 37.27,22.33 14.4,2.54 29.87,-0.65 46.47,-9.51z"/>
  <polygon id="_5_21" class="fil7 str8" points="9619.87,6239.9 9766.94,6115.3 9720.43,6060.35 9740.07,6043.7 9852.05,6175.85 9832.36,6192.54 9785.64,6137.38 9638.57,6261.98 "/>
  <path id="_6_22" class="fil7 str8" d="M9770.9 6253.93c27.65,-23.44 55.65,-34.37 83.89,-32.78 28.25,1.6 52.36,14.14 72.27,37.69 13.02,15.37 21.12,32.35 24.22,50.95 3.12,18.57 0.83,36.69 -6.81,54.32 -7.67,17.62 -19.84,33.54 -36.54,47.68 -16.89,14.31 -34.92,23.72 -54.04,28.2 -19.12,4.48 -37.44,3.37 -54.91,-3.34 -17.43,-6.67 -32.32,-17.25 -44.58,-31.77 -13.33,-15.68 -21.42,-32.91 -24.27,-51.73 -2.91,-18.76 -0.47,-36.87 7.21,-54.41 7.72,-17.47 18.92,-32.41 33.55,-44.82zm18.94 23.03c-20.1,17.07 -31.34,35.87 -33.77,56.49 -2.42,20.57 3.28,39.02 17.12,55.36 14.05,16.6 31.47,25.3 52.23,26.14 20.82,0.86 41.9,-7.86 63.37,-26.04 13.56,-11.49 23.48,-23.84 29.7,-36.98 6.22,-13.15 8.42,-26.54 6.49,-40.06 -1.91,-13.59 -7.5,-25.88 -16.85,-36.85 -13.24,-15.62 -30,-24.53 -50.25,-26.71 -20.26,-2.12 -42.98,7.4 -68.05,28.64z"/>
  <polygon id="_7_23" class="fil7 str8" points="10015.52,6369.85 10126.65,6500.99 9959.89,6642.29 9941.08,6620.11 10088.17,6495.46 10014.52,6408.57 9867.46,6533.18 9848.76,6511.15 "/>
  <polygon class="fil8" points="10393.48,6036.64 10560.19,5895.34 10578.88,5917.42 10510.42,5975.42 10583.85,6062.12 10652.31,6004.05 10671.06,6026.13 10504.3,6167.43 10485.61,6145.35 10564.16,6078.76 10490.73,5992.08 10412.16,6058.66 "/>
  <polygon id="_1_24" class="fil8" points="10535.51,6204.84 10702.23,6063.55 10804.4,6184.12 10784.71,6200.83 10701.28,6102.32 10650.22,6145.58 10728.34,6237.83 10708.8,6254.38 10630.63,6162.16 10573.89,6210.22 10660.6,6312.58 10640.9,6329.28 "/>
  <polygon id="_2_25" class="fil8" points="10833.53,6219.03 10850.49,6239.02 10718.44,6350.96 10925.66,6327.78 10944.45,6349.96 10777.69,6491.21 10760.73,6471.21 10892.43,6359.64 10685.46,6382.41 10666.77,6360.32 "/>
  <path id="_3_26" class="fil8" d="M10967.3 6597.06l13.12 26.83c-22,10.7 -42.9,14.12 -62.61,10.17 -19.7,-3.96 -36.88,-14.65 -51.59,-32.01 -15.22,-17.96 -23.97,-35.69 -26.17,-53.13 -2.24,-17.44 1.12,-35.01 9.97,-52.64 8.9,-17.63 21.32,-33.19 37.26,-46.72 17.35,-14.71 35.33,-24.23 53.84,-28.51 18.57,-4.34 36.37,-3.21 53.49,3.36 17.07,6.56 31.86,17.2 44.32,31.91 14.14,16.64 21.78,34.28 22.9,52.85 1.17,18.57 -4.06,36.64 -15.65,54.13l-23.57 -17.38c8.86,-14.12 12.94,-27.25 12.24,-39.26 -0.69,-12.06 -5.77,-23.64 -15.16,-34.81 -10.87,-12.85 -23.01,-20.95 -36.45,-24.32 -13.44,-3.41 -26.83,-2.45 -40.14,2.83 -13.26,5.28 -25.45,12.54 -36.41,21.88 -14.21,12 -24.81,24.56 -31.88,37.64 -7.09,13.11 -9.54,26.24 -7.41,39.36 2.18,13.17 7.56,24.86 16.19,35.01 10.46,12.34 22.89,19.78 37.26,22.33 14.4,2.55 29.87,-0.65 46.47,-9.51z"/>
  <polygon id="_4_27" class="fil8" points="11117.23,6555.05 11228.36,6686.19 11061.6,6827.49 11042.8,6805.31 11189.88,6680.66 11116.23,6593.77 10969.17,6718.38 10950.48,6696.35 "/>
  <path id="_5_28" class="fil8" d="M11091.85 6863.77l166.76 -141.3 53.26 62.92c9.39,11.08 16.04,19.96 19.93,26.7 5.58,9.36 8.81,18.4 9.64,27.2 0.85,8.8 -0.71,17.76 -4.75,26.98 -4.05,9.22 -10.22,17.33 -18.49,24.37 -14.16,12 -29.97,17.64 -47.48,16.94 -17.45,-0.71 -36.16,-12.87 -56.12,-36.41l-36.26 -42.78 -67.8 57.44 -18.69 -22.08zm106.18 -52.02l36.51 43.1c12.11,14.25 23.32,22.1 33.7,23.6 10.38,1.49 20.39,-1.84 29.99,-9.96 7.01,-5.92 11.46,-12.75 13.48,-20.49 1.95,-7.75 1.32,-15.17 -2.01,-22.29 -2.15,-4.52 -7.46,-11.83 -15.93,-21.83l-36.16 -42.63 -59.58 50.51z"/>
  <polygon id="_6_29" class="fil8" points="11188.68,6978.46 11212.03,6958.7 11231.75,6982 11208.45,7001.76 "/>
  <polygon id="_7_30" class="fil7 str8" points="10393.48,6036.64 10560.19,5895.34 10578.88,5917.42 10510.42,5975.42 10583.85,6062.12 10652.31,6004.05 10671.06,6026.13 10504.3,6167.43 10485.61,6145.35 10564.16,6078.76 10490.73,5992.08 10412.16,6058.66 "/>
  <polygon id="_8_31" class="fil7 str8" points="10535.51,6204.84 10702.23,6063.55 10804.4,6184.12 10784.71,6200.83 10701.28,6102.32 10650.22,6145.58 10728.34,6237.83 10708.8,6254.38 10630.63,6162.16 10573.89,6210.22 10660.6,6312.58 10640.9,6329.28 "/>
  <polygon id="_9_32" class="fil7 str8" points="10833.53,6219.03 10850.49,6239.02 10718.44,6350.96 10925.66,6327.78 10944.45,6349.96 10777.69,6491.21 10760.73,6471.21 10892.43,6359.64 10685.46,6382.41 10666.77,6360.32 "/>
  <path id="_10" class="fil7 str8" d="M10967.3 6597.06l13.12 26.83c-22,10.7 -42.9,14.12 -62.61,10.17 -19.7,-3.96 -36.88,-14.65 -51.59,-32.01 -15.22,-17.96 -23.97,-35.69 -26.17,-53.13 -2.24,-17.44 1.12,-35.01 9.97,-52.64 8.9,-17.63 21.32,-33.19 37.26,-46.72 17.35,-14.71 35.33,-24.23 53.84,-28.51 18.57,-4.34 36.37,-3.21 53.49,3.36 17.07,6.56 31.86,17.2 44.32,31.91 14.14,16.64 21.78,34.28 22.9,52.85 1.17,18.57 -4.06,36.64 -15.65,54.13l-23.57 -17.38c8.86,-14.12 12.94,-27.25 12.24,-39.26 -0.69,-12.06 -5.77,-23.64 -15.16,-34.81 -10.87,-12.85 -23.01,-20.95 -36.45,-24.32 -13.44,-3.41 -26.83,-2.45 -40.14,2.83 -13.26,5.28 -25.45,12.54 -36.41,21.88 -14.21,12 -24.81,24.56 -31.88,37.64 -7.09,13.11 -9.54,26.24 -7.41,39.36 2.18,13.17 7.56,24.86 16.19,35.01 10.46,12.34 22.89,19.78 37.26,22.33 14.4,2.55 29.87,-0.65 46.47,-9.51z"/>
  <polygon id="_11" class="fil7 str8" points="11117.23,6555.05 11228.36,6686.19 11061.6,6827.49 11042.8,6805.31 11189.88,6680.66 11116.23,6593.77 10969.17,6718.38 10950.48,6696.35 "/>
  <path id="_12" class="fil7 str8" d="M11091.85 6863.77l166.76 -141.3 53.26 62.92c9.39,11.08 16.04,19.96 19.93,26.7 5.58,9.36 8.81,18.4 9.64,27.2 0.85,8.8 -0.71,17.76 -4.75,26.98 -4.05,9.22 -10.22,17.33 -18.49,24.37 -14.16,12 -29.97,17.64 -47.48,16.94 -17.45,-0.71 -36.16,-12.87 -56.12,-36.41l-36.26 -42.78 -67.8 57.44 -18.69 -22.08zm106.18 -52.02l36.51 43.1c12.11,14.25 23.32,22.1 33.7,23.6 10.38,1.49 20.39,-1.84 29.99,-9.96 7.01,-5.92 11.46,-12.75 13.48,-20.49 1.95,-7.75 1.32,-15.17 -2.01,-22.29 -2.15,-4.52 -7.46,-11.83 -15.93,-21.83l-36.16 -42.63 -59.58 50.51z"/>
  <polygon id="_13" class="fil7 str8" points="11188.68,6978.46 11212.03,6958.7 11231.75,6982 11208.45,7001.76 "/>
  <path class="fil8" d="M11358.07 5921.15c27.65,-23.43 55.65,-34.36 83.9,-32.77 28.24,1.6 52.35,14.13 72.27,37.69 13.02,15.37 21.11,32.35 24.22,50.95 3.11,18.57 0.83,36.69 -6.81,54.31 -7.68,17.63 -19.85,33.54 -36.54,47.69 -16.89,14.3 -34.93,23.71 -54.05,28.2 -19.12,4.48 -37.44,3.37 -54.91,-3.35 -17.43,-6.66 -32.32,-17.25 -44.58,-31.76 -13.33,-15.68 -21.41,-32.91 -24.27,-51.73 -2.9,-18.77 -0.47,-36.88 7.21,-54.41 7.72,-17.47 18.92,-32.42 33.55,-44.83zm18.94 23.04c-20.1,17.06 -31.34,35.87 -33.76,56.49 -2.43,20.56 3.27,39.02 17.12,55.36 14.04,16.6 31.46,25.29 52.22,26.14 20.82,0.85 41.9,-7.86 63.38,-26.04 13.55,-11.49 23.47,-23.84 29.69,-36.98 6.22,-13.15 8.42,-26.54 6.49,-40.07 -1.91,-13.58 -7.5,-25.87 -16.85,-36.84 -13.23,-15.63 -30,-24.53 -50.25,-26.71 -20.26,-2.12 -42.98,7.4 -68.05,28.64z"/>
  <polygon id="_1_33" class="fil8" points="11471.67,6220.55 11618.75,6095.94 11572.23,6040.98 11591.86,6024.35 11703.86,6156.49 11684.16,6173.18 11637.44,6118.02 11490.36,6242.62 "/>
  <path id="_2_34" class="fil8" d="M11723.09 6179.66l18.69 22.08 -73.02 61.88c8.52,10.05 16.48,15.53 23.86,16.26 7.38,0.8 21.21,-1.89 41.44,-8.12 14.85,-4.62 25.77,-7.36 32.85,-8.19 7.07,-0.84 14.45,0.22 22.19,3.14 7.8,2.92 14.48,7.74 20.14,14.43 7.2,8.48 10.93,12.99 11.13,13.61l-19.09 16.18c-0.66,-0.76 -1.88,-2.28 -3.67,-4.51 -1.94,-2.49 -3.16,-4.01 -3.62,-4.58 -5.98,-7.05 -12.14,-10.8 -18.39,-11.34 -6.37,-0.59 -17.05,1.58 -31.99,6.56 -18.86,6.32 -31.77,9.16 -38.7,8.37 -6.97,-0.74 -13.85,-2.86 -20.58,-6.39 6.15,13.31 5.24,32.35 -2.82,57.1l-26.42 81.38 -23.24 -27.4 21.68 -66.21c6.05,-18.29 9.17,-31.93 9.49,-41.04 0.28,-9.11 -3.06,-17.8 -9.94,-25.97l-78.06 66.13 -18.69 -22.08 166.76 -141.3z"/>
  <path id="_3_35" class="fil8" d="M11847.82 6327.35l88.45 104.44 -166.7 141.25 -18.75 -22.02 147.08 -124.66 -51.07 -60.29 -85.87 72.77c-17.45,14.82 -30.91,24.83 -40.41,30.05 -9.49,5.27 -18.7,7.18 -27.65,5.78 -8.96,-1.44 -16.82,-6.15 -23.61,-14.17 -4.13,-4.87 -8.17,-11.47 -12.12,-19.86l22.7 -12.79c1.6,4.88 3.49,8.63 5.68,11.23 4.24,5.02 9.29,7.13 15.13,6.51 5.9,-0.67 15.8,-6.97 29.75,-18.76l117.38 -99.48z"/>
  <path id="_4_36" class="fil8" d="M11967.34 6468.98l18.69 22.09 -74.85 63.36 27.22 32.12c24.97,-18.49 50.44,-26.66 76.35,-24.65 25.86,2.06 47.57,13.38 65.03,33.99 18.43,21.77 26.05,46.28 22.87,73.56 -3.23,27.28 -17.95,52.01 -44.19,74.27 -27.3,23.13 -54.69,34.06 -82.17,32.87 -27.42,-1.25 -50.61,-12.92 -69.4,-35.15 -17.12,-20.2 -24.71,-42.61 -22.81,-67.36 1.91,-24.73 13.64,-48.27 35.15,-70.52l-27.58 -32.53 -72.33 61.27 -18.68 -22.02 166.71 -141.31zm-19.49 147.62c-21.06,17.87 -33.32,36.58 -36.77,56.18 -3.39,19.55 1.6,37.18 14.97,52.97 13.68,16.14 30.4,24.12 50.24,23.87 19.85,-0.27 40.73,-9.69 62.64,-28.29 20.76,-17.61 33.12,-36.17 37.03,-55.77 3.91,-19.61 -0.98,-37.5 -14.66,-53.64 -13.94,-16.43 -30.95,-24.32 -51.16,-23.6 -20.13,0.72 -40.92,10.15 -62.29,28.28z"/>
  <path id="_5_37" class="fil8" d="M12093.28 6956.46l-18.7 -22.02 67.25 -57c-24.15,-13.56 -42.52,-27.75 -55.09,-42.61 -9.86,-11.62 -15.8,-24.12 -17.87,-37.6 -2.12,-13.49 -0.28,-25.24 5.55,-35.28 5.82,-10.1 15.45,-20.82 28.95,-32.25l49.03 -41.57 18.68 22.07 -46.99 39.84c-18.17,15.43 -27.34,28.84 -27.46,40.34 -0.07,11.5 3.84,21.91 11.7,31.2 13.18,15.58 30.47,28.96 51.91,40.3l81.1 -68.74 18.68 22.08 -166.75 141.25z"/>
  <polygon id="_6_38" class="fil8" points="12126.43,6996.16 12149.78,6976.4 12169.5,6999.7 12146.2,7019.46 "/>
  <path id="_7_39" class="fil7 str8" d="M11358.07 5921.15c27.65,-23.43 55.65,-34.36 83.9,-32.77 28.24,1.6 52.35,14.13 72.27,37.69 13.02,15.37 21.11,32.35 24.22,50.95 3.11,18.57 0.83,36.69 -6.81,54.31 -7.68,17.63 -19.85,33.54 -36.54,47.69 -16.89,14.3 -34.93,23.71 -54.05,28.2 -19.12,4.48 -37.44,3.37 -54.91,-3.35 -17.43,-6.66 -32.32,-17.25 -44.58,-31.76 -13.33,-15.68 -21.41,-32.91 -24.27,-51.73 -2.9,-18.77 -0.47,-36.88 7.21,-54.41 7.72,-17.47 18.92,-32.42 33.55,-44.83zm18.94 23.04c-20.1,17.06 -31.34,35.87 -33.76,56.49 -2.43,20.56 3.27,39.02 17.12,55.36 14.04,16.6 31.46,25.29 52.22,26.14 20.82,0.85 41.9,-7.86 63.38,-26.04 13.55,-11.49 23.47,-23.84 29.69,-36.98 6.22,-13.15 8.42,-26.54 6.49,-40.07 -1.91,-13.58 -7.5,-25.87 -16.85,-36.84 -13.23,-15.63 -30,-24.53 -50.25,-26.71 -20.26,-2.12 -42.98,7.4 -68.05,28.64z"/>
  <polygon id="_8_40" class="fil7 str8" points="11471.67,6220.55 11618.75,6095.94 11572.23,6040.98 11591.86,6024.35 11703.86,6156.49 11684.16,6173.18 11637.44,6118.02 11490.36,6242.62 "/>
  <path id="_9_41" class="fil7 str8" d="M11723.09 6179.66l18.69 22.08 -73.02 61.88c8.52,10.05 16.48,15.53 23.86,16.26 7.38,0.8 21.21,-1.89 41.44,-8.12 14.85,-4.62 25.77,-7.36 32.85,-8.19 7.07,-0.84 14.45,0.22 22.19,3.14 7.8,2.92 14.48,7.74 20.14,14.43 7.2,8.48 10.93,12.99 11.13,13.61l-19.09 16.18c-0.66,-0.76 -1.88,-2.28 -3.67,-4.51 -1.94,-2.49 -3.16,-4.01 -3.62,-4.58 -5.98,-7.05 -12.14,-10.8 -18.39,-11.34 -6.37,-0.59 -17.05,1.58 -31.99,6.56 -18.86,6.32 -31.77,9.16 -38.7,8.37 -6.97,-0.74 -13.85,-2.86 -20.58,-6.39 6.15,13.31 5.24,32.35 -2.82,57.1l-26.42 81.38 -23.24 -27.4 21.68 -66.21c6.05,-18.29 9.17,-31.93 9.49,-41.04 0.28,-9.11 -3.06,-17.8 -9.94,-25.97l-78.06 66.13 -18.69 -22.08 166.76 -141.3z"/>
  <path id="_10_42" class="fil7 str8" d="M11847.82 6327.35l88.45 104.44 -166.7 141.25 -18.75 -22.02 147.08 -124.66 -51.07 -60.29 -85.87 72.77c-17.45,14.82 -30.91,24.83 -40.41,30.05 -9.49,5.27 -18.7,7.18 -27.65,5.78 -8.96,-1.44 -16.82,-6.15 -23.61,-14.17 -4.13,-4.87 -8.17,-11.47 -12.12,-19.86l22.7 -12.79c1.6,4.88 3.49,8.63 5.68,11.23 4.24,5.02 9.29,7.13 15.13,6.51 5.9,-0.67 15.8,-6.97 29.75,-18.76l117.38 -99.48z"/>
  <path id="_11_43" class="fil7 str8" d="M11967.34 6468.98l18.69 22.09 -74.85 63.36 27.22 32.12c24.97,-18.49 50.44,-26.66 76.35,-24.65 25.86,2.06 47.57,13.38 65.03,33.99 18.43,21.77 26.05,46.28 22.87,73.56 -3.23,27.28 -17.95,52.01 -44.19,74.27 -27.3,23.13 -54.69,34.06 -82.17,32.87 -27.42,-1.25 -50.61,-12.92 -69.4,-35.15 -17.12,-20.2 -24.71,-42.61 -22.81,-67.36 1.91,-24.73 13.64,-48.27 35.15,-70.52l-27.58 -32.53 -72.33 61.27 -18.68 -22.02 166.71 -141.31zm-19.49 147.62c-21.06,17.87 -33.32,36.58 -36.77,56.18 -3.39,19.55 1.6,37.18 14.97,52.97 13.68,16.14 30.4,24.12 50.24,23.87 19.85,-0.27 40.73,-9.69 62.64,-28.29 20.76,-17.61 33.12,-36.17 37.03,-55.77 3.91,-19.61 -0.98,-37.5 -14.66,-53.64 -13.94,-16.43 -30.95,-24.32 -51.16,-23.6 -20.13,0.72 -40.92,10.15 -62.29,28.28z"/>
  <path id="_12_44" class="fil7 str8" d="M12093.28 6956.46l-18.7 -22.02 67.25 -57c-24.15,-13.56 -42.52,-27.75 -55.09,-42.61 -9.86,-11.62 -15.8,-24.12 -17.87,-37.6 -2.12,-13.49 -0.28,-25.24 5.55,-35.28 5.82,-10.1 15.45,-20.82 28.95,-32.25l49.03 -41.57 18.68 22.07 -46.99 39.84c-18.17,15.43 -27.34,28.84 -27.46,40.34 -0.07,11.5 3.84,21.91 11.7,31.2 13.18,15.58 30.47,28.96 51.91,40.3l81.1 -68.74 18.68 22.08 -166.75 141.25z"/>
  <polygon id="_13_45" class="fil7 str8" points="12126.43,6996.16 12149.78,6976.4 12169.5,6999.7 12146.2,7019.46 "/>
  <path class="fil8" d="M12231.45 5930.3l23.31 16.37c-6.79,8.47 -11.29,19.62 -13.48,33.42 -2.25,13.84 1.45,26.45 11.15,37.92 9.9,11.67 20.71,18.36 32.42,19.99 11.71,1.7 21.83,-1.08 30.3,-8.23 9.19,-7.81 13.43,-17.54 12.84,-29.24 -0.6,-11.75 -6.13,-23.75 -16.55,-36.02l-8.93 -10.62 19.18 -16.28c8.63,10.19 15.83,17.45 21.54,21.86 5.76,4.36 12.74,6.58 21.09,6.65 8.29,0.03 15.56,-2.54 21.7,-7.75 7.25,-6.12 11.19,-14.34 11.78,-24.57 0.63,-10.17 -3.16,-20.13 -11.34,-29.73 -7.1,-8.42 -15.31,-13.85 -24.58,-16.2 -9.26,-2.41 -18.32,-1.83 -27.16,1.81 -8.85,3.6 -14.99,6.87 -18.44,9.73l-13.15 -25.19c39.87,-24.76 74.17,-20.23 102.87,13.67 13.79,16.29 20.25,33.07 19.29,50.32 -0.97,17.25 -7.54,30.95 -19.67,41.27 -15.53,13.17 -33.83,16.03 -54.86,8.57 4.86,10.51 6.07,21.65 3.71,33.52 -2.4,11.86 -8.63,22.06 -18.73,30.63 -14.32,12.1 -31.04,16.73 -50.13,13.84 -19.08,-2.93 -36.36,-13.58 -51.94,-31.89 -26.71,-31.57 -27.47,-66.17 -2.2,-103.85z"/>
  <path id="_1_46" class="fil8" d="M12310.26 6119.25l166.76 -141.31 53.02 62.58c10.77,12.73 17.73,24.37 20.91,34.94 3.14,10.58 3.02,21.01 -0.26,31.29 -3.33,10.3 -8.85,18.71 -16.51,25.19 -7.11,6.02 -15.44,9.82 -25.05,11.27 -9.56,1.45 -19.59,-0.1 -30.04,-4.59 5.59,12.55 7.1,24.61 4.54,36.06 -2.51,11.46 -8.63,21.3 -18.33,29.52 -7.82,6.63 -16.5,11.13 -26.02,13.51 -9.5,2.37 -18.1,2.7 -25.84,0.94 -7.8,-1.81 -15.68,-5.55 -23.75,-11.28 -8.05,-5.77 -16.58,-13.93 -25.57,-24.54l-53.87 -63.59zm115.37 -59.84l30.54 36.04c8.32,9.78 14.9,16.28 19.8,19.41 6.42,4.21 12.74,6.08 19.05,5.64 6.25,-0.42 12.3,-3.13 18.14,-8.04 5.58,-4.7 9.28,-10.16 11.24,-16.42 1.96,-6.21 1.64,-12.42 -0.97,-18.66 -2.62,-6.26 -9,-15.39 -19.16,-27.37l-28.25 -33.29 -50.38 42.69zm-76.99 65.21l35.19 41.57c6.02,7.1 10.51,11.87 13.52,14.3 5.21,4.32 10.31,7.3 15.34,8.91 5,1.61 10.5,1.8 16.39,0.56 5.89,-1.23 11.54,-4.11 16.82,-8.6 6.24,-5.31 10.3,-11.48 12.2,-18.51 1.87,-7.08 1.33,-14.25 -1.59,-21.46 -2.93,-7.22 -8.9,-16.16 -17.89,-26.77l-32.62 -38.57 -57.36 48.57z"/>
  <path id="_2_47" class="fil8" d="M12588.37 6109.9l18.85 22.29 -56.04 140.9 142.39 -39 18.63 21.97 -182.67 47.32c-22.87,5.92 -38.89,8.52 -48.15,7.73 -9.27,-0.74 -17.83,-5.79 -25.69,-15.13 -4.86,-5.68 -9.4,-13.75 -13.77,-24.28l18.88 -16.03c1.61,8.85 5.19,16.52 10.76,23.11 4.6,5.38 10.25,8.57 16.97,9.57 6.77,0.95 18.31,-1.37 34.58,-7.07l65.26 -171.37z"/>
  <path id="_3_48" class="fil8" d="M12728.05 6275.26l18.69 22.08 -73.02 61.89c8.52,10.05 16.48,15.52 23.86,16.26 7.38,0.8 21.21,-1.9 41.44,-8.12 14.85,-4.62 25.77,-7.35 32.85,-8.18 7.07,-0.84 14.45,0.22 22.19,3.14 7.8,2.92 14.48,7.74 20.14,14.43 7.2,8.47 10.93,12.99 11.13,13.61l-19.09 16.18c-0.66,-0.76 -1.88,-2.28 -3.66,-4.52 -1.95,-2.48 -3.17,-4 -3.63,-4.57 -5.98,-7.05 -12.14,-10.8 -18.39,-11.34 -6.37,-0.6 -17.05,1.58 -31.99,6.56 -18.86,6.32 -31.77,9.16 -38.7,8.37 -6.97,-0.75 -13.85,-2.86 -20.58,-6.4 6.15,13.31 5.24,32.36 -2.82,57.11l-26.42 81.38 -23.23 -27.4 21.67 -66.21c6.06,-18.29 9.17,-31.93 9.5,-41.04 0.27,-9.11 -3.07,-17.8 -9.95,-25.97l-78.06 66.13 -18.69 -22.09 166.76 -141.3z"/>
  <path id="_4_49" class="fil8" d="M12805.96 6541.34c27.65,-23.43 55.65,-34.36 83.89,-32.77 28.25,1.6 52.36,14.14 72.28,37.69 13.01,15.37 21.11,32.35 24.21,50.95 3.12,18.57 0.83,36.69 -6.81,54.31 -7.67,17.63 -19.84,33.55 -36.54,47.69 -16.88,14.3 -34.92,23.72 -54.04,28.2 -19.12,4.48 -37.44,3.37 -54.91,-3.35 -17.43,-6.66 -32.32,-17.24 -44.58,-31.76 -13.33,-15.68 -21.42,-32.91 -24.27,-51.73 -2.91,-18.76 -0.47,-36.87 7.21,-54.41 7.72,-17.47 18.92,-32.41 33.55,-44.83zm18.94 23.04c-20.1,17.07 -31.34,35.87 -33.76,56.49 -2.43,20.57 3.27,39.02 17.11,55.36 14.05,16.6 31.47,25.29 52.23,26.14 20.82,0.85 41.9,-7.86 63.37,-26.04 13.56,-11.49 23.48,-23.84 29.7,-36.98 6.22,-13.15 8.42,-26.54 6.49,-40.07 -1.91,-13.58 -7.5,-25.87 -16.85,-36.84 -13.24,-15.63 -30,-24.53 -50.25,-26.71 -20.26,-2.12 -42.98,7.4 -68.05,28.64z"/>
  <polygon id="_5_50" class="fil8" points="12919.57,6840.74 13066.64,6716.14 13020.13,6661.18 13039.76,6644.54 13151.75,6776.68 13132.06,6793.38 13085.34,6738.22 12938.26,6862.82 "/>
  <path id="_6_51" class="fil8" d="M13170.99 6799.86l18.69 22.08 -73.02 61.88c8.52,10.05 16.47,15.53 23.86,16.27 7.37,0.79 21.21,-1.9 41.44,-8.12 14.85,-4.62 25.77,-7.36 32.85,-8.18 7.07,-0.84 14.45,0.21 22.19,3.13 7.79,2.92 14.47,7.74 20.13,14.43 7.21,8.48 10.93,13 11.13,13.61l-19.08 16.18c-0.66,-0.76 -1.88,-2.28 -3.67,-4.51 -1.94,-2.48 -3.16,-4.01 -3.63,-4.58 -5.97,-7.04 -12.13,-10.8 -18.39,-11.34 -6.36,-0.59 -17.04,1.59 -31.98,6.57 -18.86,6.32 -31.78,9.15 -38.7,8.36 -6.97,-0.74 -13.85,-2.86 -20.58,-6.39 6.15,13.31 5.24,32.35 -2.82,57.1l-26.42 81.39 -23.24 -27.41 21.68 -66.21c6.05,-18.29 9.16,-31.92 9.49,-41.04 0.28,-9.11 -3.06,-17.8 -9.94,-25.97l-78.06 66.13 -18.7 -22.08 166.77 -141.3z"/>
  <path id="_7_52" class="fil8" d="M13295.72 6947.55l88.45 104.44 -166.71 141.25 -18.74 -22.02 147.07 -124.66 -51.07 -60.29 -85.86 72.77c-17.46,14.82 -30.91,24.83 -40.41,30.05 -9.49,5.27 -18.7,7.18 -27.65,5.78 -8.96,-1.44 -16.82,-6.15 -23.61,-14.17 -4.13,-4.87 -8.17,-11.47 -12.12,-19.86l22.7 -12.79c1.59,4.88 3.49,8.63 5.68,11.23 4.23,5.02 9.28,7.13 15.13,6.51 5.89,-0.67 15.8,-6.97 29.75,-18.76l117.38 -99.48z"/>
  <polygon id="_8_53" class="fil8" points="13250.61,7232.97 13273.96,7213.21 13293.68,7236.5 13270.38,7256.26 "/>
  <path id="_9_54" class="fil7 str8" d="M12231.45 5930.3l23.31 16.37c-6.79,8.47 -11.29,19.62 -13.48,33.42 -2.25,13.84 1.45,26.45 11.15,37.92 9.9,11.67 20.71,18.36 32.42,19.99 11.71,1.7 21.83,-1.08 30.3,-8.23 9.19,-7.81 13.43,-17.54 12.84,-29.24 -0.6,-11.75 -6.13,-23.75 -16.55,-36.02l-8.93 -10.62 19.18 -16.28c8.63,10.19 15.83,17.45 21.54,21.86 5.76,4.36 12.74,6.58 21.09,6.65 8.29,0.03 15.56,-2.54 21.7,-7.75 7.25,-6.12 11.19,-14.34 11.78,-24.57 0.63,-10.17 -3.16,-20.13 -11.34,-29.73 -7.1,-8.42 -15.31,-13.85 -24.58,-16.2 -9.26,-2.41 -18.32,-1.83 -27.16,1.81 -8.85,3.6 -14.99,6.87 -18.44,9.73l-13.15 -25.19c39.87,-24.76 74.17,-20.23 102.87,13.67 13.79,16.29 20.25,33.07 19.29,50.32 -0.97,17.25 -7.54,30.95 -19.67,41.27 -15.53,13.17 -33.83,16.03 -54.86,8.57 4.86,10.51 6.07,21.65 3.71,33.52 -2.4,11.86 -8.63,22.06 -18.73,30.63 -14.32,12.1 -31.04,16.73 -50.13,13.84 -19.08,-2.93 -36.36,-13.58 -51.94,-31.89 -26.71,-31.57 -27.47,-66.17 -2.2,-103.85z"/>
  <path id="_10_55" class="fil7 str8" d="M12310.26 6119.25l166.76 -141.31 53.02 62.58c10.77,12.73 17.73,24.37 20.91,34.94 3.14,10.58 3.02,21.01 -0.26,31.29 -3.33,10.3 -8.85,18.71 -16.51,25.19 -7.11,6.02 -15.44,9.82 -25.05,11.27 -9.56,1.45 -19.59,-0.1 -30.04,-4.59 5.59,12.55 7.1,24.61 4.54,36.06 -2.51,11.46 -8.63,21.3 -18.33,29.52 -7.82,6.63 -16.5,11.13 -26.02,13.51 -9.5,2.37 -18.1,2.7 -25.84,0.94 -7.8,-1.81 -15.68,-5.55 -23.75,-11.28 -8.05,-5.77 -16.58,-13.93 -25.57,-24.54l-53.87 -63.59zm115.37 -59.84l30.54 36.04c8.32,9.78 14.9,16.28 19.8,19.41 6.42,4.21 12.74,6.08 19.05,5.64 6.25,-0.42 12.3,-3.13 18.14,-8.04 5.58,-4.7 9.28,-10.16 11.24,-16.42 1.96,-6.21 1.64,-12.42 -0.97,-18.66 -2.62,-6.26 -9,-15.39 -19.16,-27.37l-28.25 -33.29 -50.38 42.69zm-76.99 65.21l35.19 41.57c6.02,7.1 10.51,11.87 13.52,14.3 5.21,4.32 10.31,7.3 15.34,8.91 5,1.61 10.5,1.8 16.39,0.56 5.89,-1.23 11.54,-4.11 16.82,-8.6 6.24,-5.31 10.3,-11.48 12.2,-18.51 1.87,-7.08 1.33,-14.25 -1.59,-21.46 -2.93,-7.22 -8.9,-16.16 -17.89,-26.77l-32.62 -38.57 -57.36 48.57z"/>
  <path id="_11_56" class="fil7 str8" d="M12588.37 6109.9l18.85 22.29 -56.04 140.9 142.39 -39 18.63 21.97 -182.67 47.32c-22.87,5.92 -38.89,8.52 -48.15,7.73 -9.27,-0.74 -17.83,-5.79 -25.69,-15.13 -4.86,-5.68 -9.4,-13.75 -13.77,-24.28l18.88 -16.03c1.61,8.85 5.19,16.52 10.76,23.11 4.6,5.38 10.25,8.57 16.97,9.57 6.77,0.95 18.31,-1.37 34.58,-7.07l65.26 -171.37z"/>
  <path id="_12_57" class="fil7 str8" d="M12728.05 6275.26l18.69 22.08 -73.02 61.89c8.52,10.05 16.48,15.52 23.86,16.26 7.38,0.8 21.21,-1.9 41.44,-8.12 14.85,-4.62 25.77,-7.35 32.85,-8.18 7.07,-0.84 14.45,0.22 22.19,3.14 7.8,2.92 14.48,7.74 20.14,14.43 7.2,8.47 10.93,12.99 11.13,13.61l-19.09 16.18c-0.66,-0.76 -1.88,-2.28 -3.66,-4.52 -1.95,-2.48 -3.17,-4 -3.63,-4.57 -5.98,-7.05 -12.14,-10.8 -18.39,-11.34 -6.37,-0.6 -17.05,1.58 -31.99,6.56 -18.86,6.32 -31.77,9.16 -38.7,8.37 -6.97,-0.75 -13.85,-2.86 -20.58,-6.4 6.15,13.31 5.24,32.36 -2.82,57.11l-26.42 81.38 -23.23 -27.4 21.67 -66.21c6.06,-18.29 9.17,-31.93 9.5,-41.04 0.27,-9.11 -3.07,-17.8 -9.95,-25.97l-78.06 66.13 -18.69 -22.09 166.76 -141.3z"/>
  <path id="_13_58" class="fil7 str8" d="M12805.96 6541.34c27.65,-23.43 55.65,-34.36 83.89,-32.77 28.25,1.6 52.36,14.14 72.28,37.69 13.01,15.37 21.11,32.35 24.21,50.95 3.12,18.57 0.83,36.69 -6.81,54.31 -7.67,17.63 -19.84,33.55 -36.54,47.69 -16.88,14.3 -34.92,23.72 -54.04,28.2 -19.12,4.48 -37.44,3.37 -54.91,-3.35 -17.43,-6.66 -32.32,-17.24 -44.58,-31.76 -13.33,-15.68 -21.42,-32.91 -24.27,-51.73 -2.91,-18.76 -0.47,-36.87 7.21,-54.41 7.72,-17.47 18.92,-32.41 33.55,-44.83zm18.94 23.04c-20.1,17.07 -31.34,35.87 -33.76,56.49 -2.43,20.57 3.27,39.02 17.11,55.36 14.05,16.6 31.47,25.29 52.23,26.14 20.82,0.85 41.9,-7.86 63.37,-26.04 13.56,-11.49 23.48,-23.84 29.7,-36.98 6.22,-13.15 8.42,-26.54 6.49,-40.07 -1.91,-13.58 -7.5,-25.87 -16.85,-36.84 -13.24,-15.63 -30,-24.53 -50.25,-26.71 -20.26,-2.12 -42.98,7.4 -68.05,28.64z"/>
  <polygon id="_14" class="fil7 str8" points="12919.57,6840.74 13066.64,6716.14 13020.13,6661.18 13039.76,6644.54 13151.75,6776.68 13132.06,6793.38 13085.34,6738.22 12938.26,6862.82 "/>
  <path id="_15" class="fil7 str8" d="M13170.99 6799.86l18.69 22.08 -73.02 61.88c8.52,10.05 16.47,15.53 23.86,16.27 7.37,0.79 21.21,-1.9 41.44,-8.12 14.85,-4.62 25.77,-7.36 32.85,-8.18 7.07,-0.84 14.45,0.21 22.19,3.13 7.79,2.92 14.47,7.74 20.13,14.43 7.21,8.48 10.93,13 11.13,13.61l-19.08 16.18c-0.66,-0.76 -1.88,-2.28 -3.67,-4.51 -1.94,-2.48 -3.16,-4.01 -3.63,-4.58 -5.97,-7.04 -12.13,-10.8 -18.39,-11.34 -6.36,-0.59 -17.04,1.59 -31.98,6.57 -18.86,6.32 -31.78,9.15 -38.7,8.36 -6.97,-0.74 -13.85,-2.86 -20.58,-6.39 6.15,13.31 5.24,32.35 -2.82,57.1l-26.42 81.39 -23.24 -27.41 21.68 -66.21c6.05,-18.29 9.16,-31.92 9.49,-41.04 0.28,-9.11 -3.06,-17.8 -9.94,-25.97l-78.06 66.13 -18.7 -22.08 166.77 -141.3z"/>
  <path id="_16" class="fil7 str8" d="M13295.72 6947.55l88.45 104.44 -166.71 141.25 -18.74 -22.02 147.07 -124.66 -51.07 -60.29 -85.86 72.77c-17.46,14.82 -30.91,24.83 -40.41,30.05 -9.49,5.27 -18.7,7.18 -27.65,5.78 -8.96,-1.44 -16.82,-6.15 -23.61,-14.17 -4.13,-4.87 -8.17,-11.47 -12.12,-19.86l22.7 -12.79c1.59,4.88 3.49,8.63 5.68,11.23 4.23,5.02 9.28,7.13 15.13,6.51 5.89,-0.67 15.8,-6.97 29.75,-18.76l117.38 -99.48z"/>
  <polygon id="_17" class="fil7 str8" points="13250.61,7232.97 13273.96,7213.21 13293.68,7236.5 13270.38,7256.26 "/>
  <polygon class="fil8" points="13282.55,5895.71 13393.67,6026.85 13226.91,6168.15 13208.1,6145.97 13355.19,6021.32 13281.55,5934.44 13134.48,6059.04 13115.78,6037.01 "/>
  <polygon id="_1_59" class="fil8" points="13424.22,6063.49 13441.17,6083.48 13309.13,6195.42 13516.34,6172.25 13535.13,6194.42 13368.38,6335.67 13351.42,6315.68 13483.11,6204.1 13276.15,6226.87 13257.46,6204.79 "/>
  <polygon id="_2_60" class="fil8" points="13434.68,6414.53 13581.74,6289.93 13535.23,6234.98 13554.87,6218.34 13666.86,6350.48 13647.17,6367.17 13600.45,6312.02 13453.37,6436.61 "/>
  <path id="_3_61" class="fil8" d="M13496.97 6488.53l221.06 -77.25 20.12 23.8 -108.91 209.51 -21.35 -25.12 34.06 -62.24 -59.09 -69.72 -66.02 24.46 -19.87 -23.44zm109.27 -9.9l47.9 56.55 31.42 -56.54c9.51,-17.16 17.71,-30.88 24.56,-41.13 -12.5,6.96 -25.66,12.96 -39.48,18.04l-64.4 23.09z"/>
  <polygon id="_4_62" class="fil8" points="13644.47,6663.15 13811.18,6521.85 13829.88,6543.93 13761.42,6601.94 13834.85,6688.62 13903.31,6630.55 13922.05,6652.63 13755.29,6793.93 13736.6,6771.85 13815.15,6705.27 13741.73,6618.58 13663.17,6685.18 "/>
  <polygon id="_5_63" class="fil8" points="13953.16,6689.95 13970.11,6709.95 13838.08,6821.88 14045.29,6798.7 14064.08,6820.88 13897.32,6962.13 13880.37,6942.13 14012.06,6830.56 13805.09,6853.33 13786.4,6831.25 "/>
  <polygon id="_6_64" class="fil8" points="13928.08,6999.02 14094.8,6857.72 14196.97,6978.31 14177.28,6995 14093.84,6896.5 14042.79,6939.75 14120.91,7032.01 14101.37,7048.56 14023.2,6956.35 13966.46,7004.4 14053.17,7106.77 14033.47,7123.46 "/>
  <polygon id="_7_65" class="fil7 str8" points="13282.55,5895.71 13393.67,6026.85 13226.91,6168.15 13208.1,6145.97 13355.19,6021.32 13281.55,5934.44 13134.48,6059.04 13115.78,6037.01 "/>
  <polygon id="_8_66" class="fil7 str8" points="13424.22,6063.49 13441.17,6083.48 13309.13,6195.42 13516.34,6172.25 13535.13,6194.42 13368.38,6335.67 13351.42,6315.68 13483.11,6204.1 13276.15,6226.87 13257.46,6204.79 "/>
  <polygon id="_9_67" class="fil7 str8" points="13434.68,6414.53 13581.74,6289.93 13535.23,6234.98 13554.87,6218.34 13666.86,6350.48 13647.17,6367.17 13600.45,6312.02 13453.37,6436.61 "/>
  <path id="_10_68" class="fil7 str8" d="M13496.97 6488.53l221.06 -77.25 20.12 23.8 -108.91 209.51 -21.35 -25.12 34.06 -62.24 -59.09 -69.72 -66.02 24.46 -19.87 -23.44zm109.27 -9.9l47.9 56.55 31.42 -56.54c9.51,-17.16 17.71,-30.88 24.56,-41.13 -12.5,6.96 -25.66,12.96 -39.48,18.04l-64.4 23.09z"/>
  <polygon id="_11_69" class="fil7 str8" points="13644.47,6663.15 13811.18,6521.85 13829.88,6543.93 13761.42,6601.94 13834.85,6688.62 13903.31,6630.55 13922.05,6652.63 13755.29,6793.93 13736.6,6771.85 13815.15,6705.27 13741.73,6618.58 13663.17,6685.18 "/>
  <polygon id="_12_70" class="fil7 str8" points="13953.16,6689.95 13970.11,6709.95 13838.08,6821.88 14045.29,6798.7 14064.08,6820.88 13897.32,6962.13 13880.37,6942.13 14012.06,6830.56 13805.09,6853.33 13786.4,6831.25 "/>
  <polygon id="_13_71" class="fil7 str8" points="13928.08,6999.02 14094.8,6857.72 14196.97,6978.31 14177.28,6995 14093.84,6896.5 14042.79,6939.75 14120.91,7032.01 14101.37,7048.56 14023.2,6956.35 13966.46,7004.4 14053.17,7106.77 14033.47,7123.46 "/>
  <path class="fil5" d="M11051.69 16584.57c0,-45.86 4.7,-82.94 14.11,-110.98 9.5,-28.13 23.52,-49.75 42.15,-64.86 18.55,-15.11 41.97,-22.62 70.19,-22.62 20.81,0 39.08,4.16 54.9,12.57 15.74,8.41 28.77,20.54 38.9,36.36 10.12,15.74 18.09,35.01 23.87,57.71 5.88,22.7 8.78,53.36 8.78,91.81 0,45.6 -4.71,82.5 -14.03,110.54 -9.32,28.13 -23.34,49.75 -41.97,64.95 -18.54,15.19 -42.06,22.79 -70.46,22.79 -37.36,0 -66.76,-13.3 -88.1,-39.98 -25.6,-32.56 -38.35,-85.3 -38.35,-158.3zm48.85 0.18c0,63.95 7.41,106.47 22.34,127.45 14.92,21.08 33.38,31.57 55.27,31.57 21.89,0 40.35,-10.58 55.27,-31.65 14.92,-21.17 22.35,-63.6 22.35,-127.36 0,-63.95 -7.42,-106.46 -22.35,-127.45 -14.84,-21.08 -33.47,-31.57 -55.81,-31.57 -21.89,0 -39.44,9.32 -52.56,27.87 -16.37,23.61 -24.51,67.38 -24.51,131.15z"/>
  <rect class="fil1 str4" x="10411.22" y="13258.47" width="1401.92" height="880.85" rx="224.67" ry="221.15"/>
  <rect class="fil1 str4" x="10444.22" y="11839.66" width="1401.92" height="880.85" rx="224.67" ry="221.15"/>
  <rect class="fil1 str4" x="10415.13" y="14668.95" width="1401.92" height="880.85" rx="224.67" ry="221.15"/>
  <path class="fil1 str4" d="M9564.44 13276.69l-961.34 236.57c-72.77,17.91 -122.71,80.21 -124.35,155.13l-0.34 15.47c-2.1,95.16 59.97,176.76 152.23,200.16l933 236.61c77.39,19.62 152.27,3.89 215.22,-45.21 62.95,-49.11 96.43,-117.9 96.23,-197.75l-0.91 -358.87c-0.2,-79.32 -33.55,-147.48 -96.04,-196.32 -62.48,-48.85 -136.69,-64.75 -213.7,-45.8z"/>
  <path class="fil1 str4" d="M9564.44 14687.17l-961.34 236.57c-72.77,17.91 -122.71,80.21 -124.35,155.13l-0.34 15.47c-2.1,95.16 59.97,176.76 152.23,200.16l933 236.61c77.39,19.62 152.27,3.89 215.22,-45.21 62.95,-49.11 96.43,-117.9 96.23,-197.75l-0.91 -358.87c-0.2,-79.32 -33.55,-147.48 -96.04,-196.32 -62.48,-48.85 -136.69,-64.75 -213.7,-45.8z"/>
  <path class="fil1 str4" d="M9554.01 11906.06l-869.47 257.87c-60.9,18.07 -113.59,50.42 -154.98,92.83 -69.01,70.69 -87.85,170.2 -49.51,261.24 38.36,91.04 122.74,147.06 221.53,147.06l941.33 0c126.7,0 230.13,-102.92 230.76,-229.62l1.43 -288.45c0.4,-81.7 -34.61,-152.17 -99.95,-201.21 -65.36,-49.03 -142.81,-62.94 -221.13,-39.71z"/>
  <path class="fil1 str4" d="M12683.96 13276.69l961.34 236.57c72.77,17.91 122.71,80.21 124.35,155.13l0.34 15.47c2.1,95.16 -59.97,176.76 -152.23,200.16l-933 236.61c-77.39,19.62 -152.27,3.89 -215.22,-45.21 -62.95,-49.11 -96.43,-117.9 -96.23,-197.75l0.91 -358.87c0.2,-79.32 33.55,-147.48 96.04,-196.32 62.48,-48.85 136.69,-64.75 213.7,-45.8z"/>
  <path class="fil1 str4" d="M12683.96 14687.17l961.34 236.57c72.77,17.91 122.71,80.21 124.35,155.13l0.34 15.47c2.1,95.16 -59.97,176.76 -152.23,200.16l-933 236.61c-77.39,19.62 -152.27,3.89 -215.22,-45.21 -62.95,-49.11 -96.43,-117.9 -96.23,-197.75l0.91 -358.87c0.2,-79.32 33.55,-147.48 96.04,-196.32 62.48,-48.85 136.69,-64.75 213.7,-45.8z"/>
  <path class="fil1 str4" d="M12694.39 11906.06l869.47 257.87c60.9,18.07 113.59,50.42 154.98,92.83 69.01,70.69 87.85,170.2 49.51,261.24 -38.36,91.04 -122.74,147.06 -221.53,147.06l-941.33 0c-126.7,0 -230.13,-102.92 -230.76,-229.62l-1.43 -288.45c-0.4,-81.7 34.61,-152.17 99.95,-201.21 65.36,-49.03 142.81,-62.94 221.13,-39.71z"/>
  <g>
   <path class="fil5" d="M13378.18 16638.77l92.6 -126.14 38.75 28.44 -92.6 126.14 -19.44 9.82 -19.31 -38.26zm38.75 28.44l-7.23 9.86 -12.21 -0.04 19.44 -9.82zm-656.1 -40.06l636.79 1.8 -0.13 48.08 -636.79 -1.8 0.13 -48.08zm252.67 -110.48l-0.76 270.47 -504.33 -136.65 505.09 -133.82z"/>
  </g>
  <rect class="fil6 str6" x="10890.08" y="10762.16" width="413.64" height="103.41"/>
  <path class="fil5" d="M9446.29 12499.82l-47.76 0 0 -304.1c-11.49,11.03 -26.6,21.98 -45.23,32.92 -18.62,10.94 -35.45,19.17 -50.29,24.61l0 -46.13c26.68,-12.48 50.02,-27.68 70.01,-45.59 19.99,-17.83 34.19,-35.1 42.52,-51.92l30.75 0 0 390.22z"/>
  <path class="fil5" d="M11287.91 12429.6l0 45.59 -257.25 0c-0.37,-11.49 1.54,-22.52 5.61,-33.19 6.61,-17.46 17.19,-34.74 31.75,-51.65 14.57,-16.91 35.36,-36.45 62.41,-58.61 42.07,-34.64 70.64,-62.05 85.58,-82.32 15.01,-20.26 22.52,-39.43 22.52,-57.53 0,-18.9 -6.79,-34.83 -20.36,-47.85 -13.57,-12.93 -31.3,-19.45 -53.1,-19.45 -23.07,0 -41.52,6.87 -55.36,20.62 -13.84,13.66 -20.81,32.65 -20.99,56.99l-48.85 -4.88c3.35,-36.55 16.02,-64.4 37.9,-83.59 21.98,-19.17 51.37,-28.76 88.37,-28.76 37.27,0 66.85,10.31 88.56,31.02 21.8,20.72 32.65,46.4 32.65,76.98 0,15.56 -3.16,30.85 -9.59,45.86 -6.34,15.11 -16.91,30.93 -31.66,47.58 -14.84,16.55 -39.35,39.43 -73.54,68.38 -28.67,24.06 -47.12,40.35 -55.27,48.93 -8.14,8.6 -14.84,17.19 -20.17,25.87l190.77 0z"/>
  <path class="fil5" d="M12776.23 12467.62l47.76 -6.52c5.52,27.14 14.74,46.67 27.86,58.61 13.12,11.94 29.22,17.91 48.31,17.91 22.62,0 41.69,-7.78 57.08,-23.34 15.37,-15.56 23.07,-34.83 23.07,-57.8 0,-21.89 -7.15,-39.99 -21.53,-54.28 -14.3,-14.2 -32.48,-21.35 -54.63,-21.35 -9.05,0 -20.27,1.81 -33.74,5.34l5.34 -41.79c3.16,0.36 5.79,0.54 7.68,0.54 20.44,0 38.72,-5.34 55.09,-15.91 16.29,-10.59 24.42,-26.87 24.42,-48.85 0,-17.46 -5.96,-31.93 -17.82,-43.42 -11.85,-11.49 -27.13,-17.18 -45.86,-17.18 -18.63,0 -34.11,5.87 -46.5,17.63 -12.39,11.76 -20.35,29.4 -23.87,52.91l-47.76 -8.68c5.87,-32.02 19.09,-56.89 39.8,-74.53 20.62,-17.64 46.4,-26.41 77.15,-26.41 21.17,0 40.71,4.52 58.53,13.65 17.91,9.05 31.57,21.44 40.97,37.09 9.5,15.74 14.2,32.38 14.2,50.03 0,16.73 -4.52,31.92 -13.47,45.67 -9.05,13.75 -22.43,24.69 -40.08,32.84 22.98,5.25 40.8,16.28 53.55,33.02 12.66,16.64 19,37.62 19,62.68 0,33.92 -12.39,62.78 -37.09,86.38 -24.79,23.61 -56.09,35.36 -93.89,35.36 -34.1,0 -62.41,-10.22 -84.93,-30.57 -22.62,-20.36 -35.46,-46.68 -38.62,-79.06z"/>
  <path class="fil5" d="M9447.93 13862.71l0 -92.81 -168.79 0 0 -43.96 177.48 -251.82 39.07 0 0 251.82 52.65 0 0 43.96 -52.65 0 0 92.81 -47.76 0zm0 -136.77l0 -174.84 -121.84 174.84 121.84 0z"/>
  <path class="fil5" d="M11004.72 13791.97l49.92 -3.81c3.71,24.34 12.31,42.61 25.69,54.91 13.38,12.21 29.76,18.36 49.03,18.36 23.25,0 42.69,-8.68 58.52,-25.96 15.74,-17.37 23.62,-40.34 23.62,-68.92 0,-27.23 -7.51,-48.66 -22.62,-64.4 -15.11,-15.74 -35.1,-23.61 -59.97,-23.61 -15.47,0 -29.31,3.53 -41.61,10.58 -12.21,7.06 -21.81,16.19 -28.86,27.41l-45.05 -6.52 37.44 -199.72 192.67 0 0 45.59 -154.58 0 -20.71 104.84c23.24,-16.37 47.66,-24.51 73.17,-24.51 33.83,0 62.41,11.76 85.66,35.28 23.25,23.52 34.91,53.73 34.91,90.63 0,35.19 -10.22,65.58 -30.66,91.18 -24.87,31.47 -58.88,47.21 -101.94,47.21 -35.28,0 -64.04,-9.94 -86.38,-29.76 -22.35,-19.81 -35.1,-46.04 -38.26,-78.78z"/>
  <path class="fil5" d="M12986.63 13619.27l-47.22 3.8c-4.25,-18.72 -10.32,-32.38 -18.18,-40.88 -12.93,-13.66 -28.94,-20.44 -47.94,-20.44 -15.29,0 -28.86,4.25 -40.52,12.75 -15.02,10.94 -26.78,26.87 -35.55,47.86 -8.69,21.08 -13.21,51.01 -13.57,89.82 11.48,-17.45 25.6,-30.48 42.24,-38.89 16.64,-8.5 34.01,-12.75 52.28,-12.75 31.85,0 58.98,11.75 81.41,35.18 22.34,23.42 33.56,53.64 33.56,90.82 0,24.42 -5.25,47.04 -15.74,68.02 -10.59,20.99 -24.96,37 -43.42,48.12 -18.36,11.12 -39.25,16.73 -62.59,16.73 -39.71,0 -72.18,-14.65 -97.34,-43.86 -25.06,-29.22 -37.62,-77.43 -37.62,-144.55 0,-75.08 13.93,-129.71 41.7,-163.82 24.24,-29.66 56.89,-44.5 98.05,-44.5 30.58,0 55.72,8.59 75.26,25.68 19.54,17.1 31.3,40.71 35.19,70.92zm-195.38 167.7c0,16.46 3.53,32.2 10.49,47.22 6.96,15.01 16.73,26.41 29.12,34.28 12.48,7.87 25.69,11.85 39.71,11.85 20.36,0 37.72,-8.13 52.11,-24.42 14.37,-16.28 21.62,-38.35 21.62,-66.3 0,-26.87 -7.14,-48.03 -21.35,-63.5 -14.2,-15.47 -32.3,-23.25 -54.28,-23.25 -21.53,0 -39.88,7.78 -54.9,23.25 -15.01,15.47 -22.52,35.73 -22.52,60.87z"/>
  <path class="fil5" d="M9204.07 14948.27l0 -45.59 251.28 0 0 36.9c-24.69,26.33 -49.3,61.33 -73.54,105.02 -24.33,43.69 -43.06,88.64 -56.35,134.87 -9.5,32.47 -15.65,68.2 -18.28,106.91l-48.85 0c0.55,-30.58 6.52,-67.57 18,-110.89 11.49,-43.42 27.87,-85.21 49.3,-125.46 21.44,-40.26 44.24,-74.17 68.38,-101.77l-189.95 0z"/>
  <path class="fil5" d="M11082.17 15093.81c-19.81,-7.23 -34.46,-17.63 -44.06,-31.02 -9.49,-13.48 -14.29,-29.59 -14.29,-48.31 0,-28.31 10.13,-52.01 30.39,-71.28 20.36,-19.27 47.31,-28.94 81.05,-28.94 33.83,0 61.14,9.86 81.77,29.58 20.62,19.72 30.93,43.69 30.93,72 0,18 -4.7,33.74 -14.11,47.04 -9.4,13.38 -23.7,23.7 -42.97,30.93 23.8,7.78 41.8,20.27 54.18,37.63 12.39,17.28 18.63,37.89 18.63,61.96 0,33.19 -11.76,61.06 -35.18,83.67 -23.52,22.61 -54.36,33.91 -92.62,33.91 -38.27,0 -69.11,-11.31 -92.62,-34.01 -23.43,-22.7 -35.19,-51.02 -35.19,-84.93 0,-25.24 6.42,-46.4 19.27,-63.41 12.85,-17.1 31.12,-28.67 54.82,-34.83zm-9.5 -81.05c0,18.45 5.88,33.47 17.55,45.14 11.76,11.66 27.13,17.55 46.22,17.55 18.55,0 33.56,-5.79 45.23,-17.37 11.66,-11.58 17.45,-25.78 17.45,-42.6 0,-17.55 -5.96,-32.3 -18,-44.24 -11.93,-11.93 -27.04,-17.9 -45.22,-17.9 -18.37,0 -33.47,5.87 -45.41,17.55 -11.85,11.66 -17.82,25.6 -17.82,41.87zm-15.74 179.64c0,13.66 3.16,26.78 9.5,39.53 6.33,12.66 15.92,22.53 28.76,29.49 12.76,6.96 26.51,10.49 41.07,10.49 22.98,0 41.8,-7.33 56.54,-21.98 14.74,-14.65 22.07,-33.29 22.07,-55.89 0,-22.98 -7.6,-41.97 -22.7,-56.99 -15.19,-15.02 -34.37,-22.52 -57.44,-22.52 -22.61,0 -41.15,7.41 -55.81,22.25 -14.65,14.84 -21.98,33.37 -21.98,55.62z"/>
  <path class="fil5" d="M12751.92 15271.55l45.6 -3.8c3.88,21.53 11.31,37.09 22.25,46.77 10.94,9.67 24.96,14.56 42.15,14.56 14.65,0 27.5,-3.35 38.62,-10.12 11.12,-6.69 20.17,-15.65 27.13,-26.96 6.96,-11.21 12.85,-26.41 17.63,-45.5 4.8,-19.08 7.14,-38.53 7.14,-58.34 0,-2.09 -0.09,-5.34 -0.27,-9.59 -9.5,15.19 -22.52,27.59 -38.98,36.99 -16.46,9.5 -34.37,14.2 -53.55,14.2 -32.12,0 -59.25,-11.66 -81.5,-35.01 -22.16,-23.24 -33.29,-54 -33.29,-92.17 0,-39.43 11.58,-71.1 34.82,-95.15 23.16,-23.97 52.2,-36 87.2,-36 25.14,0 48.21,6.78 69.2,20.44 20.89,13.57 36.72,32.92 47.58,58.16 10.86,25.14 16.28,61.6 16.28,109.27 0,49.65 -5.34,89.18 -16.1,118.59 -10.77,29.49 -26.87,51.83 -48.12,67.2 -21.26,15.38 -46.13,23.07 -74.71,23.07 -30.39,0 -55.18,-8.41 -74.45,-25.33 -19.17,-16.91 -30.75,-40.7 -34.64,-71.28zm194.84 -171.41c0,-27.32 -7.24,-49.02 -21.71,-65.03 -14.38,-16.02 -31.93,-24.07 -52.56,-24.07 -21.35,0 -39.8,8.6 -55.36,25.87 -15.64,17.27 -23.42,39.7 -23.42,67.2 0,24.7 7.41,44.78 22.15,60.15 14.84,15.47 33.29,23.15 55.27,23.15 22.08,0 40.16,-7.68 54.36,-23.15 14.2,-15.37 21.26,-36.82 21.26,-64.13z"/>
  <g id="_2166272675104">
   <path class="fil1 str9" d="M7450.49 9440.54c8.42,26.4 80.18,18.84 83.76,156.16 -11.26,54.32 -25.47,96.01 -41.37,149.82 -29.21,143.5 81.94,167.12 -88.07,144.77l-66.43 -12.34c-32.26,100.95 -153.7,68.46 -131.17,-40.25 -11.34,-14.48 -111.97,-42.22 -135.46,-80.82 -2.68,-17.7 10.49,-27.31 24.23,-36.75 43.43,-48.34 67.38,-146.23 90.22,-211.3 59.06,-124.09 138.63,-81.59 160.92,-99.86 41.94,-122.81 136.09,-80.04 103.37,30.57z"/>
  </g>
  <line class="fil1 str10" x1="7644.5" y1="9441.07" x2="7006.49" y2= "9793.23" />
 </g>
</svg>
